<?xml version="1.0" encoding="UTF-8" standalone="no"?>
<svg
   xmlns:dc="http://purl.org/dc/elements/1.1/"
   xmlns:cc="http://creativecommons.org/ns#"
   xmlns:rdf="http://www.w3.org/1999/02/22-rdf-syntax-ns#"
   xmlns:svg="http://www.w3.org/2000/svg"
   xmlns="http://www.w3.org/2000/svg"
   id="svg8"
   version="1.1"
   viewBox="0 0 210 297"
   height="297mm"
   width="210mm">
  <defs
     id="defs2" />
  <metadata
     id="metadata5">
    <rdf:RDF>
      <cc:Work
         rdf:about="">
        <dc:format>image/svg+xml</dc:format>
        <dc:type
           rdf:resource="http://purl.org/dc/dcmitype/StillImage" />
        <dc:title></dc:title>
      </cc:Work>
    </rdf:RDF>
  </metadata>
  <g
     id="layer1">
    <flowRoot
       style="fill:black;fill-opacity:1;stroke:none;font-family:sans-serif;font-style:normal;font-weight:normal;font-size:40px;line-height:1.25;letter-spacing:0px;word-spacing:0px"
       id="flowRoot10"
       xml:space="preserve"><flowRegion
         id="flowRegion12"><rect
           y="545.37683"
           x="130"
           height="195.71428"
           width="380"
           id="rect14" /></flowRegion><flowPara
         id="flowPara16"></flowPara></flowRoot>    <text
       id="text20"
       y="77.395828"
       x="35.151787"
       style="font-style:normal;font-weight:normal;font-size:10.58333302px;line-height:1.25;font-family:sans-serif;letter-spacing:0px;word-spacing:0px;fill:#000000;fill-opacity:1;stroke:none;stroke-width:0.26458332"
       xml:space="preserve"><tspan
         style="stroke-width:0.26458332"
         y="86.759598"
         x="35.151787"
         id="tspan18" /></text>
    <path
       id="path33"
       d="m 47.247025,132.3949 c -1.285488,-0.25077 -6.787078,-2.54017 -9.884978,-4.11347 C 21.111692,120.02848 8.2749947,104.3703 3.2528896,86.675146 c -1.74088,-6.1339 -2.40845003,-11.29076 -2.41471003,-18.65312 -0.005,-6.04245 0.25010003,-8.73595 1.32488003,-13.98136 C 7.1673166,29.617506 26.121593,9.4310956 50.262103,2.8149156 c 13.79583,-3.78100997 29.57685,-3.01486997 42.57339,2.06687 15.827537,6.1886804 28.561887,17.7967804 36.179537,32.9797804 3.48079,6.93768 5.58709,13.89317 6.64955,21.95837 0.41716,3.16663 0.41433,13.0828 -0.005,16.40417 -1.32357,10.49168 -4.79195,20.05378 -10.34911,28.531834 -8.0231,12.2401 -18.90534,21.16659 -32.158557,26.37901 -4.08916,1.60824 -5.55308,1.70277 -6.8164,0.44015 l -0.85652,-0.85604 -0.16031,-11.96778 c -0.17158,-12.80942 -0.23779,-13.48002 -1.6421,-16.63348 -0.34773,-0.78085 -1.11902,-2.03216 -1.71397,-2.780704 l -1.08172,-1.36097 2.16676,-0.30327 c 6.92663,-0.96948 12.32251,-2.86792 16.978257,-5.97349 5.6619,-3.77669 9.1506,-9.63784 10.8649,-18.25339 0.56413,-2.83511 0.80768,-10.7939 0.40837,-13.34468 -0.68079,-4.34884 -2.83234,-9.17093 -5.52911,-12.39195 l -1.06245,-1.26896 0.65041,-2.23991 c 1.15474,-3.97679 0.8469,-9.55348 -0.7774,-14.08287 -0.51545,-1.43732 -0.68154,-1.64551 -1.4762,-1.85037 -2.45867,-0.63383 -9.436267,1.92343 -15.485787,5.67546 -1.50699,0.93466 -2.31362,1.2808 -2.79106,1.19769 -0.36933,-0.0643 -1.87864,-0.37131 -3.35402,-0.68226 -8.43934,-1.77866 -17.68104,-1.77866 -26.120382,0 -1.475385,0.31095 -2.991794,0.61901 -3.369799,0.68457 -0.495435,0.0859 -1.211271,-0.21665 -2.564458,-1.08402 -5.39483,-3.458 -13.033213,-6.2539 -15.840881,-5.79828 -0.852647,0.13837 -0.913736,0.22928 -1.545209,2.29956 -1.024036,3.35729 -1.283428,5.07362 -1.263148,8.3579 0.01505,2.43858 0.150421,3.48582 0.681755,5.27447 l 0.662966,2.23176 -1.018442,1.20782 c -2.672296,3.16921 -4.889903,8.13512 -5.568405,12.46939 -0.399879,2.55443 -0.155368,10.51489 0.409807,13.34193 1.355488,6.78025 3.984719,12.17396 7.650015,15.69356 2.754964,2.64545 7.197789,5.213 11.542657,6.6706 1.888381,0.63351 6.939224,1.70454 9.318466,1.97597 l 1.513257,0.17265 -1.030377,1.30352 c -1.338535,1.693374 -2.305756,3.765384 -2.819365,6.039714 -0.402064,1.78039 -0.440251,1.83674 -1.514412,2.23456 -2.368777,0.8773 -3.607316,1.07167 -6.922777,1.08645 -3.396552,0.0151 -3.461986,0.004 -5.230194,-0.88319 -2.289849,-1.14903 -4.270073,-3.05979 -6.082812,-5.86941 -2.625717,-4.069704 -6.614638,-6.936894 -10.144871,-7.292024 -2.03104,-0.20433 -3.545247,0.23297 -3.545247,1.02385 0,0.60248 2.125824,2.75444 3.998845,4.04801 0.638291,0.440834 1.791727,1.631454 2.56319,2.645844 1.258181,1.65436 1.892214,2.82157 4.214232,7.75815 1.272963,2.7063 4.472011,5.19768 8.009149,6.23743 0.800364,0.23526 3.122083,0.56131 5.159374,0.72453 3.026341,0.24247 4.176226,0.22713 6.283854,-0.0838 l 2.579688,-0.38059 0.0652,4.64222 c 0.131072,9.33261 0.07291,9.8327 -1.243896,10.6955 -0.696325,0.45625 -2.112756,0.69188 -3.054633,0.50814 z"
       style="fill:#000000;stroke-width:0.26458332" />
    <flowRoot
       style="fill:black;fill-opacity:1;stroke:none;font-family:sans-serif;font-style:normal;font-weight:normal;font-size:40px;line-height:1.25;letter-spacing:0px;word-spacing:0px"
       id="flowRoot35"
       xml:space="preserve"><flowRegion
         id="flowRegion37"><rect
           y="418.23398"
           x="-41.42857"
           height="64.285713"
           width="377.14285"
           id="rect39" /></flowRegion><flowPara
         id="flowPara41"></flowPara></flowRoot>    <flowRoot
       style="fill:black;fill-opacity:1;stroke:none;font-family:sans-serif;font-style:normal;font-weight:normal;font-size:40px;line-height:1.25;letter-spacing:0px;word-spacing:0px"
       id="flowRoot43"
       xml:space="preserve"><flowRegion
         id="flowRegion45"><rect
           y="228.23396"
           x="-98.571426"
           height="131.42857"
           width="448.57144"
           id="rect47" /></flowRegion><flowPara
         id="flowPara49"></flowPara></flowRoot>  </g>
</svg>
