<?xml version="1.0" encoding="UTF-8" standalone="no"?>
<!-- Created with Inkscape (http://www.inkscape.org/) -->

<svg
   xmlns:dc="http://purl.org/dc/elements/1.1/"
   xmlns:cc="http://creativecommons.org/ns#"
   xmlns:rdf="http://www.w3.org/1999/02/22-rdf-syntax-ns#"
   xmlns:svg="http://www.w3.org/2000/svg"
   xmlns="http://www.w3.org/2000/svg"
   xmlns:sodipodi="http://sodipodi.sourceforge.net/DTD/sodipodi-0.dtd"
   xmlns:inkscape="http://www.inkscape.org/namespaces/inkscape"
   width="120"
   height="120"
   viewBox="0 0 31.749999 31.750001"
   version="1.1"
   id="svg8"
   inkscape:version="0.92.1 r15371"
   sodipodi:docname="tritech-cyber.svg">
  <defs
     id="defs2" />
  <sodipodi:namedview
     id="base"
     pagecolor="#ffffff"
     bordercolor="#666666"
     borderopacity="1.0"
     inkscape:pageopacity="0.0"
     inkscape:pageshadow="2"
     inkscape:zoom="1.979899"
     inkscape:cx="160.71429"
     inkscape:cy="161.38363"
     inkscape:document-units="mm"
     inkscape:current-layer="layer1"
     showgrid="false"
     inkscape:window-width="1920"
     inkscape:window-height="986"
     inkscape:window-x="0"
     inkscape:window-y="30"
     inkscape:window-maximized="1"
     inkscape:snap-text-baseline="true"
     units="px" />
  <metadata
     id="metadata5">
    <rdf:RDF>
      <cc:Work
         rdf:about="">
        <dc:format>image/svg+xml</dc:format>
        <dc:type
           rdf:resource="http://purl.org/dc/dcmitype/StillImage" />
        <dc:title></dc:title>
      </cc:Work>
    </rdf:RDF>
  </metadata>
  <g
     inkscape:label="Layer 1"
     inkscape:groupmode="layer"
     id="layer1"
     transform="translate(0,-265.24998)">
    <path
       style="opacity:1;fill:none;fill-opacity:1;stroke:#c2dcff;stroke-width:0.5;stroke-miterlimit:4;stroke-dasharray:none;stroke-opacity:1"
       d="m 11.343289,294.15412 c -0.27516,-0.0497 -1.4527805,-0.50381 -2.1158899,-0.81586 -3.4784048,-1.63688 -6.2261128,-4.7425 -7.3010988,-8.25214 -0.372637,-1.21659 -0.515531,-2.23939 -0.516871,-3.69963 -0.0011,-1.19846 0.05353,-1.73268 0.283592,-2.77305 1.071166,-4.84406 5.1283478,-8.8478 10.2956487,-10.16005 2.953011,-0.74992 6.330955,-0.59796 9.112877,0.40994 3.3879,1.22746 6.113701,3.52979 7.744266,6.54117 0.745067,1.37601 1.195923,2.75555 1.423343,4.35519 0.08929,0.62807 0.08869,2.59483 -0.0011,3.25359 -0.283311,2.0809 -1.025722,3.97744 -2.215237,5.65896 -1.717353,2.42769 -4.046707,4.19816 -6.883572,5.23198 -0.875289,0.31898 -1.188642,0.33773 -1.459057,0.0873 l -0.183339,-0.16978 -0.03431,-2.37368 c -0.03673,-2.5406 -0.0509,-2.67361 -0.351493,-3.29906 -0.07443,-0.15487 -0.239527,-0.40306 -0.366877,-0.55152 l -0.231543,-0.26993 0.463797,-0.0602 c 1.482652,-0.19229 2.637646,-0.56882 3.634213,-1.18478 1.211936,-0.74906 1.958695,-1.91156 2.325643,-3.62035 0.120753,-0.56231 0.172885,-2.14085 0.08741,-2.64677 -0.145697,-0.86254 -0.606238,-1.81895 -1.183485,-2.4578 l -0.227418,-0.25169 0.139221,-0.44426 c 0.247173,-0.78875 0.18128,-1.89482 -0.166403,-2.79318 -0.110333,-0.28507 -0.145885,-0.32636 -0.315983,-0.367 -0.52628,-0.12571 -2.019842,0.38149 -3.314748,1.12567 -0.322573,0.18538 -0.495233,0.25403 -0.597429,0.23755 -0.07906,-0.0127 -0.402125,-0.0736 -0.717932,-0.13532 -1.806449,-0.35278 -3.784644,-0.35278 -5.591094,0 -0.315807,0.0617 -0.640396,0.12277 -0.721309,0.13577 -0.106048,0.017 -0.259273,-0.043 -0.548924,-0.215 -1.154769,-0.68586 -2.7897729,-1.24039 -3.3907579,-1.15002 -0.182509,0.0274 -0.195586,0.0455 -0.330753,0.45609 -0.219196,0.66588 -0.274719,1.00629 -0.270378,1.65769 0.0032,0.48367 0.0322,0.69138 0.14593,1.04614 l 0.141909,0.44264 -0.217999,0.23956 c -0.572008,0.62857 -1.046689,1.61351 -1.191923,2.47316 -0.0856,0.50664 -0.03326,2.08551 0.08772,2.64622 0.290144,1.34479 0.852934,2.41457 1.637494,3.11264 0.589703,0.5247 1.5406944,1.03394 2.4707179,1.32304 0.404209,0.12565 1.485347,0.33808 1.994627,0.39191 l 0.323914,0.0342 -0.220553,0.25854 c -0.286515,0.33586 -0.49355,0.74682 -0.603488,1.19791 -0.08606,0.35312 -0.09424,0.3643 -0.324162,0.4432 -0.507039,0.174 -0.772149,0.21255 -1.481827,0.21548 -0.7270355,0.003 -0.7410415,8e-4 -1.1195289,-0.17517 -0.490145,-0.22789 -0.914014,-0.60687 -1.302032,-1.16413 -0.562038,-0.80718 -1.41587,-1.37585 -2.17152,-1.44629 -0.4347458,-0.0405 -0.7588638,0.0462 -0.7588638,0.20307 0,0.1195 0.455035,0.54631 0.8559568,0.80288 0.136627,0.0874 0.383521,0.32358 0.548653,0.52477 0.269315,0.32813 0.405031,0.55963 0.902061,1.53874 0.272479,0.53677 0.957238,1.03091 1.714366,1.23713 0.171319,0.0467 0.6682854,0.11133 1.1043709,0.1437 0.647791,0.0481 0.893925,0.0451 1.345065,-0.0166 l 0.552184,-0.0755 0.01396,0.92073 c 0.02806,1.85102 0.01561,1.95021 -0.266258,2.12133 -0.149049,0.0905 -0.452237,0.13723 -0.653847,0.10079 z"
       id="path33"
       inkscape:connector-curvature="0" />
    <flowRoot
       xml:space="preserve"
       id="flowRoot10"
       style="font-style:normal;font-weight:normal;font-size:40px;line-height:1.25;font-family:sans-serif;letter-spacing:0px;word-spacing:0px;fill:#000000;fill-opacity:1;stroke:none"
       transform="scale(0.26458333)"><flowRegion
         id="flowRegion12"><rect
           id="rect14"
           width="380"
           height="195.71428"
           x="130"
           y="545.37683" /></flowRegion><flowPara
         id="flowPara16"></flowPara></flowRoot>    <text
       xml:space="preserve"
       style="font-style:normal;font-weight:normal;font-size:10.58333302px;line-height:1.25;font-family:sans-serif;letter-spacing:0px;word-spacing:0px;fill:#000000;fill-opacity:1;stroke:none;stroke-width:0.26458332"
       x="35.151787"
       y="77.395828"
       id="text20"><tspan
         sodipodi:role="line"
         id="tspan18"
         x="35.151787"
         y="86.759598"
         style="stroke-width:0.26458332" /></text>
    <flowRoot
       xml:space="preserve"
       id="flowRoot35"
       style="font-style:normal;font-weight:normal;font-size:40px;line-height:1.25;font-family:sans-serif;letter-spacing:0px;word-spacing:0px;fill:#000000;fill-opacity:1;stroke:none"
       transform="scale(0.26458333)"><flowRegion
         id="flowRegion37"><rect
           id="rect39"
           width="377.14285"
           height="64.285713"
           x="-41.42857"
           y="418.23398" /></flowRegion><flowPara
         id="flowPara41"></flowPara></flowRoot>    <flowRoot
       xml:space="preserve"
       id="flowRoot43"
       style="font-style:normal;font-weight:normal;font-size:40px;line-height:1.25;font-family:sans-serif;letter-spacing:0px;word-spacing:0px;fill:#000000;fill-opacity:1;stroke:none"
       transform="scale(0.26458333)"><flowRegion
         id="flowRegion45"><rect
           id="rect47"
           width="448.57144"
           height="131.42857"
           x="-98.571426"
           y="228.23396" /></flowRegion><flowPara
         id="flowPara49"></flowPara></flowRoot>    <g
       aria-label="tritech-cyber"
       transform="matrix(0.26458333,0,0,0.26458333,49.419206,284.76169)"
       style="font-style:normal;font-weight:normal;font-size:40px;line-height:1.25;font-family:sans-serif;letter-spacing:0px;word-spacing:0px;fill:#292a88;fill-opacity:1;stroke:none"
       id="flowRoot4584">
      <path
         d="m -183.72461,-70.911458 v 2.898438 h 3.45443 v 1.303385 h -3.45443 v 5.541666 q 0,1.248698 0.33724,1.604167 0.34635,0.355469 1.39453,0.355469 h 1.72266 v 1.403646 h -1.72266 q -1.9414,0 -2.67969,-0.720053 -0.73828,-0.729166 -0.73828,-2.643229 v -5.541666 h -1.23047 v -1.303385 h 1.23047 v -2.898438 z"
         style="font-style:normal;font-variant:normal;font-weight:normal;font-stretch:normal;font-size:18.66666603px;font-family:'Standard Symbols L';-inkscape-font-specification:'Standard Symbols L, Normal';font-variant-ligatures:normal;font-variant-caps:normal;font-variant-numeric:normal;font-feature-settings:normal;text-align:start;writing-mode:lr-tb;text-anchor:start;fill:#292a88;fill-opacity:1"
         id="path4661"
         inkscape:connector-curvature="0" />
      <path
         d="m -172.13997,-66.445312 q -0.28256,-0.164063 -0.6198,-0.236979 -0.32812,-0.08203 -0.72916,-0.08203 -1.42188,0 -2.1875,0.929688 -0.75651,0.920573 -0.75651,2.652344 v 5.377604 h -1.6862 V -68.01302 h 1.6862 v 1.585937 q 0.52864,-0.929688 1.3763,-1.376302 0.84765,-0.455729 2.05989,-0.455729 0.17318,0 0.38282,0.02734 0.20963,0.01823 0.46484,0.0638 z"
         style="font-style:normal;font-variant:normal;font-weight:normal;font-stretch:normal;font-size:18.66666603px;font-family:'Standard Symbols L';-inkscape-font-specification:'Standard Symbols L, Normal';font-variant-ligatures:normal;font-variant-caps:normal;font-variant-numeric:normal;font-feature-settings:normal;text-align:start;writing-mode:lr-tb;text-anchor:start;fill:#292a88;fill-opacity:1"
         id="path4663"
         inkscape:connector-curvature="0" />
      <path
         d="m -170.36263,-68.01302 h 1.67708 v 10.208333 h -1.67708 z m 0,-3.973959 h 1.67708 v 2.123698 h -1.67708 z"
         style="font-style:normal;font-variant:normal;font-weight:normal;font-stretch:normal;font-size:18.66666603px;font-family:'Standard Symbols L';-inkscape-font-specification:'Standard Symbols L, Normal';font-variant-ligatures:normal;font-variant-caps:normal;font-variant-numeric:normal;font-feature-settings:normal;text-align:start;writing-mode:lr-tb;text-anchor:start;fill:#292a88;fill-opacity:1"
         id="path4665"
         inkscape:connector-curvature="0" />
      <path
         d="m -163.52669,-70.911458 v 2.898438 h 3.45442 v 1.303385 h -3.45442 v 5.541666 q 0,1.248698 0.33724,1.604167 0.34635,0.355469 1.39453,0.355469 h 1.72265 v 1.403646 h -1.72265 q -1.94141,0 -2.67969,-0.720053 -0.73828,-0.729166 -0.73828,-2.643229 v -5.541666 h -1.23047 v -1.303385 h 1.23047 v -2.898438 z"
         style="font-style:normal;font-variant:normal;font-weight:normal;font-stretch:normal;font-size:18.66666603px;font-family:'Standard Symbols L';-inkscape-font-specification:'Standard Symbols L, Normal';font-variant-ligatures:normal;font-variant-caps:normal;font-variant-numeric:normal;font-feature-settings:normal;text-align:start;writing-mode:lr-tb;text-anchor:start;fill:#292a88;fill-opacity:1"
         id="path4667"
         inkscape:connector-curvature="0" />
      <path
         d="m -149.12565,-63.328125 v 0.820313 h -7.71094 q 0.10937,1.73177 1.03906,2.643229 0.9388,0.902343 2.60677,0.902343 0.96615,0 1.86849,-0.236979 0.91146,-0.236979 1.80469,-0.710937 v 1.585937 q -0.90234,0.382813 -1.85026,0.583334 -0.94792,0.20052 -1.92318,0.20052 -2.44271,0 -3.8737,-1.421875 -1.42187,-1.421874 -1.42187,-3.846354 0,-2.50651 1.34896,-3.973958 1.35807,-1.476562 3.65494,-1.476562 2.0599,0 3.25391,1.330729 1.20313,1.321614 1.20313,3.60026 z m -1.67709,-0.492187 q -0.0182,-1.376302 -0.77474,-2.196615 -0.74739,-0.820312 -1.98698,-0.820312 -1.40364,0 -2.2513,0.792968 -0.83854,0.792969 -0.96614,2.233073 z"
         style="font-style:normal;font-variant:normal;font-weight:normal;font-stretch:normal;font-size:18.66666603px;font-family:'Standard Symbols L';-inkscape-font-specification:'Standard Symbols L, Normal';font-variant-ligatures:normal;font-variant-caps:normal;font-variant-numeric:normal;font-feature-settings:normal;text-align:start;writing-mode:lr-tb;text-anchor:start;fill:#292a88;fill-opacity:1"
         id="path4669"
         inkscape:connector-curvature="0" />
      <path
         d="m -139.0267,-67.621093 v 1.567708 q -0.71093,-0.391927 -1.43099,-0.583333 -0.71093,-0.200521 -1.4401,-0.200521 -1.63151,0 -2.53385,1.039062 -0.90235,1.029948 -0.90235,2.898438 0,1.868489 0.90235,2.907552 0.90234,1.029947 2.53385,1.029947 0.72917,0 1.4401,-0.191406 0.72006,-0.200521 1.43099,-0.592448 v 1.549479 q -0.70182,0.328125 -1.45833,0.492188 -0.74739,0.164062 -1.59505,0.164062 -2.30599,0 -3.66406,-1.449218 -1.35808,-1.449219 -1.35808,-3.910156 0,-2.497396 1.36719,-3.928386 1.3763,-1.430989 3.76432,-1.430989 0.77474,0 1.51302,0.164062 0.73829,0.154948 1.43099,0.473959 z"
         style="font-style:normal;font-variant:normal;font-weight:normal;font-stretch:normal;font-size:18.66666603px;font-family:'Standard Symbols L';-inkscape-font-specification:'Standard Symbols L, Normal';font-variant-ligatures:normal;font-variant-caps:normal;font-variant-numeric:normal;font-feature-settings:normal;text-align:start;writing-mode:lr-tb;text-anchor:start;fill:#292a88;fill-opacity:1"
         id="path4671"
         inkscape:connector-curvature="0" />
      <path
         d="m -127.60612,-63.966146 v 6.161459 h -1.67709 v -6.106771 q 0,-1.449219 -0.5651,-2.169271 -0.5651,-0.720052 -1.69531,-0.720052 -1.35808,0 -2.14193,0.865885 -0.78385,0.865886 -0.78385,2.360677 v 5.769532 h -1.6862 v -14.182292 h 1.6862 v 5.559896 q 0.60156,-0.920573 1.41276,-1.376302 0.82031,-0.455729 1.88672,-0.455729 1.75911,0 2.66145,1.09375 0.90235,1.084635 0.90235,3.199218 z"
         style="font-style:normal;font-variant:normal;font-weight:normal;font-stretch:normal;font-size:18.66666603px;font-family:'Standard Symbols L';-inkscape-font-specification:'Standard Symbols L, Normal';font-variant-ligatures:normal;font-variant-caps:normal;font-variant-numeric:normal;font-feature-settings:normal;text-align:start;writing-mode:lr-tb;text-anchor:start;fill:#292a88;fill-opacity:1"
         id="path4673"
         inkscape:connector-curvature="0" />
      <path
         d="m -125.09049,-63.665364 h 4.91276 v 1.494791 h -4.91276 z"
         style="font-style:normal;font-variant:normal;font-weight:normal;font-stretch:normal;font-size:18.66666603px;font-family:'Standard Symbols L';-inkscape-font-specification:'Standard Symbols L, Normal';font-variant-ligatures:normal;font-variant-caps:normal;font-variant-numeric:normal;font-feature-settings:normal;text-align:start;writing-mode:lr-tb;text-anchor:start;fill:#292a88;fill-opacity:1"
         id="path4675"
         inkscape:connector-curvature="0" />
      <path
         d="m -110.1517,-67.621093 v 1.567708 q -0.71093,-0.391927 -1.43099,-0.583333 -0.71093,-0.200521 -1.4401,-0.200521 -1.63151,0 -2.53385,1.039062 -0.90235,1.029948 -0.90235,2.898438 0,1.868489 0.90235,2.907552 0.90234,1.029947 2.53385,1.029947 0.72917,0 1.4401,-0.191406 0.72006,-0.200521 1.43099,-0.592448 v 1.549479 q -0.70182,0.328125 -1.45833,0.492188 -0.74739,0.164062 -1.59505,0.164062 -2.30599,0 -3.66406,-1.449218 -1.35808,-1.449219 -1.35808,-3.910156 0,-2.497396 1.36719,-3.928386 1.3763,-1.430989 3.76432,-1.430989 0.77474,0 1.51302,0.164062 0.73829,0.154948 1.43099,0.473959 z"
         style="font-style:normal;font-variant:normal;font-weight:normal;font-stretch:normal;font-size:18.66666603px;font-family:'Standard Symbols L';-inkscape-font-specification:'Standard Symbols L, Normal';font-variant-ligatures:normal;font-variant-caps:normal;font-variant-numeric:normal;font-feature-settings:normal;text-align:start;writing-mode:lr-tb;text-anchor:start;fill:#292a88;fill-opacity:1"
         id="path4677"
         inkscape:connector-curvature="0" />
      <path
         d="m -102.9694,-56.856771 q -0.71094,1.822917 -1.38542,2.378906 -0.67448,0.55599 -1.80469,0.55599 h -1.33984 v -1.403646 h 0.98437 q 0.69271,0 1.07552,-0.328125 0.38282,-0.328125 0.84766,-1.549479 l 0.30078,-0.765625 -4.1289,-10.04427 h 1.77734 l 3.1901,7.984374 3.19011,-7.984374 h 1.777341 z"
         style="font-style:normal;font-variant:normal;font-weight:normal;font-stretch:normal;font-size:18.66666603px;font-family:'Standard Symbols L';-inkscape-font-specification:'Standard Symbols L, Normal';font-variant-ligatures:normal;font-variant-caps:normal;font-variant-numeric:normal;font-feature-settings:normal;text-align:start;writing-mode:lr-tb;text-anchor:start;fill:#292a88;fill-opacity:1"
         id="path4679"
         inkscape:connector-curvature="0" />
      <path
         d="m -88.8418,-62.899739 q 0,-1.850261 -0.765625,-2.898438 -0.75651,-1.057291 -2.087239,-1.057291 -1.330729,0 -2.096354,1.057291 -0.756511,1.048177 -0.756511,2.898438 0,1.85026 0.756511,2.907552 0.765625,1.048177 2.096354,1.048177 1.330729,0 2.087239,-1.048177 0.765625,-1.057292 0.765625,-2.907552 z m -5.705729,-3.563802 q 0.528646,-0.911459 1.330729,-1.348959 0.811198,-0.446614 1.932292,-0.446614 1.859375,0 3.016927,1.476562 1.166667,1.476563 1.166667,3.882813 0,2.40625 -1.166667,3.882812 -1.157552,1.476562 -3.016927,1.476562 -1.121094,0 -1.932292,-0.4375 -0.802083,-0.446614 -1.330729,-1.358072 v 1.53125 h -1.686198 v -14.182292 h 1.686198 z"
         style="font-style:normal;font-variant:normal;font-weight:normal;font-stretch:normal;font-size:18.66666603px;font-family:'Standard Symbols L';-inkscape-font-specification:'Standard Symbols L, Normal';font-variant-ligatures:normal;font-variant-caps:normal;font-variant-numeric:normal;font-feature-settings:normal;text-align:start;writing-mode:lr-tb;text-anchor:start;fill:#292a88;fill-opacity:1"
         id="path4681"
         inkscape:connector-curvature="0" />
      <path
         d="m -75.589193,-63.328125 v 0.820313 h -7.710937 q 0.109375,1.73177 1.039062,2.643229 0.938802,0.902343 2.606771,0.902343 0.966146,0 1.868489,-0.236979 0.911459,-0.236979 1.804688,-0.710937 v 1.585937 q -0.902344,0.382813 -1.85026,0.583334 -0.947917,0.20052 -1.923178,0.20052 -2.442708,0 -3.873697,-1.421875 -1.421875,-1.421874 -1.421875,-3.846354 0,-2.50651 1.348958,-3.973958 1.358073,-1.476562 3.654948,-1.476562 2.059896,0 3.253906,1.330729 1.203125,1.321614 1.203125,3.60026 z m -1.677083,-0.492187 q -0.01823,-1.376302 -0.77474,-2.196615 -0.747396,-0.820312 -1.986979,-0.820312 -1.403646,0 -2.251302,0.792968 -0.838542,0.792969 -0.966146,2.233073 z"
         style="font-style:normal;font-variant:normal;font-weight:normal;font-stretch:normal;font-size:18.66666603px;font-family:'Standard Symbols L';-inkscape-font-specification:'Standard Symbols L, Normal';font-variant-ligatures:normal;font-variant-caps:normal;font-variant-numeric:normal;font-feature-settings:normal;text-align:start;writing-mode:lr-tb;text-anchor:start;fill:#292a88;fill-opacity:1"
         id="path4683"
         inkscape:connector-curvature="0" />
      <path
         d="m -66.921224,-66.445312 q -0.282552,-0.164063 -0.619792,-0.236979 -0.328125,-0.08203 -0.729167,-0.08203 -1.421874,0 -2.187499,0.929688 -0.756511,0.920573 -0.756511,2.652344 v 5.377604 h -1.686198 V -68.01302 h 1.686198 v 1.585937 q 0.528646,-0.929688 1.376302,-1.376302 0.847656,-0.455729 2.059896,-0.455729 0.173177,0 0.382812,0.02734 0.209636,0.01823 0.464844,0.0638 z"
         style="font-style:normal;font-variant:normal;font-weight:normal;font-stretch:normal;font-size:18.66666603px;font-family:'Standard Symbols L';-inkscape-font-specification:'Standard Symbols L, Normal';font-variant-ligatures:normal;font-variant-caps:normal;font-variant-numeric:normal;font-feature-settings:normal;text-align:start;writing-mode:lr-tb;text-anchor:start;fill:#292a88;fill-opacity:1"
         id="path4685"
         inkscape:connector-curvature="0" />
    </g>
    <g
       aria-label="repositories"
       transform="matrix(0.26458333,0,0,0.26458333,50.764861,311.38328)"
       style="font-style:normal;font-weight:normal;font-size:40px;line-height:1.25;font-family:sans-serif;letter-spacing:0px;word-spacing:0px;fill:#292a88;fill-opacity:1;stroke:none"
       id="flowRoot4584-6">
      <path
         d="m -179.4681,-66.445312 q -0.28255,-0.164063 -0.61979,-0.236979 -0.32813,-0.08203 -0.72917,-0.08203 -1.42187,0 -2.1875,0.929688 -0.75651,0.920573 -0.75651,2.652344 v 5.377604 h -1.6862 V -68.01302 h 1.6862 v 1.585937 q 0.52865,-0.929688 1.3763,-1.376302 0.84766,-0.455729 2.0599,-0.455729 0.17318,0 0.38281,0.02734 0.20964,0.01823 0.46485,0.0638 z"
         style="font-style:normal;font-variant:normal;font-weight:normal;font-stretch:normal;font-size:18.66666603px;font-family:'Standard Symbols L';-inkscape-font-specification:'Standard Symbols L, Normal';font-variant-ligatures:normal;font-variant-caps:normal;font-variant-numeric:normal;font-feature-settings:normal;text-align:start;writing-mode:lr-tb;text-anchor:start;fill:#292a88;fill-opacity:1"
         id="path4688"
         inkscape:connector-curvature="0" />
      <path
         d="m -169.36003,-63.328125 v 0.820313 h -7.71093 q 0.10937,1.73177 1.03906,2.643229 0.9388,0.902343 2.60677,0.902343 0.96615,0 1.86849,-0.236979 0.91146,-0.236979 1.80469,-0.710937 v 1.585937 q -0.90235,0.382813 -1.85026,0.583334 -0.94792,0.20052 -1.92318,0.20052 -2.44271,0 -3.8737,-1.421875 -1.42187,-1.421874 -1.42187,-3.846354 0,-2.50651 1.34895,-3.973958 1.35808,-1.476562 3.65495,-1.476562 2.0599,0 3.25391,1.330729 1.20312,1.321614 1.20312,3.60026 z m -1.67708,-0.492187 q -0.0182,-1.376302 -0.77474,-2.196615 -0.7474,-0.820312 -1.98698,-0.820312 -1.40364,0 -2.2513,0.792968 -0.83854,0.792969 -0.96615,2.233073 z"
         style="font-style:normal;font-variant:normal;font-weight:normal;font-stretch:normal;font-size:18.66666603px;font-family:'Standard Symbols L';-inkscape-font-specification:'Standard Symbols L, Normal';font-variant-ligatures:normal;font-variant-caps:normal;font-variant-numeric:normal;font-feature-settings:normal;text-align:start;writing-mode:lr-tb;text-anchor:start;fill:#292a88;fill-opacity:1"
         id="path4690"
         inkscape:connector-curvature="0" />
      <path
         d="m -164.98503,-59.335937 v 5.414062 h -1.68619 V -68.01302 h 1.68619 v 1.549479 q 0.52865,-0.911459 1.33073,-1.348959 0.8112,-0.446614 1.93229,-0.446614 1.85938,0 3.01693,1.476562 1.16667,1.476563 1.16667,3.882813 0,2.40625 -1.16667,3.882812 -1.15755,1.476562 -3.01693,1.476562 -1.12109,0 -1.93229,-0.4375 -0.80208,-0.446614 -1.33073,-1.358072 z m 5.70573,-3.563802 q 0,-1.850261 -0.76562,-2.898438 -0.75651,-1.057291 -2.08724,-1.057291 -1.33073,0 -2.09636,1.057291 -0.75651,1.048177 -0.75651,2.898438 0,1.85026 0.75651,2.907552 0.76563,1.048177 2.09636,1.048177 1.33073,0 2.08724,-1.048177 0.76562,-1.057292 0.76562,-2.907552 z"
         style="font-style:normal;font-variant:normal;font-weight:normal;font-stretch:normal;font-size:18.66666603px;font-family:'Standard Symbols L';-inkscape-font-specification:'Standard Symbols L, Normal';font-variant-ligatures:normal;font-variant-caps:normal;font-variant-numeric:normal;font-feature-settings:normal;text-align:start;writing-mode:lr-tb;text-anchor:start;fill:#292a88;fill-opacity:1"
         id="path4692"
         inkscape:connector-curvature="0" />
      <path
         d="m -150.80273,-66.837239 q -1.34896,0 -2.13282,1.057291 -0.78385,1.048177 -0.78385,2.880209 0,1.832031 0.77474,2.889322 0.78385,1.048177 2.14193,1.048177 1.33984,0 2.12369,-1.057291 0.78386,-1.057292 0.78386,-2.880208 0,-1.813802 -0.78386,-2.871094 -0.78385,-1.066406 -2.12369,-1.066406 z m 0,-1.421875 q 2.1875,0 3.43619,1.421875 1.2487,1.421875 1.2487,3.9375 0,2.50651 -1.2487,3.937499 -1.24869,1.421875 -3.43619,1.421875 -2.19662,0 -3.44532,-1.421875 -1.23958,-1.430989 -1.23958,-3.937499 0,-2.515625 1.23958,-3.9375 1.2487,-1.421875 3.44532,-1.421875 z"
         style="font-style:normal;font-variant:normal;font-weight:normal;font-stretch:normal;font-size:18.66666603px;font-family:'Standard Symbols L';-inkscape-font-specification:'Standard Symbols L, Normal';font-variant-ligatures:normal;font-variant-caps:normal;font-variant-numeric:normal;font-feature-settings:normal;text-align:start;writing-mode:lr-tb;text-anchor:start;fill:#292a88;fill-opacity:1"
         id="path4694"
         inkscape:connector-curvature="0" />
      <path
         d="m -136.83919,-67.712239 v 1.585937 q -0.71094,-0.364583 -1.47657,-0.546875 -0.76562,-0.182291 -1.58593,-0.182291 -1.2487,0 -1.87761,0.382812 -0.61979,0.382813 -0.61979,1.148438 0,0.583333 0.44661,0.920572 0.44662,0.328125 1.79558,0.628907 l 0.57422,0.127604 q 1.78645,0.382812 2.53385,1.084635 0.75651,0.692708 0.75651,1.941406 0,1.421875 -1.13021,2.251302 -1.12109,0.829427 -3.08984,0.829427 -0.82031,0 -1.71354,-0.164062 -0.88412,-0.154948 -1.86849,-0.473958 v -1.731771 q 0.92969,0.483073 1.83203,0.729166 0.90234,0.23698 1.78646,0.23698 1.18489,0 1.82291,-0.401042 0.63802,-0.410156 0.63802,-1.148437 0,-0.683594 -0.46484,-1.048178 -0.45573,-0.364583 -2.01432,-0.701822 l -0.58334,-0.136719 q -1.55859,-0.328125 -2.2513,-1.002604 -0.69271,-0.683594 -0.69271,-1.86849 0,-1.440104 1.02084,-2.223958 1.02083,-0.783854 2.89844,-0.783854 0.92968,0 1.74999,0.136719 0.82032,0.136718 1.51303,0.410156 z"
         style="font-style:normal;font-variant:normal;font-weight:normal;font-stretch:normal;font-size:18.66666603px;font-family:'Standard Symbols L';-inkscape-font-specification:'Standard Symbols L, Normal';font-variant-ligatures:normal;font-variant-caps:normal;font-variant-numeric:normal;font-feature-settings:normal;text-align:start;writing-mode:lr-tb;text-anchor:start;fill:#292a88;fill-opacity:1"
         id="path4696"
         inkscape:connector-curvature="0" />
      <path
         d="m -133.61263,-68.01302 h 1.67708 v 10.208333 h -1.67708 z m 0,-3.973959 h 1.67708 v 2.123698 h -1.67708 z"
         style="font-style:normal;font-variant:normal;font-weight:normal;font-stretch:normal;font-size:18.66666603px;font-family:'Standard Symbols L';-inkscape-font-specification:'Standard Symbols L, Normal';font-variant-ligatures:normal;font-variant-caps:normal;font-variant-numeric:normal;font-feature-settings:normal;text-align:start;writing-mode:lr-tb;text-anchor:start;fill:#292a88;fill-opacity:1"
         id="path4698"
         inkscape:connector-curvature="0" />
      <path
         d="m -126.7767,-70.911458 v 2.898438 h 3.45443 v 1.303385 h -3.45443 v 5.541666 q 0,1.248698 0.33724,1.604167 0.34636,0.355469 1.39454,0.355469 h 1.72265 v 1.403646 h -1.72265 q -1.94141,0 -2.67969,-0.720053 -0.73828,-0.729166 -0.73828,-2.643229 v -5.541666 h -1.23047 v -1.303385 h 1.23047 v -2.898438 z"
         style="font-style:normal;font-variant:normal;font-weight:normal;font-stretch:normal;font-size:18.66666603px;font-family:'Standard Symbols L';-inkscape-font-specification:'Standard Symbols L, Normal';font-variant-ligatures:normal;font-variant-caps:normal;font-variant-numeric:normal;font-feature-settings:normal;text-align:start;writing-mode:lr-tb;text-anchor:start;fill:#292a88;fill-opacity:1"
         id="path4700"
         inkscape:connector-curvature="0" />
      <path
         d="m -117.1517,-66.837239 q -1.34895,0 -2.13281,1.057291 -0.78385,1.048177 -0.78385,2.880209 0,1.832031 0.77474,2.889322 0.78385,1.048177 2.14192,1.048177 1.33985,0 2.1237,-1.057291 0.78386,-1.057292 0.78386,-2.880208 0,-1.813802 -0.78386,-2.871094 -0.78385,-1.066406 -2.1237,-1.066406 z m 0,-1.421875 q 2.1875,0 3.4362,1.421875 1.2487,1.421875 1.2487,3.9375 0,2.50651 -1.2487,3.937499 -1.2487,1.421875 -3.4362,1.421875 -2.19661,0 -3.44531,-1.421875 -1.23958,-1.430989 -1.23958,-3.937499 0,-2.515625 1.23958,-3.9375 1.2487,-1.421875 3.44531,-1.421875 z"
         style="font-style:normal;font-variant:normal;font-weight:normal;font-stretch:normal;font-size:18.66666603px;font-family:'Standard Symbols L';-inkscape-font-specification:'Standard Symbols L, Normal';font-variant-ligatures:normal;font-variant-caps:normal;font-variant-numeric:normal;font-feature-settings:normal;text-align:start;writing-mode:lr-tb;text-anchor:start;fill:#292a88;fill-opacity:1"
         id="path4702"
         inkscape:connector-curvature="0" />
      <path
         d="m -103.7806,-66.445312 q -0.28255,-0.164063 -0.61979,-0.236979 -0.32813,-0.08203 -0.72917,-0.08203 -1.42187,0 -2.1875,0.929688 -0.75651,0.920573 -0.75651,2.652344 v 5.377604 h -1.6862 V -68.01302 h 1.6862 v 1.585937 q 0.52865,-0.929688 1.3763,-1.376302 0.84766,-0.455729 2.0599,-0.455729 0.17318,0 0.38281,0.02734 0.20964,0.01823 0.46485,0.0638 z"
         style="font-style:normal;font-variant:normal;font-weight:normal;font-stretch:normal;font-size:18.66666603px;font-family:'Standard Symbols L';-inkscape-font-specification:'Standard Symbols L, Normal';font-variant-ligatures:normal;font-variant-caps:normal;font-variant-numeric:normal;font-feature-settings:normal;text-align:start;writing-mode:lr-tb;text-anchor:start;fill:#292a88;fill-opacity:1"
         id="path4704"
         inkscape:connector-curvature="0" />
      <path
         d="m -102.00326,-68.01302 h 1.67708 v 10.208333 h -1.67708 z m 0,-3.973959 h 1.67708 v 2.123698 h -1.67708 z"
         style="font-style:normal;font-variant:normal;font-weight:normal;font-stretch:normal;font-size:18.66666603px;font-family:'Standard Symbols L';-inkscape-font-specification:'Standard Symbols L, Normal';font-variant-ligatures:normal;font-variant-caps:normal;font-variant-numeric:normal;font-feature-settings:normal;text-align:start;writing-mode:lr-tb;text-anchor:start;fill:#292a88;fill-opacity:1"
         id="path4706"
         inkscape:connector-curvature="0" />
      <path
         d="m -88.094404,-63.328125 v 0.820313 h -7.710937 q 0.109375,1.73177 1.039062,2.643229 0.938802,0.902343 2.606771,0.902343 0.966146,0 1.86849,-0.236979 0.911458,-0.236979 1.804687,-0.710937 v 1.585937 q -0.902344,0.382813 -1.85026,0.583334 -0.947917,0.20052 -1.923177,0.20052 -2.442709,0 -3.873698,-1.421875 -1.421875,-1.421874 -1.421875,-3.846354 0,-2.50651 1.348958,-3.973958 1.358073,-1.476562 3.654948,-1.476562 2.059896,0 3.253906,1.330729 1.203125,1.321614 1.203125,3.60026 z m -1.677083,-0.492187 q -0.01823,-1.376302 -0.77474,-2.196615 -0.747396,-0.820312 -1.986979,-0.820312 -1.403646,0 -2.251302,0.792968 -0.838542,0.792969 -0.966146,2.233073 z"
         style="font-style:normal;font-variant:normal;font-weight:normal;font-stretch:normal;font-size:18.66666603px;font-family:'Standard Symbols L';-inkscape-font-specification:'Standard Symbols L, Normal';font-variant-ligatures:normal;font-variant-caps:normal;font-variant-numeric:normal;font-feature-settings:normal;text-align:start;writing-mode:lr-tb;text-anchor:start;fill:#292a88;fill-opacity:1"
         id="path4708"
         inkscape:connector-curvature="0" />
      <path
         d="m -78.833987,-67.712239 v 1.585937 q -0.710938,-0.364583 -1.476563,-0.546875 -0.765625,-0.182291 -1.585937,-0.182291 -1.248698,0 -1.877604,0.382812 -0.619792,0.382813 -0.619792,1.148438 0,0.583333 0.446615,0.920572 0.446614,0.328125 1.795573,0.628907 l 0.574218,0.127604 q 1.786459,0.382812 2.533854,1.084635 0.756511,0.692708 0.756511,1.941406 0,1.421875 -1.130209,2.251302 -1.121093,0.829427 -3.089843,0.829427 -0.820313,0 -1.713542,-0.164062 -0.884114,-0.154948 -1.868489,-0.473958 v -1.731771 q 0.929687,0.483073 1.832031,0.729166 0.902344,0.23698 1.786458,0.23698 1.184896,0 1.822917,-0.401042 0.638021,-0.410156 0.638021,-1.148437 0,-0.683594 -0.464844,-1.048178 -0.455729,-0.364583 -2.014323,-0.701822 l -0.583333,-0.136719 q -1.558594,-0.328125 -2.251302,-1.002604 -0.692709,-0.683594 -0.692709,-1.86849 0,-1.440104 1.020834,-2.223958 1.020833,-0.783854 2.898437,-0.783854 0.929688,0 1.75,0.136719 0.820312,0.136718 1.513021,0.410156 z"
         style="font-style:normal;font-variant:normal;font-weight:normal;font-stretch:normal;font-size:18.66666603px;font-family:'Standard Symbols L';-inkscape-font-specification:'Standard Symbols L, Normal';font-variant-ligatures:normal;font-variant-caps:normal;font-variant-numeric:normal;font-feature-settings:normal;text-align:start;writing-mode:lr-tb;text-anchor:start;fill:#292a88;fill-opacity:1"
         id="path4710"
         inkscape:connector-curvature="0" />
    </g>
    <flowRoot
       xml:space="preserve"
       id="flowRoot4721"
       style="fill:black;fill-opacity:1;stroke:none;font-family:sans-serif;font-style:normal;font-weight:normal;font-size:40px;line-height:1.25;letter-spacing:0px;word-spacing:0px"><flowRegion
         id="flowRegion4723"><rect
           id="rect4725"
           width="186.87822"
           height="86.368042"
           x="-9.0913725"
           y="-132.53813" /></flowRegion><flowPara
         id="flowPara4727"></flowPara></flowRoot>    <flowRoot
       xml:space="preserve"
       id="flowRoot4739"
       style="fill:black;fill-opacity:1;stroke:none;font-family:sans-serif;font-style:normal;font-weight:normal;font-size:16px;line-height:1.25;letter-spacing:0px;word-spacing:0px;"><flowRegion
         id="flowRegion4741"
         style="font-size:16px;"><rect
           id="rect4743"
           width="155.56349"
           height="58.083771"
           x="-64.649765"
           y="-165.36809"
           style="font-size:16px;" /></flowRegion><flowPara
         id="flowPara4745"></flowPara></flowRoot>    <g
       aria-label="Terminus"
       transform="matrix(0.26458333,0,0,0.26458333,-2.7745074,320.16652)"
       style="font-style:normal;font-weight:normal;font-size:40px;line-height:1.25;font-family:sans-serif;letter-spacing:0px;word-spacing:0px;fill:#292a88;fill-opacity:1;stroke:none"
       id="flowRoot4747">
      <path
         d="m 29.876953,-153.25781 h 10.75 v 2.27344 h -3.867187 v 9.39062 h -3.007813 v -9.39062 h -3.875 z"
         style="font-style:normal;font-variant:normal;font-weight:bold;font-stretch:normal;font-size:16px;font-family:Terminus;-inkscape-font-specification:'Terminus Bold';fill:#292a88;fill-opacity:1"
         id="path4755" />
      <path
         d="m 48.658203,-145.99219 v 0.79688 h -6.539062 q 0.101562,0.98437 0.710937,1.47656 0.609375,0.49219 1.703125,0.49219 0.882813,0 1.804688,-0.25781 0.929687,-0.26563 1.90625,-0.79688 v 2.15625 q -0.992188,0.375 -1.984375,0.5625 -0.992188,0.19531 -1.984375,0.19531 -2.375,0 -3.695313,-1.20312 -1.3125,-1.21094 -1.3125,-3.39063 0,-2.14062 1.289063,-3.36718 1.296875,-1.22657 3.5625,-1.22657 2.0625,0 3.296875,1.24219 1.242187,1.24219 1.242187,3.32031 z m -2.875,-0.92968 q 0,-0.79688 -0.46875,-1.28125 -0.460937,-0.49219 -1.210937,-0.49219 -0.8125,0 -1.320313,0.46094 -0.507812,0.45312 -0.632812,1.3125 z"
         style="font-style:normal;font-variant:normal;font-weight:bold;font-stretch:normal;font-size:16px;font-family:Terminus;-inkscape-font-specification:'Terminus Bold';fill:#292a88;fill-opacity:1"
         id="path4757" />
      <path
         d="m 57.267578,-147.96094 q -0.367187,-0.17187 -0.734375,-0.25 -0.359375,-0.0859 -0.726562,-0.0859 -1.078125,0 -1.664063,0.69531 -0.578125,0.6875 -0.578125,1.97656 v 4.03125 h -2.796875 v -8.75 h 2.796875 v 1.4375 q 0.539063,-0.85937 1.234375,-1.25 0.703125,-0.39844 1.679688,-0.39844 0.140625,0 0.304687,0.0156 0.164063,0.008 0.476563,0.0469 z"
         style="font-style:normal;font-variant:normal;font-weight:bold;font-stretch:normal;font-size:16px;font-family:Terminus;-inkscape-font-specification:'Terminus Bold';fill:#292a88;fill-opacity:1"
         id="path4759" />
      <path
         d="m 66.783203,-148.89062 q 0.53125,-0.8125 1.257813,-1.23438 0.734375,-0.42969 1.609375,-0.42969 1.507812,0 2.296875,0.92969 0.789062,0.92969 0.789062,2.70313 v 5.32812 h -2.8125 v -4.5625 q 0.0078,-0.10156 0.0078,-0.21094 0.0078,-0.10937 0.0078,-0.3125 0,-0.92968 -0.273437,-1.34375 -0.273438,-0.42187 -0.882813,-0.42187 -0.796875,0 -1.234375,0.65625 -0.429687,0.65625 -0.445312,1.89844 v 4.29687 h -2.8125 v -4.5625 q 0,-1.45312 -0.25,-1.86719 -0.25,-0.42187 -0.890625,-0.42187 -0.804688,0 -1.242188,0.66406 -0.4375,0.65625 -0.4375,1.88281 v 4.30469 h -2.8125 v -8.75 h 2.8125 v 1.28125 q 0.515625,-0.74219 1.179688,-1.11719 0.671875,-0.375 1.476562,-0.375 0.90625,0 1.601563,0.4375 0.695312,0.4375 1.054687,1.22657 z"
         style="font-style:normal;font-variant:normal;font-weight:bold;font-stretch:normal;font-size:16px;font-family:Terminus;-inkscape-font-specification:'Terminus Bold';fill:#292a88;fill-opacity:1"
         id="path4761" />
      <path
         d="m 75.361328,-150.34375 h 2.796875 v 8.75 h -2.796875 z m 0,-3.40625 h 2.796875 v 2.28125 h -2.796875 z"
         style="font-style:normal;font-variant:normal;font-weight:bold;font-stretch:normal;font-size:16px;font-family:Terminus;-inkscape-font-specification:'Terminus Bold';fill:#292a88;fill-opacity:1"
         id="path4763" />
      <path
         d="m 89.658203,-146.92187 v 5.32812 h -2.8125 v -0.86719 -3.21093 q 0,-1.13282 -0.05469,-1.5625 -0.04687,-0.42969 -0.171875,-0.63282 -0.164063,-0.27343 -0.445313,-0.42187 -0.28125,-0.15625 -0.640625,-0.15625 -0.875,0 -1.375,0.67969 -0.5,0.67187 -0.5,1.86718 v 4.30469 h -2.796875 v -8.75 h 2.796875 v 1.28125 q 0.632813,-0.76562 1.34375,-1.125 0.710938,-0.36719 1.570313,-0.36719 1.515625,0 2.296875,0.92969 0.789062,0.92969 0.789062,2.70313 z"
         style="font-style:normal;font-variant:normal;font-weight:bold;font-stretch:normal;font-size:16px;font-family:Terminus;-inkscape-font-specification:'Terminus Bold';fill:#292a88;fill-opacity:1"
         id="path4765" />
      <path
         d="m 92.173828,-145 v -5.34375 h 2.8125 v 0.875 q 0,0.71094 -0.0078,1.78906 -0.0078,1.07032 -0.0078,1.42969 0,1.05469 0.05469,1.52344 0.05469,0.46094 0.1875,0.67187 0.171875,0.27344 0.445312,0.42188 0.28125,0.14844 0.640625,0.14844 0.875,0 1.375,-0.67188 0.5,-0.67187 0.5,-1.86719 v -4.32031 h 2.796872 v 8.75 h -2.796872 v -1.26562 q -0.632812,0.76562 -1.34375,1.13281 -0.703125,0.35937 -1.554687,0.35937 -1.515625,0 -2.3125,-0.92968 -0.789063,-0.92969 -0.789063,-2.70313 z"
         style="font-style:normal;font-variant:normal;font-weight:bold;font-stretch:normal;font-size:16px;font-family:Terminus;-inkscape-font-specification:'Terminus Bold';fill:#292a88;fill-opacity:1"
         id="path4767" />
      <path
         d="m 110.50977,-150.07031 v 2.125 q -0.89844,-0.375 -1.73438,-0.5625 -0.83594,-0.1875 -1.57812,-0.1875 -0.79688,0 -1.1875,0.20312 -0.38282,0.19532 -0.38282,0.60938 0,0.33594 0.28907,0.51562 0.29687,0.17969 1.05468,0.26563 l 0.49219,0.0703 q 2.14844,0.27344 2.89063,0.89844 0.74218,0.625 0.74218,1.96094 0,1.39843 -1.03125,2.10156 -1.03125,0.70312 -3.07812,0.70312 -0.86719,0 -1.79688,-0.14062 -0.92187,-0.13281 -1.89843,-0.40625 v -2.125 q 0.83593,0.40625 1.71093,0.60937 0.88282,0.20313 1.78907,0.20313 0.82031,0 1.23437,-0.22656 0.41406,-0.22657 0.41406,-0.67188 0,-0.375 -0.28906,-0.55469 -0.28125,-0.1875 -1.13281,-0.28906 l -0.49219,-0.0625 q -1.86719,-0.23437 -2.61719,-0.86719 -0.75,-0.63281 -0.75,-1.92187 0,-1.39063 0.95313,-2.0625 0.95312,-0.67188 2.92187,-0.67188 0.77344,0 1.625,0.11719 0.85157,0.11719 1.85157,0.36719 z"
         style="font-style:normal;font-variant:normal;font-weight:bold;font-stretch:normal;font-size:16px;font-family:Terminus;-inkscape-font-specification:'Terminus Bold';fill:#292a88;fill-opacity:1"
         id="path4769" />
    </g>
    <g
       aria-label="tritech-cyber"
       transform="matrix(0.26458333,0,0,0.26458333,-0.80180858,287.43335)"
       style="font-style:normal;font-weight:normal;font-size:40px;line-height:1.25;font-family:sans-serif;letter-spacing:0px;word-spacing:0px;fill:#000000;fill-opacity:1;stroke:none"
       id="flowRoot4772">
      <path
         d="m 6.4492186,-64.798177 v 2.898438 h 3.454427 v 1.303385 h -3.454427 v 5.541667 q 0,1.248697 0.3372396,1.604166 0.3463542,0.355469 1.3945312,0.355469 h 1.7226562 v 1.403646 H 8.1809894 q -1.9414062,0 -2.6796874,-0.720052 -0.7382812,-0.729167 -0.7382812,-2.643229 v -5.541667 H 3.5325521 v -1.303385 h 1.2304687 v -2.898438 z"
         style="font-style:normal;font-variant:normal;font-weight:normal;font-stretch:normal;font-size:18.66666603px;font-family:Terminus;-inkscape-font-specification:Terminus;fill:#ff0000"
         id="path4780" />
      <path
         d="m 18.033853,-60.332031 q -0.282552,-0.164062 -0.619791,-0.236979 -0.328125,-0.08203 -0.729167,-0.08203 -1.421875,0 -2.1875,0.929687 -0.75651,0.920573 -0.75651,2.652344 v 5.377604 h -1.686198 v -10.208333 h 1.686198 v 1.585937 q 0.528646,-0.929687 1.376302,-1.376302 0.847656,-0.455729 2.059896,-0.455729 0.173177,0 0.382812,0.02734 0.209636,0.01823 0.464844,0.0638 z"
         style="font-style:normal;font-variant:normal;font-weight:normal;font-stretch:normal;font-size:18.66666603px;font-family:Terminus;-inkscape-font-specification:Terminus;fill:#ff0000"
         id="path4782" />
      <path
         d="m 19.811197,-61.899739 h 1.677083 v 10.208333 h -1.677083 z m 0,-3.973958 H 21.48828 V -63.75 h -1.677083 z"
         style="font-style:normal;font-variant:normal;font-weight:normal;font-stretch:normal;font-size:18.66666603px;font-family:Terminus;-inkscape-font-specification:Terminus;fill:#ff0000"
         id="path4784" />
      <path
         d="m 26.647135,-64.798177 v 2.898438 h 3.454427 v 1.303385 h -3.454427 v 5.541667 q 0,1.248697 0.337239,1.604166 0.346354,0.355469 1.394531,0.355469 h 1.722657 v 1.403646 h -1.722657 q -1.941406,0 -2.679687,-0.720052 -0.738281,-0.729167 -0.738281,-2.643229 v -5.541667 h -1.230469 v -1.303385 h 1.230469 v -2.898438 z"
         style="font-style:normal;font-variant:normal;font-weight:normal;font-stretch:normal;font-size:18.66666603px;font-family:Terminus;-inkscape-font-specification:Terminus;fill:#ff0000"
         id="path4786" />
      <path
         d="m 41.048174,-57.214844 v 0.820313 h -7.710937 q 0.109375,1.731771 1.039062,2.643229 0.938802,0.902344 2.606771,0.902344 0.966146,0 1.86849,-0.236979 0.911458,-0.23698 1.804687,-0.710938 v 1.585938 q -0.902344,0.382812 -1.85026,0.583333 -0.947917,0.200521 -1.923177,0.200521 -2.442709,0 -3.873698,-1.421875 -1.421875,-1.421875 -1.421875,-3.846354 0,-2.506511 1.348958,-3.973959 1.358073,-1.476562 3.654948,-1.476562 2.059896,0 3.253906,1.330729 1.203125,1.321615 1.203125,3.60026 z m -1.677083,-0.492187 q -0.01823,-1.376302 -0.77474,-2.196615 -0.747395,-0.820312 -1.986979,-0.820312 -1.403646,0 -2.251302,0.792969 -0.838541,0.792968 -0.966146,2.233073 z"
         style="font-style:normal;font-variant:normal;font-weight:normal;font-stretch:normal;font-size:18.66666603px;font-family:Terminus;-inkscape-font-specification:Terminus;fill:#ff0000"
         id="path4788" />
      <path
         d="m 51.147133,-61.507812 v 1.567708 q -0.710938,-0.391927 -1.43099,-0.583333 -0.710937,-0.200521 -1.440104,-0.200521 -1.63151,0 -2.533854,1.039062 -0.902344,1.029948 -0.902344,2.898438 0,1.868489 0.902344,2.907552 0.902344,1.029948 2.533854,1.029948 0.729167,0 1.440104,-0.191407 0.720052,-0.20052 1.43099,-0.592447 v 1.549479 q -0.701823,0.328125 -1.458334,0.492187 -0.747396,0.164063 -1.595052,0.164063 -2.305989,0 -3.664062,-1.449219 -1.358073,-1.449219 -1.358073,-3.910156 0,-2.497396 1.367187,-3.928385 1.376302,-1.43099 3.764323,-1.43099 0.77474,0 1.513021,0.164063 0.738281,0.154947 1.43099,0.473958 z"
         style="font-style:normal;font-variant:normal;font-weight:normal;font-stretch:normal;font-size:18.66666603px;font-family:Terminus;-inkscape-font-specification:Terminus;fill:#ff0000"
         id="path4790" />
      <path
         d="m 62.567705,-57.852864 v 6.161458 h -1.677083 v -6.106771 q 0,-1.449219 -0.565104,-2.169271 -0.565104,-0.720052 -1.695312,-0.720052 -1.358073,0 -2.141927,0.865886 -0.783855,0.865885 -0.783855,2.360677 v 5.769531 h -1.686197 v -14.182291 h 1.686197 v 5.559895 q 0.601563,-0.920573 1.412761,-1.376302 0.820312,-0.455729 1.886718,-0.455729 1.759115,0 2.661459,1.09375 0.902343,1.084635 0.902343,3.199219 z"
         style="font-style:normal;font-variant:normal;font-weight:normal;font-stretch:normal;font-size:18.66666603px;font-family:Terminus;-inkscape-font-specification:Terminus;fill:#ff0000"
         id="path4792" />
      <path
         d="m 65.083333,-57.552083 h 4.912761 v 1.494791 h -4.912761 z"
         style="font-style:normal;font-variant:normal;font-weight:normal;font-stretch:normal;font-size:18.66666603px;font-family:Terminus;-inkscape-font-specification:Terminus;fill:#ff0000"
         id="path4794" />
      <path
         d="m 80.022133,-61.507812 v 1.567708 q -0.710938,-0.391927 -1.43099,-0.583333 -0.710937,-0.200521 -1.440104,-0.200521 -1.63151,0 -2.533854,1.039062 -0.902344,1.029948 -0.902344,2.898438 0,1.868489 0.902344,2.907552 0.902344,1.029948 2.533854,1.029948 0.729167,0 1.440104,-0.191407 0.720052,-0.20052 1.43099,-0.592447 v 1.549479 q -0.701823,0.328125 -1.458334,0.492187 -0.747396,0.164063 -1.595052,0.164063 -2.305989,0 -3.664062,-1.449219 -1.358073,-1.449219 -1.358073,-3.910156 0,-2.497396 1.367187,-3.928385 1.376302,-1.43099 3.764323,-1.43099 0.77474,0 1.513021,0.164063 0.738281,0.154947 1.43099,0.473958 z"
         style="font-style:normal;font-variant:normal;font-weight:normal;font-stretch:normal;font-size:18.66666603px;font-family:Terminus;-inkscape-font-specification:Terminus;fill:#ff0000"
         id="path4796" />
      <path
         d="m 87.204424,-50.74349 q -0.710937,1.822917 -1.385416,2.378907 -0.674479,0.555989 -1.804688,0.555989 h -1.339843 v -1.403646 h 0.984375 q 0.692708,0 1.07552,-0.328125 0.382813,-0.328125 0.847657,-1.549479 l 0.300781,-0.765625 -4.128906,-10.04427 h 1.777343 l 3.190104,7.984374 3.190104,-7.984374 h 1.777344 z"
         style="font-style:normal;font-variant:normal;font-weight:normal;font-stretch:normal;font-size:18.66666603px;font-family:Terminus;-inkscape-font-specification:Terminus;fill:#ff0000"
         id="path4798" />
      <path
         d="m 101.33203,-56.786458 q 0,-1.850261 -0.76563,-2.898438 -0.756507,-1.057291 -2.087236,-1.057291 -1.330729,0 -2.096354,1.057291 -0.756511,1.048177 -0.756511,2.898438 0,1.85026 0.756511,2.907552 0.765625,1.048177 2.096354,1.048177 1.330729,0 2.087236,-1.048177 0.76563,-1.057292 0.76563,-2.907552 z m -5.705731,-3.563802 q 0.528646,-0.911458 1.33073,-1.348958 0.811197,-0.446615 1.932291,-0.446615 1.85938,0 3.01693,1.476562 1.16666,1.476563 1.16666,3.882813 0,2.40625 -1.16666,3.882812 -1.15755,1.476563 -3.01693,1.476563 -1.121094,0 -1.932291,-0.4375 -0.802084,-0.446615 -1.33073,-1.358073 v 1.53125 h -1.686197 v -14.182291 h 1.686197 z"
         style="font-style:normal;font-variant:normal;font-weight:normal;font-stretch:normal;font-size:18.66666603px;font-family:Terminus;-inkscape-font-specification:Terminus;fill:#ff0000"
         id="path4800" />
      <path
         d="m 114.58464,-57.214844 v 0.820313 h -7.71094 q 0.10937,1.731771 1.03906,2.643229 0.9388,0.902344 2.60677,0.902344 0.96615,0 1.86849,-0.236979 0.91146,-0.23698 1.80469,-0.710938 v 1.585938 q -0.90235,0.382812 -1.85026,0.583333 -0.94792,0.200521 -1.92318,0.200521 -2.44271,0 -3.8737,-1.421875 -1.42187,-1.421875 -1.42187,-3.846354 0,-2.506511 1.34896,-3.973959 1.35807,-1.476562 3.65494,-1.476562 2.0599,0 3.25391,1.330729 1.20313,1.321615 1.20313,3.60026 z m -1.67709,-0.492187 q -0.0182,-1.376302 -0.77474,-2.196615 -0.74739,-0.820312 -1.98698,-0.820312 -1.40364,0 -2.2513,0.792969 -0.83854,0.792968 -0.96614,2.233073 z"
         style="font-style:normal;font-variant:normal;font-weight:normal;font-stretch:normal;font-size:18.66666603px;font-family:Terminus;-inkscape-font-specification:Terminus;fill:#ff0000"
         id="path4802" />
      <path
         d="m 123.2526,-60.332031 q -0.28255,-0.164062 -0.61979,-0.236979 -0.32812,-0.08203 -0.72916,-0.08203 -1.42188,0 -2.1875,0.929687 -0.75651,0.920573 -0.75651,2.652344 v 5.377604 h -1.6862 v -10.208333 h 1.6862 v 1.585937 q 0.52864,-0.929687 1.3763,-1.376302 0.84765,-0.455729 2.05989,-0.455729 0.17318,0 0.38282,0.02734 0.20963,0.01823 0.46484,0.0638 z"
         style="font-style:normal;font-variant:normal;font-weight:normal;font-stretch:normal;font-size:18.66666603px;font-family:Terminus;-inkscape-font-specification:Terminus;fill:#ff0000"
         id="path4804" />
    </g>
  </g>
</svg>
