<?xml version="1.0" encoding="UTF-8" standalone="no"?>
<!-- Created with Inkscape (http://www.inkscape.org/) -->

<svg
   xmlns:dc="http://purl.org/dc/elements/1.1/"
   xmlns:cc="http://creativecommons.org/ns#"
   xmlns:rdf="http://www.w3.org/1999/02/22-rdf-syntax-ns#"
   xmlns:svg="http://www.w3.org/2000/svg"
   xmlns="http://www.w3.org/2000/svg"
   xmlns:sodipodi="http://sodipodi.sourceforge.net/DTD/sodipodi-0.dtd"
   xmlns:inkscape="http://www.inkscape.org/namespaces/inkscape"
   width="120"
   height="120"
   viewBox="0 0 31.749999 31.750001"
   version="1.1"
   id="svg8"
   inkscape:version="0.92.1 r15371"
   sodipodi:docname="tritech-cyber.svg">
  <defs
     id="defs2" />
  <sodipodi:namedview
     id="base"
     pagecolor="#ffffff"
     bordercolor="#666666"
     borderopacity="1.0"
     inkscape:pageopacity="0.0"
     inkscape:pageshadow="2"
     inkscape:zoom="1.979899"
     inkscape:cx="160.71429"
     inkscape:cy="161.38363"
     inkscape:document-units="mm"
     inkscape:current-layer="layer1"
     showgrid="false"
     inkscape:window-width="1920"
     inkscape:window-height="986"
     inkscape:window-x="0"
     inkscape:window-y="30"
     inkscape:window-maximized="1"
     inkscape:snap-text-baseline="true"
     units="px" />
  <metadata
     id="metadata5">
    <rdf:RDF>
      <cc:Work
         rdf:about="">
        <dc:format>image/svg+xml</dc:format>
        <dc:type
           rdf:resource="http://purl.org/dc/dcmitype/StillImage" />
        <dc:title></dc:title>
      </cc:Work>
    </rdf:RDF>
  </metadata>
  <g
     inkscape:label="Layer 1"
     inkscape:groupmode="layer"
     id="layer1"
     transform="translate(0,-265.24998)">
    <path
       style="opacity:1;fill:none;fill-opacity:1;stroke:#c2dcff;stroke-width:0.5;stroke-miterlimit:4;stroke-dasharray:none;stroke-opacity:1"
       d="m 11.343289,294.15412 c -0.27516,-0.0497 -1.4527806,-0.50381 -2.11589,-0.81586 -3.4784048,-1.63688 -6.2261128,-4.7425 -7.3010988,-8.25214 -0.372637,-1.21659 -0.515531,-2.23939 -0.516871,-3.69963 -0.0011,-1.19846 0.05353,-1.73268 0.283592,-2.77305 1.071166,-4.84406 5.1283478,-8.8478 10.2956488,-10.16005 2.953011,-0.74992 6.330955,-0.59796 9.112877,0.40994 3.3879,1.22746 6.113701,3.52979 7.744266,6.54117 0.745067,1.37601 1.195923,2.75555 1.423343,4.35519 0.08929,0.62807 0.08869,2.59483 -0.0011,3.25359 -0.283311,2.0809 -1.025722,3.97744 -2.215237,5.65896 -1.717353,2.42769 -4.046707,4.19816 -6.883572,5.23198 -0.875289,0.31898 -1.188642,0.33773 -1.459057,0.0873 l -0.183339,-0.16978 -0.03431,-2.37368 c -0.03673,-2.5406 -0.0509,-2.67361 -0.351493,-3.29906 -0.07443,-0.15487 -0.239527,-0.40306 -0.366877,-0.55152 l -0.231543,-0.26993 0.463797,-0.0602 c 1.482652,-0.19229 2.637646,-0.56882 3.634213,-1.18478 1.211936,-0.74906 1.958695,-1.91156 2.325643,-3.62035 0.120753,-0.56231 0.172885,-2.14085 0.08741,-2.64677 -0.145697,-0.86254 -0.606238,-1.81895 -1.183485,-2.4578 l -0.227418,-0.25169 0.139221,-0.44426 c 0.247173,-0.78875 0.18128,-1.89482 -0.166403,-2.79318 -0.110333,-0.28507 -0.145885,-0.32636 -0.315983,-0.367 -0.52628,-0.12571 -2.019842,0.38149 -3.314748,1.12567 -0.322573,0.18538 -0.495233,0.25403 -0.597429,0.23755 -0.07906,-0.0127 -0.402125,-0.0736 -0.717932,-0.13532 -1.806449,-0.35278 -3.784644,-0.35278 -5.591094,0 -0.315807,0.0617 -0.640396,0.12277 -0.721309,0.13577 -0.106048,0.017 -0.259273,-0.043 -0.548924,-0.215 -1.154769,-0.68586 -2.789773,-1.24039 -3.390758,-1.15002 -0.182509,0.0274 -0.195586,0.0455 -0.330753,0.45609 -0.219196,0.66588 -0.274719,1.00629 -0.270378,1.65769 0.0032,0.48367 0.0322,0.69138 0.14593,1.04614 l 0.141909,0.44264 -0.217999,0.23956 c -0.572008,0.62857 -1.046689,1.61351 -1.191923,2.47316 -0.0856,0.50664 -0.03326,2.08551 0.08772,2.64622 0.290144,1.34479 0.852934,2.41457 1.637494,3.11264 0.589703,0.5247 1.5406944,1.03394 2.470718,1.32304 0.404209,0.12565 1.485347,0.33808 1.994627,0.39191 l 0.323914,0.0342 -0.220553,0.25854 c -0.286515,0.33586 -0.49355,0.74682 -0.603488,1.19791 -0.08606,0.35312 -0.09424,0.3643 -0.324162,0.4432 -0.507039,0.174 -0.772149,0.21255 -1.481827,0.21548 -0.7270356,0.003 -0.7410416,8e-4 -1.119529,-0.17517 -0.490145,-0.22789 -0.914014,-0.60687 -1.302032,-1.16413 -0.562038,-0.80718 -1.41587,-1.37585 -2.17152,-1.44629 -0.4347458,-0.0405 -0.7588638,0.0462 -0.7588638,0.20307 0,0.1195 0.455035,0.54631 0.8559568,0.80288 0.136627,0.0874 0.383521,0.32358 0.548653,0.52477 0.269315,0.32813 0.405031,0.55963 0.902061,1.53874 0.272479,0.53677 0.957238,1.03091 1.714366,1.23713 0.171319,0.0467 0.6682854,0.11133 1.104371,0.1437 0.647791,0.0481 0.893925,0.0451 1.345065,-0.0166 l 0.552184,-0.0755 0.01396,0.92073 c 0.02806,1.85102 0.01561,1.95021 -0.266258,2.12133 -0.149049,0.0905 -0.452237,0.13723 -0.653847,0.10079 z"
       id="path33"
       inkscape:connector-curvature="0" />
    <flowRoot
       xml:space="preserve"
       id="flowRoot10"
       style="font-style:normal;font-weight:normal;font-size:40px;line-height:1.25;font-family:sans-serif;letter-spacing:0px;word-spacing:0px;fill:#000000;fill-opacity:1;stroke:none"
       transform="scale(0.26458333)"><flowRegion
         id="flowRegion12"><rect
           id="rect14"
           width="380"
           height="195.71428"
           x="130"
           y="545.37683" /></flowRegion><flowPara
         id="flowPara16"></flowPara></flowRoot>    <text
       xml:space="preserve"
       style="font-style:normal;font-weight:normal;font-size:10.58333302px;line-height:1.25;font-family:sans-serif;letter-spacing:0px;word-spacing:0px;fill:#000000;fill-opacity:1;stroke:none;stroke-width:0.26458332"
       x="35.151787"
       y="77.395828"
       id="text20"><tspan
         sodipodi:role="line"
         id="tspan18"
         x="35.151787"
         y="86.759598"
         style="stroke-width:0.26458332" /></text>
    <flowRoot
       xml:space="preserve"
       id="flowRoot35"
       style="font-style:normal;font-weight:normal;font-size:40px;line-height:1.25;font-family:sans-serif;letter-spacing:0px;word-spacing:0px;fill:#000000;fill-opacity:1;stroke:none"
       transform="scale(0.26458333)"><flowRegion
         id="flowRegion37"><rect
           id="rect39"
           width="377.14285"
           height="64.285713"
           x="-41.42857"
           y="418.23398" /></flowRegion><flowPara
         id="flowPara41"></flowPara></flowRoot>    <flowRoot
       xml:space="preserve"
       id="flowRoot43"
       style="font-style:normal;font-weight:normal;font-size:40px;line-height:1.25;font-family:sans-serif;letter-spacing:0px;word-spacing:0px;fill:#000000;fill-opacity:1;stroke:none"
       transform="scale(0.26458333)"><flowRegion
         id="flowRegion45"><rect
           id="rect47"
           width="448.57144"
           height="131.42857"
           x="-98.571426"
           y="228.23396" /></flowRegion><flowPara
         id="flowPara49"></flowPara></flowRoot>    <flowRoot
       xml:space="preserve"
       id="flowRoot4721"
       style="fill:black;fill-opacity:1;stroke:none;font-family:sans-serif;font-style:normal;font-weight:normal;font-size:40px;line-height:1.25;letter-spacing:0px;word-spacing:0px"><flowRegion
         id="flowRegion4723"><rect
           id="rect4725"
           width="186.87822"
           height="86.368042"
           x="-9.0913725"
           y="-132.53813" /></flowRegion><flowPara
         id="flowPara4727"></flowPara></flowRoot>    <flowRoot
       xml:space="preserve"
       id="flowRoot4739"
       style="fill:black;fill-opacity:1;stroke:none;font-family:sans-serif;font-style:normal;font-weight:normal;font-size:16px;line-height:1.25;letter-spacing:0px;word-spacing:0px;"><flowRegion
         id="flowRegion4741"
         style="font-size:16px;"><rect
           id="rect4743"
           width="155.56349"
           height="58.083771"
           x="-64.649765"
           y="-165.36809"
           style="font-size:16px;" /></flowRegion><flowPara
         id="flowPara4745"></flowPara></flowRoot>    <g
       aria-label="tritech-cyber"
       style="font-style:normal;font-weight:normal;font-size:10.58333302px;line-height:1.25;font-family:sans-serif;letter-spacing:0px;word-spacing:0px;fill:#292a88;fill-opacity:1;stroke:none;stroke-width:0.26458332"
       id="text4836">
      <path
         d="m 2.9610607,265.97359 v 0.65732 h 0.7834147 v 0.29559 H 2.9610607 v 1.25677 q 0,0.28319 0.076481,0.3638 0.078548,0.0806 0.3162598,0.0806 h 0.3906738 v 0.31832 H 3.3538016 q -0.4402832,0 -0.6077148,-0.16329 -0.1674317,-0.16537 -0.1674317,-0.59945 V 266.9265 H 2.2996024 v -0.29559 h 0.2790527 v -0.65732 z"
         style="font-style:normal;font-variant:normal;font-weight:normal;font-stretch:normal;font-size:4.23333311px;font-family:Terminus;-inkscape-font-specification:Terminus;fill:#292a88;fill-opacity:1;stroke-width:0.26458332"
         id="path4881" />
      <path
         d="m 5.5882904,266.98644 q -0.064079,-0.0372 -0.1405599,-0.0537 -0.074414,-0.0186 -0.1653645,-0.0186 -0.322461,0 -0.4960938,0.21084 -0.1715657,0.20877 -0.1715657,0.60151 v 1.21956 H 4.2323009 v -2.3151 h 0.3824056 v 0.35967 q 0.1198893,-0.21084 0.3121256,-0.31213 0.1922363,-0.10335 0.4671549,-0.10335 0.039274,0 0.086816,0.006 0.047542,0.004 0.10542,0.0145 z"
         style="font-style:normal;font-variant:normal;font-weight:normal;font-stretch:normal;font-size:4.23333311px;font-family:Terminus;-inkscape-font-specification:Terminus;fill:#292a88;fill-opacity:1;stroke-width:0.26458332"
         id="path4883" />
      <path
         d="m 5.9913667,266.63091 h 0.3803385 v 2.3151 H 5.9913667 Z m 0,-0.90124 h 0.3803385 v 0.48163 H 5.9913667 Z"
         style="font-style:normal;font-variant:normal;font-weight:normal;font-stretch:normal;font-size:4.23333311px;font-family:Terminus;-inkscape-font-specification:Terminus;fill:#292a88;fill-opacity:1;stroke-width:0.26458332"
         id="path4885" />
      <path
         d="m 7.5416596,265.97359 v 0.65732 h 0.7834146 v 0.29559 H 7.5416596 v 1.25677 q 0,0.28319 0.076481,0.3638 0.078548,0.0806 0.3162597,0.0806 h 0.3906738 v 0.31832 H 7.9344004 q -0.4402832,0 -0.6077148,-0.16329 Q 7.159254,268.61735 7.159254,268.18327 V 266.9265 H 6.8802013 v -0.29559 H 7.159254 v -0.65732 z"
         style="font-style:normal;font-variant:normal;font-weight:normal;font-stretch:normal;font-size:4.23333311px;font-family:Terminus;-inkscape-font-specification:Terminus;fill:#292a88;fill-opacity:1;stroke-width:0.26458332"
         id="path4887" />
      <path
         d="m 10.80761,267.69338 v 0.18603 H 9.0588794 q 0.024805,0.39274 0.2356445,0.59945 0.2129069,0.20464 0.5911784,0.20464 0.2191077,0 0.4237467,-0.0537 0.206706,-0.0537 0.409277,-0.16123 v 0.35967 q -0.204638,0.0868 -0.419612,0.13229 -0.214974,0.0455 -0.4361493,0.0455 -0.5539714,0 -0.8784993,-0.32246 -0.322461,-0.32246 -0.322461,-0.8723 0,-0.56844 0.3059245,-0.90124 0.3079915,-0.33486 0.8288899,-0.33486 0.4671552,0 0.7379392,0.30179 0.272852,0.29972 0.272852,0.81649 z m -0.380339,-0.11162 q -0.0041,-0.31213 -0.1757,-0.49816 -0.169498,-0.18604 -0.450618,-0.18604 -0.3183269,0 -0.5105632,0.17983 -0.1901692,0.17984 -0.219108,0.50643 z"
         style="font-style:normal;font-variant:normal;font-weight:normal;font-stretch:normal;font-size:4.23333311px;font-family:Terminus;-inkscape-font-specification:Terminus;fill:#292a88;fill-opacity:1;stroke-width:0.26458332"
         id="path4889" />
      <path
         d="m 13.097909,266.71979 v 0.35554 q -0.16123,-0.0889 -0.324528,-0.13229 -0.16123,-0.0455 -0.326595,-0.0455 -0.370003,0 -0.574642,0.23565 -0.204638,0.23357 -0.204638,0.65732 0,0.42375 0.204638,0.65939 0.204639,0.23358 0.574642,0.23358 0.165365,0 0.326595,-0.0434 0.163298,-0.0455 0.324528,-0.13436 v 0.3514 q -0.159163,0.0744 -0.330729,0.11162 -0.169499,0.0372 -0.361735,0.0372 -0.522965,0 -0.830957,-0.32866 -0.307991,-0.32867 -0.307991,-0.88677 0,-0.56637 0.310058,-0.8909 0.312126,-0.32453 0.853695,-0.32453 0.1757,0 0.343131,0.0372 0.167432,0.0351 0.324528,0.10748 z"
         style="font-style:normal;font-variant:normal;font-weight:normal;font-stretch:normal;font-size:4.23333311px;font-family:Terminus;-inkscape-font-specification:Terminus;fill:#292a88;fill-opacity:1;stroke-width:0.26458332"
         id="path4891" />
      <path
         d="m 15.687932,267.54868 v 1.39733 h -0.380339 v -1.38492 q 0,-0.32867 -0.128157,-0.49196 -0.128158,-0.1633 -0.384473,-0.1633 -0.307992,0 -0.485758,0.19637 -0.177767,0.19637 -0.177767,0.53537 v 1.30844 h -0.382406 v -3.21634 h 0.382406 v 1.26091 q 0.136425,-0.20877 0.320393,-0.31213 0.186036,-0.10335 0.427881,-0.10335 0.398942,0 0.603581,0.24805 0.204639,0.24598 0.204639,0.72553 z"
         style="font-style:normal;font-variant:normal;font-weight:normal;font-stretch:normal;font-size:4.23333311px;font-family:Terminus;-inkscape-font-specification:Terminus;fill:#292a88;fill-opacity:1;stroke-width:0.26458332"
         id="path4893" />
      <path
         d="m 16.25844,267.6169 h 1.114144 v 0.33899 H 16.25844 Z"
         style="font-style:normal;font-variant:normal;font-weight:normal;font-stretch:normal;font-size:4.23333311px;font-family:Terminus;-inkscape-font-specification:Terminus;fill:#292a88;fill-opacity:1;stroke-width:0.26458332"
         id="path4895" />
      <path
         d="m 19.646346,266.71979 v 0.35554 q -0.16123,-0.0889 -0.324528,-0.13229 -0.16123,-0.0455 -0.326595,-0.0455 -0.370003,0 -0.574641,0.23565 -0.204639,0.23357 -0.204639,0.65732 0,0.42375 0.204639,0.65939 0.204638,0.23358 0.574641,0.23358 0.165365,0 0.326595,-0.0434 0.163298,-0.0455 0.324528,-0.13436 v 0.3514 q -0.159163,0.0744 -0.330729,0.11162 -0.169498,0.0372 -0.361735,0.0372 -0.522965,0 -0.830957,-0.32866 -0.307991,-0.32867 -0.307991,-0.88677 0,-0.56637 0.310058,-0.8909 0.312126,-0.32453 0.853695,-0.32453 0.1757,0 0.343131,0.0372 0.167432,0.0351 0.324528,0.10748 z"
         style="font-style:normal;font-variant:normal;font-weight:normal;font-stretch:normal;font-size:4.23333311px;font-family:Terminus;-inkscape-font-specification:Terminus;fill:#292a88;fill-opacity:1;stroke-width:0.26458332"
         id="path4897" />
      <path
         d="m 21.275186,269.16099 q -0.16123,0.41341 -0.314192,0.5395 -0.152963,0.12609 -0.409278,0.12609 h -0.303857 v -0.31833 h 0.223242 q 0.157096,0 0.243913,-0.0744 0.08682,-0.0744 0.192236,-0.3514 l 0.06821,-0.17363 -0.936377,-2.2779 h 0.403076 l 0.72347,1.81074 0.72347,-1.81074 h 0.403076 z"
         style="font-style:normal;font-variant:normal;font-weight:normal;font-stretch:normal;font-size:4.23333311px;font-family:Terminus;-inkscape-font-specification:Terminus;fill:#292a88;fill-opacity:1;stroke-width:0.26458332"
         id="path4899" />
      <path
         d="m 24.479125,267.79053 q 0,-0.41961 -0.173632,-0.65732 -0.171566,-0.23978 -0.473356,-0.23978 -0.301791,0 -0.475424,0.23978 -0.171565,0.23771 -0.171565,0.65732 0,0.41961 0.171565,0.65939 0.173633,0.23771 0.475424,0.23771 0.30179,0 0.473356,-0.23771 0.173632,-0.23978 0.173632,-0.65939 z m -1.293977,-0.80822 q 0.119889,-0.20671 0.30179,-0.30592 0.183968,-0.10129 0.438216,-0.10129 0.42168,0 0.684196,0.33486 0.264583,0.33487 0.264583,0.88057 0,0.5457 -0.264583,0.88057 -0.262516,0.33486 -0.684196,0.33486 -0.254248,0 -0.438216,-0.0992 -0.181901,-0.10129 -0.30179,-0.30799 v 0.34726 h -0.382406 v -3.21634 h 0.382406 z"
         style="font-style:normal;font-variant:normal;font-weight:normal;font-stretch:normal;font-size:4.23333311px;font-family:Terminus;-inkscape-font-specification:Terminus;fill:#292a88;fill-opacity:1;stroke-width:0.26458332"
         id="path4901" />
      <path
         d="m 27.484626,267.69338 v 0.18603 h -1.74873 q 0.0248,0.39274 0.235644,0.59945 0.212907,0.20464 0.591179,0.20464 0.219108,0 0.423746,-0.0537 0.206706,-0.0537 0.409278,-0.16123 v 0.35967 q -0.204639,0.0868 -0.419613,0.13229 -0.214974,0.0455 -0.436149,0.0455 -0.553971,0 -0.878499,-0.32246 -0.322461,-0.32246 -0.322461,-0.8723 0,-0.56844 0.305924,-0.90124 0.307992,-0.33486 0.82889,-0.33486 0.467155,0 0.73794,0.30179 0.272851,0.29972 0.272851,0.81649 z m -0.380338,-0.11162 q -0.0041,-0.31213 -0.1757,-0.49816 -0.169499,-0.18604 -0.450619,-0.18604 -0.318327,0 -0.510563,0.17983 -0.190169,0.17984 -0.219108,0.50643 z"
         style="font-style:normal;font-variant:normal;font-weight:normal;font-stretch:normal;font-size:4.23333311px;font-family:Terminus;-inkscape-font-specification:Terminus;fill:#292a88;fill-opacity:1;stroke-width:0.26458332"
         id="path4903" />
      <path
         d="m 29.450398,266.98644 q -0.06408,-0.0372 -0.14056,-0.0537 -0.07441,-0.0186 -0.165365,-0.0186 -0.322461,0 -0.496094,0.21084 -0.171565,0.20877 -0.171565,0.60151 v 1.21956 h -0.382406 v -2.3151 h 0.382406 v 0.35967 q 0.119889,-0.21084 0.312125,-0.31213 0.192237,-0.10335 0.467155,-0.10335 0.03927,0 0.08682,0.006 0.04754,0.004 0.10542,0.0145 z"
         style="font-style:normal;font-variant:normal;font-weight:normal;font-stretch:normal;font-size:4.23333311px;font-family:Terminus;-inkscape-font-specification:Terminus;fill:#292a88;fill-opacity:1;stroke-width:0.26458332"
         id="path4905" />
    </g>
    <g
       aria-label="repositories"
       style="font-style:normal;font-weight:normal;font-size:10.58333302px;line-height:1.25;font-family:sans-serif;letter-spacing:0px;word-spacing:0px;fill:#292a88;fill-opacity:1;stroke:none;stroke-width:0.26458332"
       id="text4836-7">
      <path
         d="m 5.0797943,293.66924 q -0.064079,-0.0372 -0.1405599,-0.0537 -0.074414,-0.0186 -0.1653646,-0.0186 -0.3224609,0 -0.4960937,0.21084 -0.1715658,0.20877 -0.1715658,0.60151 v 1.21956 H 3.7238047 v -2.3151 h 0.3824056 v 0.35967 q 0.1198893,-0.21084 0.3121257,-0.31213 0.1922363,-0.10335 0.4671549,-0.10335 0.039274,0 0.086816,0.006 0.047542,0.004 0.1054199,0.0145 z"
         style="font-style:normal;font-variant:normal;font-weight:normal;font-stretch:normal;font-size:4.23333311px;font-family:Terminus;-inkscape-font-specification:Terminus;fill:#292a88;fill-opacity:1;stroke-width:0.26458332"
         id="path4856" />
      <path
         d="m 7.3721607,294.37618 v 0.18603 H 5.6234303 q 0.024805,0.39274 0.2356445,0.59945 0.2129069,0.20464 0.5911784,0.20464 0.219108,0 0.4237467,-0.0538 0.2067057,-0.0537 0.4092773,-0.16123 v 0.35967 q -0.2046386,0.0868 -0.4196126,0.13229 -0.2149739,0.0455 -0.4361491,0.0455 -0.5539713,0 -0.8784993,-0.32246 -0.3224609,-0.32246 -0.3224609,-0.8723 0,-0.56844 0.3059245,-0.90124 0.3079915,-0.33486 0.8288899,-0.33486 0.4671549,0 0.7379394,0.30179 0.2728516,0.29972 0.2728516,0.81649 z m -0.3803385,-0.11162 q -0.00413,-0.31213 -0.1756999,-0.49816 -0.1694987,-0.18604 -0.4506185,-0.18604 -0.3183268,0 -0.5105631,0.17984 -0.1901693,0.17983 -0.2191081,0.50642 z"
         style="font-style:normal;font-variant:normal;font-weight:normal;font-stretch:normal;font-size:4.23333311px;font-family:Terminus;-inkscape-font-specification:Terminus;fill:#292a88;fill-opacity:1;stroke-width:0.26458332"
         id="path4858" />
      <path
         d="m 8.364348,295.28155 v 1.22783 H 7.9819424 v -3.19567 H 8.364348 v 0.3514 q 0.1198893,-0.20671 0.3017904,-0.30592 0.1839681,-0.10129 0.4382161,-0.10129 0.4216797,0 0.6841959,0.33486 0.2645836,0.33487 0.2645836,0.88057 0,0.5457 -0.2645836,0.88057 -0.2625162,0.33486 -0.6841959,0.33486 -0.254248,0 -0.4382161,-0.0992 -0.1819011,-0.10129 -0.3017904,-0.30799 z m 1.2939778,-0.80822 q 0,-0.41961 -0.1736328,-0.65732 -0.1715657,-0.23978 -0.4733561,-0.23978 -0.3017903,0 -0.4754231,0.23978 -0.1715658,0.23771 -0.1715658,0.65732 0,0.41961 0.1715658,0.65939 0.1736328,0.23771 0.4754231,0.23771 0.3017904,0 0.4733561,-0.23771 0.1736328,-0.23978 0.1736328,-0.65939 z"
         style="font-style:normal;font-variant:normal;font-weight:normal;font-stretch:normal;font-size:4.23333311px;font-family:Terminus;-inkscape-font-specification:Terminus;fill:#292a88;fill-opacity:1;stroke-width:0.26458332"
         id="path4860" />
      <path
         d="m 11.580689,293.58036 q -0.305924,0 -0.483691,0.23978 -0.177767,0.23771 -0.177767,0.65319 0,0.41548 0.1757,0.65526 0.177766,0.23771 0.485758,0.23771 0.303857,0 0.481624,-0.23978 0.177767,-0.23978 0.177767,-0.65319 0,-0.41134 -0.177767,-0.65112 -0.177767,-0.24185 -0.481624,-0.24185 z m 0,-0.32246 q 0.496094,0 0.779281,0.32246 0.283186,0.32246 0.283186,0.89297 0,0.56844 -0.283186,0.89297 -0.283187,0.32246 -0.779281,0.32246 -0.498161,0 -0.781348,-0.32246 -0.281119,-0.32453 -0.281119,-0.89297 0,-0.57051 0.281119,-0.89297 0.283187,-0.32246 0.781348,-0.32246 z"
         style="font-style:normal;font-variant:normal;font-weight:normal;font-stretch:normal;font-size:4.23333311px;font-family:Terminus;-inkscape-font-specification:Terminus;fill:#292a88;fill-opacity:1;stroke-width:0.26458332"
         id="path4862" />
      <path
         d="m 14.747421,293.38192 v 0.35967 q -0.161231,-0.0827 -0.334863,-0.12402 -0.173633,-0.0413 -0.359668,-0.0413 -0.283187,0 -0.425814,0.0868 -0.14056,0.0868 -0.14056,0.26045 0,0.13229 0.101286,0.20878 0.101286,0.0744 0.40721,0.14262 l 0.130225,0.0289 q 0.405143,0.0868 0.574642,0.24598 0.171565,0.1571 0.171565,0.44028 0,0.32246 -0.256315,0.51057 -0.254248,0.1881 -0.700732,0.1881 -0.186035,0 -0.388607,-0.0372 -0.200504,-0.0351 -0.423747,-0.10748 v -0.39275 q 0.21084,0.10956 0.415479,0.16537 0.204639,0.0537 0.405143,0.0537 0.268718,0 0.413412,-0.091 0.144694,-0.093 0.144694,-0.26045 0,-0.15503 -0.10542,-0.23771 -0.103353,-0.0827 -0.45682,-0.15916 l -0.132292,-0.031 q -0.353466,-0.0744 -0.510563,-0.22737 -0.157096,-0.15503 -0.157096,-0.42375 0,-0.3266 0.23151,-0.50436 0.231511,-0.17777 0.657324,-0.17777 0.21084,0 0.396875,0.031 0.186036,0.031 0.343132,0.093 z"
         style="font-style:normal;font-variant:normal;font-weight:normal;font-stretch:normal;font-size:4.23333311px;font-family:Terminus;-inkscape-font-specification:Terminus;fill:#292a88;fill-opacity:1;stroke-width:0.26458332"
         id="path4864" />
      <path
         d="m 15.479159,293.31371 h 0.380338 v 2.3151 h -0.380338 z m 0,-0.90124 h 0.380338 v 0.48163 h -0.380338 z"
         style="font-style:normal;font-variant:normal;font-weight:normal;font-stretch:normal;font-size:4.23333311px;font-family:Terminus;-inkscape-font-specification:Terminus;fill:#292a88;fill-opacity:1;stroke-width:0.26458332"
         id="path4866" />
      <path
         d="m 17.029452,292.65639 v 0.65732 h 0.783414 v 0.29559 h -0.783414 v 1.25677 q 0,0.28319 0.07648,0.3638 0.07855,0.0806 0.31626,0.0806 h 0.390673 v 0.31832 h -0.390673 q -0.440284,0 -0.607715,-0.16329 -0.167432,-0.16537 -0.167432,-0.59945 v -1.25677 h -0.279052 v -0.29559 h 0.279052 v -0.65732 z"
         style="font-style:normal;font-variant:normal;font-weight:normal;font-stretch:normal;font-size:4.23333311px;font-family:Terminus;-inkscape-font-specification:Terminus;fill:#292a88;fill-opacity:1;stroke-width:0.26458332"
         id="path4868" />
      <path
         d="m 19.212264,293.58036 q -0.305924,0 -0.483691,0.23978 -0.177767,0.23771 -0.177767,0.65319 0,0.41548 0.1757,0.65526 0.177767,0.23771 0.485758,0.23771 0.303857,0 0.481624,-0.23978 0.177767,-0.23978 0.177767,-0.65319 0,-0.41134 -0.177767,-0.65112 -0.177767,-0.24185 -0.481624,-0.24185 z m 0,-0.32246 q 0.496094,0 0.779281,0.32246 0.283186,0.32246 0.283186,0.89297 0,0.56844 -0.283186,0.89297 -0.283187,0.32246 -0.779281,0.32246 -0.498161,0 -0.781348,-0.32246 -0.281119,-0.32453 -0.281119,-0.89297 0,-0.57051 0.281119,-0.89297 0.283187,-0.32246 0.781348,-0.32246 z"
         style="font-style:normal;font-variant:normal;font-weight:normal;font-stretch:normal;font-size:4.23333311px;font-family:Terminus;-inkscape-font-specification:Terminus;fill:#292a88;fill-opacity:1;stroke-width:0.26458332"
         id="path4870" />
      <path
         d="m 22.244637,293.66924 q -0.06408,-0.0372 -0.14056,-0.0537 -0.07441,-0.0186 -0.165365,-0.0186 -0.322461,0 -0.496093,0.21084 -0.171566,0.20877 -0.171566,0.60151 v 1.21956 h -0.382406 v -2.3151 h 0.382406 v 0.35967 q 0.119889,-0.21084 0.312126,-0.31213 0.192236,-0.10335 0.467154,-0.10335 0.03927,0 0.08682,0.006 0.04754,0.004 0.10542,0.0145 z"
         style="font-style:normal;font-variant:normal;font-weight:normal;font-stretch:normal;font-size:4.23333311px;font-family:Terminus;-inkscape-font-specification:Terminus;fill:#292a88;fill-opacity:1;stroke-width:0.26458332"
         id="path4872" />
      <path
         d="m 22.647713,293.31371 h 0.380339 v 2.3151 h -0.380339 z m 0,-0.90124 h 0.380339 v 0.48163 h -0.380339 z"
         style="font-style:normal;font-variant:normal;font-weight:normal;font-stretch:normal;font-size:4.23333311px;font-family:Terminus;-inkscape-font-specification:Terminus;fill:#292a88;fill-opacity:1;stroke-width:0.26458332"
         id="path4874" />
      <path
         d="m 25.802042,294.37618 v 0.18603 h -1.748731 q 0.02481,0.39274 0.235645,0.59945 0.212907,0.20464 0.591178,0.20464 0.219108,0 0.423747,-0.0538 0.206705,-0.0537 0.409277,-0.16123 v 0.35967 q -0.204639,0.0868 -0.419613,0.13229 -0.214973,0.0455 -0.436149,0.0455 -0.553971,0 -0.878499,-0.32246 -0.322461,-0.32246 -0.322461,-0.8723 0,-0.56844 0.305925,-0.90124 0.307991,-0.33486 0.82889,-0.33486 0.467154,0 0.737939,0.30179 0.272852,0.29972 0.272852,0.81649 z m -0.380339,-0.11162 q -0.0041,-0.31213 -0.1757,-0.49816 -0.169499,-0.18604 -0.450618,-0.18604 -0.318327,0 -0.510563,0.17984 -0.19017,0.17983 -0.219109,0.50642 z"
         style="font-style:normal;font-variant:normal;font-weight:normal;font-stretch:normal;font-size:4.23333311px;font-family:Terminus;-inkscape-font-specification:Terminus;fill:#292a88;fill-opacity:1;stroke-width:0.26458332"
         id="path4876" />
      <path
         d="m 27.902172,293.38192 v 0.35967 q -0.161231,-0.0827 -0.334863,-0.12402 -0.173633,-0.0413 -0.359668,-0.0413 -0.283187,0 -0.425814,0.0868 -0.14056,0.0868 -0.14056,0.26045 0,0.13229 0.101286,0.20878 0.101285,0.0744 0.40721,0.14262 l 0.130225,0.0289 q 0.405143,0.0868 0.574641,0.24598 0.171566,0.1571 0.171566,0.44028 0,0.32246 -0.256315,0.51057 -0.254248,0.1881 -0.700732,0.1881 -0.186035,0 -0.388607,-0.0372 -0.200505,-0.0351 -0.423747,-0.10748 v -0.39275 q 0.21084,0.10956 0.415479,0.16537 0.204638,0.0537 0.405143,0.0537 0.268717,0 0.413411,-0.091 0.144694,-0.093 0.144694,-0.26045 0,-0.15503 -0.10542,-0.23771 -0.103352,-0.0827 -0.456819,-0.15916 l -0.132292,-0.031 q -0.353467,-0.0744 -0.510563,-0.22737 -0.157096,-0.15503 -0.157096,-0.42375 0,-0.3266 0.23151,-0.50436 0.231511,-0.17777 0.657324,-0.17777 0.21084,0 0.396875,0.031 0.186035,0.031 0.343132,0.093 z"
         style="font-style:normal;font-variant:normal;font-weight:normal;font-stretch:normal;font-size:4.23333311px;font-family:Terminus;-inkscape-font-specification:Terminus;fill:#292a88;fill-opacity:1;stroke-width:0.26458332"
         id="path4878" />
    </g>
  </g>
</svg>
