<svg xmlns="http://www.w3.org/2000/svg" viewBox="0 0 106.1 106.1" enable-background="new 0 0 106.1 106.1"><path fill="#ddd" d="M90.5 15.5c-20.7-20.7-54.3-20.7-75 0-20.7 20.7-20.7 54.3 0 75 20.7 20.7 54.3 20.7 75 0 20.7-20.6 20.7-54.3 0-75zm-5.7 69.3c-17.5 17.5-46 17.5-63.5 0s-17.5-46 0-63.5 46-17.5 63.5 0 17.5 46 0 63.5zm-51.6-46.1c0-3.4 2.8-6.2 6.2-6.2 3.4 0 6.2 2.8 6.2 6.2 0 3.4-2.8 6.2-6.2 6.2-3.4 0-6.2-2.8-6.2-6.2zm28.2 0c0-3.4 2.8-6.2 6.2-6.2 3.4 0 6.2 2.8 6.2 6.2 0 3.4-2.8 6.2-6.2 6.2s-6.2-2.8-6.2-6.2zm14.6 25.4c-3.8 8.9-12.8 14.6-22.9 14.6-10.3 0-19.4-5.8-23.1-14.7-.6-1.5.1-3.3 1.6-3.9.4-.2.8-.2 1.1-.2 1.2 0 2.3.7 2.8 1.8 2.8 6.7 9.7 11 17.5 11 7.7 0 14.5-4.3 17.4-11 .7-1.5 2.4-2.2 3.9-1.6s2.4 2.4 1.7 4z"/></svg>
