<svg xmlns="http://www.w3.org/2000/svg" width="51.098" height="89.36" viewBox="0 0 51.098 89.36"><path fill="#fff" d="M15.594 31.546c1.599-.558 3.358-1.079 5.277-1.559s4.037-.72 6.357-.72c3.438 0 6.615.521 9.535 1.56 2.919 1.04 5.438 2.599 7.557 4.678 2.118 2.08 3.778 4.678 4.979 7.796 1.199 3.119 1.799 6.717 1.799 10.795v35.264h-15.593v-33.105c0-4.078-.761-7.275-2.279-9.596-1.52-2.318-3.838-3.479-6.957-3.479-2.32 0-4.239.281-5.757.84-1.521.561-3.16 1.361-4.918 2.399v42.941h-15.594v-82.883l15.594-6.477v31.546z"/></svg>