<?xml version="1.0" encoding="UTF-8"?>
<svg width="153px" height="31px" viewBox="0 0 153 31" version="1.1" xmlns="http://www.w3.org/2000/svg" xmlns:xlink="http://www.w3.org/1999/xlink">
    <!-- Generator: Sketch 42 (36781) - http://www.bohemiancoding.com/sketch -->
    <title>Page 1</title>
    <desc>Created with Sketch.</desc>
    <defs>
        <polygon id="path-1" points="2.6468777 0.141319634 0.213820845 0.141319634 0.213820845 15.6155046 2.6468777 15.6155046 2.6468777 0.141319634"></polygon>
        <polygon id="path-3" points="2.63271516 0.141319634 0.204788047 0.141319634 0.204788047 15.6155046 2.63271516 15.6155046"></polygon>
        <polygon id="path-5" points="0.0130919825 16.2022511 11.8761678 16.2022511 11.8761678 0.149510772 0.0130919825 0.149510772"></polygon>
        <polygon id="path-7" points="0 30.1541895 152.89406 30.1541895 152.89406 0.141319634 0 0.141319634"></polygon>
    </defs>
    <g id="Page-1" stroke="none" stroke-width="1" fill="none" fill-rule="evenodd">
        <g id="Artboard-2" transform="translate(-158.000000, -55.000000)">
            <g id="Page-1" transform="translate(158.000000, 55.000000)">
                <g id="Group-43" transform="translate(0.000000, 0.083712)">
                    <path d="M38.0434054,22.7105603 C37.9390264,22.6594782 37.150385,22.1873626 35.9792436,22.1873626 C34.3925934,22.1873626 33.2930453,23.3003673 33.2930453,24.8017759 C33.2930453,26.2622288 34.3441955,27.4200146 35.9792436,27.4200146 C37.1325424,27.4200146 37.9347888,26.9607258 38.0434054,26.8999674 L38.0434054,29.5328332 C37.734506,29.6212705 36.8952363,29.8829818 35.8072859,29.8829818 C33.0441415,29.8829818 30.6260278,27.9652654 30.6260278,24.8017759 C30.6260278,21.8768195 32.8164258,19.728671 35.8072859,19.728671 C36.955455,19.728671 37.8083296,20.0110853 38.0434054,20.08107 L38.0434054,22.7105603 Z" id="Fill-2" fill="#B7B7B7"></path>
                    <path d="M12.4460147,22.7105603 C12.3469885,22.6594782 11.5594622,22.1873626 10.3860905,22.1873626 C8.79631793,22.1873626 7.69766195,23.3003673 7.69766195,24.8017759 C7.69766195,26.2622288 8.74680481,27.4200146 10.3860905,27.4200146 C11.5393894,27.4200146 12.3416357,26.9607258 12.4460147,26.8999674 L12.4460147,29.5328332 C12.1402378,29.6212705 11.3023063,29.8829818 10.2058806,29.8829818 C7.4489812,29.8829818 5.03488207,27.9652654 5.03488207,24.8017759 C5.03488207,21.8768195 7.22349577,19.728671 10.2058806,19.728671 C11.3676547,19.728671 12.2131692,20.0110853 12.4460147,20.08107 L12.4460147,22.7105603 Z" id="Fill-4" fill="#B7B7B7"></path>
                    <path d="M50.8869302,24.8017759 C50.8869302,27.6079157 48.7415847,29.8829818 45.7527319,29.8829818 C42.7663325,29.8829818 40.6252246,27.6079157 40.6252246,24.8017759 C40.6252246,22.0032871 42.7663325,19.728671 45.7527319,19.728671 C48.7415847,19.728671 50.8869302,22.0032871 50.8869302,24.8017759 M45.7527319,22.226293 C44.2990089,22.226293 43.2206488,23.3786781 43.2206488,24.8017759 C43.2206488,26.2313995 44.2990089,27.3840096 45.7527319,27.3840096 C47.2086853,27.3840096 48.2903908,26.2313995 48.2903908,24.8017759 C48.2903908,23.3786781 47.2086853,22.226293 45.7527319,22.226293" id="Fill-6" fill="#B7B7B7"></path>
                    <path d="M27.5665631,22.1304072 C27.5328853,22.1191557 26.4995777,21.833816 25.6511637,21.833816 C24.6684844,21.833816 24.1352147,22.1632618 24.1352147,22.6378527 C24.1352147,23.2319353 24.8529319,23.4391891 25.2557278,23.5706073 L25.9357526,23.7864123 C27.5253022,24.2965582 28.2519407,25.3985363 28.2519407,26.5907519 C28.2519407,29.0543942 26.1032497,29.8829593 24.2288882,29.8829593 C22.9228124,29.8829593 21.7072876,29.6383503 21.5819436,29.6149471 L21.5819436,27.3574334 C21.7989538,27.411666 22.8257934,27.7246845 23.8967934,27.7246845 C25.1134334,27.7246845 25.6785966,27.3630592 25.6785966,26.8045316 C25.6785966,26.3090128 25.1946171,26.0252484 24.582171,25.8303713 C24.4345238,25.7824396 24.2141681,25.7090794 24.0571535,25.6618229 C22.6928663,25.2245871 21.5565179,24.4135744 21.5565179,22.7924492 C21.5565179,20.9570942 22.9154523,19.7281985 25.1787818,19.7281985 C26.3711112,19.7281985 27.4949698,20.0173636 27.5665631,20.0364913 L27.5665631,22.1304072 Z" id="Fill-8" fill="#B7B7B7"></path>
                    <path d="M2.4320086,9.36602628 C2.4320086,8.69093249 1.88803338,8.14275633 1.21336137,8.14275633 C0.549394898,8.14275633 6.6909621e-05,8.69093249 6.6909621e-05,9.36602628 L6.6909621e-05,11.9379086 C6.6909621e-05,12.6186282 0.549394898,13.1652291 1.21336137,13.1652291 C1.88803338,13.1652291 2.4320086,12.6186282 2.4320086,11.9379086 L2.4320086,9.36602628 Z" id="Fill-10" fill="#B7B7B7"></path>
                    <path d="M9.11991516,5.9861692 C9.11991516,5.31085037 8.57593994,4.7640244 7.9066207,4.7640244 C7.23194869,4.7640244 6.68485102,5.31085037 6.68485102,5.9861692 L6.68485102,11.9380211 C6.68485102,12.6187407 7.23194869,13.1653416 7.9066207,13.1653416 C8.57593994,13.1653416 9.11991516,12.6187407 9.11991516,11.9380211 L9.11991516,5.9861692 Z" id="Fill-12" fill="#B7B7B7"></path>
                    <g id="Group-16" transform="translate(13.158892, 0.000000)">
                        <mask id="mask-2" fill="white">
                            <use xlink:href="#path-1"></use>
                        </mask>
                        <g id="Clip-15"></g>
                        <path d="M2.6468777,1.36719995 C2.6468777,0.68873069 2.10490977,0.141229622 1.43246808,0.141229622 C0.763148834,0.141229622 0.213820845,0.68873069 0.213820845,1.36719995 L0.213820845,14.3852586 C0.213820845,15.0650781 0.763148834,15.6155046 1.43246808,15.6155046 C2.10490977,15.6155046 2.6468777,15.0650781 2.6468777,14.3852586 L2.6468777,1.36719995 Z" id="Fill-14" fill="#B7B7B7" mask="url(#mask-2)"></path>
                    </g>
                    <path d="M22.4936764,5.9861692 C22.4936764,5.31085037 21.948586,4.7640244 21.2812741,4.7640244 C20.6077172,4.7640244 20.0626268,5.31085037 20.0626268,5.9861692 L20.0626268,11.9380211 C20.0626268,12.6187407 20.6077172,13.1653416 21.2812741,13.1653416 C21.948586,13.1653416 22.4936764,12.6187407 22.4936764,11.9380211 L22.4936764,5.9861692 Z" id="Fill-17" fill="#B7B7B7"></path>
                    <path d="M29.1742898,9.36602628 C29.1742898,8.69093249 28.633437,8.14275633 27.9641178,8.14275633 C27.2934603,8.14275633 26.7463627,8.69093249 26.7463627,9.36602628 L26.7463627,11.9379086 C26.7463627,12.6186282 27.2934603,13.1652291 27.9641178,13.1652291 C28.633437,13.1652291 29.1742898,12.6186282 29.1742898,11.9379086 L29.1742898,9.36602628 Z" id="Fill-19" fill="#B7B7B7"></path>
                    <path d="M35.8664563,5.9861692 C35.8664563,5.31085037 35.3235962,4.7640244 34.6520466,4.7640244 C33.9825044,4.7640244 33.4396443,5.31085037 33.4396443,5.9861692 L33.4396443,11.9380211 C33.4396443,12.6187407 33.9825044,13.1653416 34.6520466,13.1653416 C35.3235962,13.1653416 35.8664563,12.6187407 35.8664563,11.9380211 L35.8664563,5.9861692 Z" id="Fill-21" fill="#B7B7B7"></path>
                    <g id="Group-25" transform="translate(39.922741, 0.000000)">
                        <mask id="mask-4" fill="white">
                            <use xlink:href="#path-3"></use>
                        </mask>
                        <g id="Clip-24"></g>
                        <path d="M2.63271516,1.36719995 C2.63271516,0.68873069 2.09297755,0.141229622 1.41719038,0.141229622 C0.753000875,0.141229622 0.204788047,0.68873069 0.204788047,1.36719995 L0.204788047,14.3852586 C0.204788047,15.0650781 0.753000875,15.6155046 1.41719038,15.6155046 C2.09297755,15.6155046 2.63271516,15.0650781 2.63271516,14.3852586 L2.63271516,1.36719995 Z" id="Fill-23" fill="#B7B7B7" mask="url(#mask-4)"></path>
                    </g>
                    <path d="M49.2486035,5.9861692 C49.2486035,5.31085037 48.7012828,4.7640244 48.0152362,4.7640244 C47.3499315,4.7640244 46.8017187,5.31085037 46.8017187,5.9861692 L46.8017187,11.9380211 C46.8017187,12.6187407 47.3499315,13.1653416 48.0152362,13.1653416 C48.7012828,13.1653416 49.2486035,12.6187407 49.2486035,11.9380211 L49.2486035,5.9861692 Z" id="Fill-26" fill="#B7B7B7"></path>
                    <path d="M55.9248678,9.36602628 C55.9248678,8.69093249 55.3777701,8.14275633 54.7082278,8.14275633 C54.0369013,8.14275633 53.4949334,8.69093249 53.4949334,9.36602628 L53.4949334,11.9379086 C53.4949334,12.6186282 54.0369013,13.1652291 54.7082278,13.1652291 C55.3777701,13.1652291 55.9248678,12.6186282 55.9248678,11.9379086 L55.9248678,9.36602628 Z" id="Fill-28" fill="#B7B7B7"></path>
                    <polygon id="Fill-30" fill="#B7B7B7" points="81.4257525 29.7181689 73.8460076 10.8306198 73.8460076 29.7181689 72.2546738 29.7181689 72.2546738 8.70002375 74.6567292 8.70002375 82.3234566 27.9674257 89.5552714 8.70002375 91.8714595 8.70002375 91.8714595 29.7181689 90.3084507 29.7181689 90.3084507 10.97644 83.1620571 29.7181689"></polygon>
                    <path d="M96.8321834,21.1927019 L107.247112,21.1927019 C107.045714,17.3093374 104.875389,15.3862202 102.068753,15.3862202 C99.3198831,15.3862202 97.121902,17.3966495 96.8321834,21.1927019 L96.8321834,21.1927019 Z M108.607608,25.5720354 C107.884538,28.3471209 105.57058,30.154122 102.35758,30.154122 C98.2783233,30.154122 95.2105172,27.3248039 95.2105172,22.1277068 C95.2105172,16.9317349 98.1911178,14.1012917 102.068753,14.1012917 C105.917841,14.1012917 108.868555,16.7285317 108.868555,22.5086848 L96.8029662,22.5086848 C96.9481601,26.8259096 99.3774254,28.8127106 102.387243,28.8127106 C104.643659,28.8127106 106.380186,27.584265 106.958285,25.5720354 L108.607608,25.5720354 Z" id="Fill-32" fill="#B7B7B7"></path>
                    <path d="M112.519345,29.7181689 L112.519345,14.5384599 L113.792858,14.5384599 L114.024142,17.4584656 C114.833749,15.1523452 116.366648,14.1014492 118.24837,14.1014492 C118.854571,14.1014492 119.463002,14.2173403 119.810709,14.3354817 L119.810709,15.8830217 C119.289037,15.734051 118.769149,15.6181599 118.160941,15.6181599 C115.961845,15.6181599 114.081015,17.7795852 114.081015,21.4266669 L114.081015,29.7181689 L112.519345,29.7181689 Z" id="Fill-34" fill="#B7B7B7"></path>
                    <g id="Group-38" transform="translate(121.329446, 13.951938)">
                        <mask id="mask-6" fill="white">
                            <use xlink:href="#path-5"></use>
                        </mask>
                        <g id="Clip-37"></g>
                        <path d="M10.3138281,10.3659302 L10.3138281,7.53346167 L6.26356574,8.23330891 C2.67497974,8.84696917 1.63341997,9.9851773 1.63341997,11.7975791 C1.63341997,13.8388377 3.19464446,14.8609297 5.45395933,14.8609297 C7.85534563,14.8609297 10.3138281,13.0230994 10.3138281,10.3659302 L10.3138281,10.3659302 Z M0.447558455,4.52659391 C0.678396647,1.9310833 2.96492143,0.149510772 6.29322901,0.149510772 C9.6494156,0.149510772 11.8761678,2.04584924 11.8761678,5.14115429 L11.8761678,15.7662305 L10.6026547,15.7662305 L10.3729316,13.2571319 C9.44511822,14.8301004 7.73936895,16.2023411 5.04915612,16.2023411 C2.12565175,16.2023411 0.0130919825,14.5992184 0.0130919825,11.9136952 C0.0130919825,9.3150342 1.5752086,7.73869019 5.79965904,7.0377178 L10.3138281,6.27936243 L10.3138281,4.96585494 C10.3138281,2.77652576 8.78092872,1.4344393 6.20669257,1.4344393 C3.80441414,1.4344393 2.26906137,2.68628822 2.06654825,4.52659391 L0.447558455,4.52659391 Z" id="Fill-36" fill="#B7B7B7" mask="url(#mask-6)"></path>
                    </g>
                    <polygon id="Fill-39" fill="#B7B7B7" points="137.209486 29.7181689 137.209486 8.70002375 138.771825 8.70002375 138.771825 20.7247944 145.97643 14.5384599 148.088767 14.5384599 140.361598 21.1660807 149.042006 29.7181689 146.931453 29.7181689 138.771825 21.6906286 138.771825 29.7181689"></polygon>
                    <mask id="mask-8" fill="white">
                        <use xlink:href="#path-7"></use>
                    </mask>
                    <g id="Clip-42"></g>
                    <path d="M151.15664,29.718304 L152.719203,29.718304 L152.719203,14.5385949 L151.15664,14.5385949 L151.15664,29.718304 Z M151.01323,10.8584336 L152.89406,10.8584336 L152.89406,8.70015877 L151.01323,8.70015877 L151.01323,10.8584336 Z" id="Fill-41" fill="#B7B7B7" mask="url(#mask-8)"></path>
                    <polygon id="Fill-1" fill="#B7B7B7" mask="url(#mask-8)" points="15.814312 29.7079525 18.2705641 29.7079525 18.2705641 19.9033403 15.814312 19.9033403"></polygon>
                </g>
            </g>
        </g>
    </g>
</svg>