<?xml version="1.0" encoding="UTF-8"?>
<svg width="13px" height="12px" viewBox="0 0 13 12" version="1.1" xmlns="http://www.w3.org/2000/svg" xmlns:xlink="http://www.w3.org/1999/xlink">
    <!-- Generator: Sketch 42 (36781) - http://www.bohemiancoding.com/sketch -->
    <title>Fill 1</title>
    <desc>Created with Sketch.</desc>
    <defs></defs>
    <g id="Page-1" stroke="none" stroke-width="1" fill="none" fill-rule="evenodd">
        <g id="Artboard-2" transform="translate(-229.000000, -104.000000)" fill="#B7B7B7">
            <path d="M241.088735,104 L230.08886,104 C229.81286,104 229.58861,104.223875 229.58861,104.499875 L229.58861,115.500125 C229.58861,115.776125 229.81286,116 230.08886,116 L235.96361,116 L235.96361,111.5 L234.46361,111.5 L234.46361,109.625 L235.96361,109.625 L235.96361,108.125 C235.96361,106.575125 236.944985,105.812375 238.32761,105.812375 C238.98986,105.812375 239.55911,105.861875 239.725235,105.883625 L239.725235,107.503625 L238.76636,107.504 C238.01411,107.504 237.83861,107.861375 237.83861,108.385625 L237.83861,109.625 L239.71361,109.625 L239.33861,111.5 L237.83861,111.5 L237.86861,116 L241.088735,116 C241.364735,116 241.58861,115.776125 241.58861,115.500125 L241.58861,104.499875 C241.58861,104.223875 241.364735,104 241.088735,104" id="Fill-1"></path>
        </g>
    </g>
</svg>