<?xml version="1.0" encoding="utf-8"?>
<!-- Generator: Adobe Illustrator 21.0.0, SVG Export Plug-In . SVG Version: 6.00 Build 0)  -->
<svg version="1.1" id="Layer_1" xmlns="http://www.w3.org/2000/svg" xmlns:xlink="http://www.w3.org/1999/xlink" x="0px" y="0px"
	 viewBox="0 0 74 74" style="enable-background:new 0 0 74 74;" xml:space="preserve">
<style type="text/css">
	.st0{fill:#F04C26;}
</style>
<path class="st0" d="M73.5,31c-1.4-8.7-6-16.6-12.7-22.3C54.2,3.1,45.7,0,37.1,0h0C35,0,33,0.2,31,0.5c-9.7,1.6-18.3,6.9-24,15
	c-5.8,8-8,17.8-6.4,27.6c1.4,8.7,5.9,16.6,12.7,22.3C19.9,70.9,28.3,74,37,74c2,0,4.1-0.2,6.1-0.5c9.7-1.6,18.3-6.9,24-15
	C72.9,50.5,75.1,40.7,73.5,31z M64.8,48.9c-0.1,0.8-0.6,1.5-0.9,2.2c-0.5,1-0.9,2.2-1,3.3c-0.1,0.6-0.2,1.2-0.3,1.7
	c-0.4,1.2-1.4,2.1-2.1,3.1c-0.6,0.8-1.2,1.8-1,2.9c0,0.1,0.1,0.2,0,0.4c0,0.2-0.2,0.3-0.3,0.4c-1.7,1.3-3.4,2.6-5.3,3.7
	c-0.8,0.5-1.5,0.8-2.5,0.8c-2.6-0.1-3.7-2.9-4.2-5.1c-0.5-2.9-2.5-5.3-4.6-7.3c-2.1-2-4.9-3.7-5.4-6.6c-0.3-1.8,0.4-3.9-0.6-5.5
	c-0.9-1.4-2.5-1.7-3.9-2.2c-1.6-0.6-3.3-1.1-4.9-1.5c-3.3-0.9-4.6-1.9-7.2-4.2c-0.7-0.6-1.4-1.3-2.1-1.9c-0.5-0.5-1.4-0.2-1.5,0.5
	c-0.1,0.7-0.2,1.4,0.3,2c-0.4,0.2-0.9-0.1-1.3-0.4c-3-2.6-5.4-6.4-6-10.3c-0.3-2.2,0-4.6,1.2-6.5c0.2-0.2,0.3-0.5,0.4-0.7
	c0.4-1.2-0.2-2.4,0.5-3.6c0.4-0.8,1.1-1.3,1.7-1.9c2.6-2.3,5.5-4.3,8.6-5.9c2.3-1.2,4.6-1.2,6.9-0.2c0.6,0.3,0.3,0.4,0.8,0.8
	c0.1,0.1,0.3,0.1,0.4,0.1L32.9,7c0.2,0,0.4,0.1,0.5,0.2c0.4,0.3,1,0.7,1.5,1.2C35.6,9,36.6,8.8,37,8c0.2-0.3,0.3-0.7,0.4-1.3
	c0.3-1.2,0-2.5-0.1-3.7c2.4,0.1,4.8,0.3,7.1,0.8c0.4,0.1,0.7,0.1,1.1,0.3c1.2,0.7,1.9,3.2,1.6,4.5c-0.2,1.2-1.1,2.1-2.1,2.8
	c-1,0.6-0.8,3.2-0.9,4c-0.1,0.9-0.9,1.5-1.7,1.8c-0.8,0.3-1.7,0.4-2.5,0.8c-1,0.5-1.8,1.5-2.5,2.4c-0.8,1.2-1.5,2.5-2,3.8
	c-0.4,1-0.7,1.9-1,2.9c-0.2,0.7-0.1,1.6-0.4,2.3c-0.2,0.5-0.8,0.9-1.3,0.8c-0.7-0.2-1-1-1.5-1.4c-0.8-0.7-2-0.4-2.9,0.1
	c-1.6,0.9-2.7,2.3-3.6,3.9c-0.2,0.4-0.4,1-0.2,1.4c0.1,0.4,0.4,0.6,0.7,0.9c0.3,0.3,0.7,0.7,1,1c0.1,0.1,0.1,0.1,0.2,0.1
	c0.1,0,0.1-0.1,0.2-0.1c0.5-0.5,1.1-1,1.6-1.5c0.3-0.3,0.7-0.6,1.2-0.7c1.2,0,0.4,1.7,0.9,2.3c0.2,0.2,0.5,0.3,0.8,0.4
	c1.5,0.4,1.7,0.5,2.3,1.8c-0.1,0.1,0.8,1.3,0.7,1.4c0.9,0.2,1.8,0.5,2.7,0.7c1.2,0.3,1.7-1,2.3-1.8c0.1-0.1,0.2-0.3,0.4-0.4
	c0.2-0.1,0.4-0.1,0.6,0c2.3,0.3,4.6,0.7,6.9,1c2,0.3,4,0.1,5.4,1.8c0.7,0.9,1.3,2,2.3,2.7c0.6,0.4,1.2,0.6,1.8,0.7
	c1.7,0.5,3.4,1,5.1,1.5C63.4,46.7,65.2,46.8,64.8,48.9z"/>
</svg>
