<?xml version="1.0" encoding="utf-8"?>
<!-- Generator: Adobe Illustrator 21.0.0, SVG Export Plug-In . SVG Version: 6.00 Build 0)  -->
<svg version="1.1" id="Layer_1" xmlns="http://www.w3.org/2000/svg" xmlns:xlink="http://www.w3.org/1999/xlink" x="0px" y="0px"
	 viewBox="0 0 74 74" style="enable-background:new 0 0 74 74;" xml:space="preserve">
<style type="text/css">
	.st0{fill:#B7B7B7;}
</style>
<path class="st0" d="M73.4,30.2c-1.6-8.7-6.3-16.5-13.2-22C53.5,2.7,44.9-0.2,36.3,0l0,0c-2.1,0-4.1,0.3-6.1,0.6
	C20.6,2.4,12.1,7.9,6.6,16.1c-5.6,8.1-7.6,18-5.8,27.7c1.6,8.7,6.2,16.5,13.2,22c6.7,5.4,15.2,8.3,23.9,8.1c2,0,4.1-0.3,6.1-0.6
	c9.7-1.8,18.1-7.3,23.7-15.5C73.2,49.7,75.2,39.9,73.4,30.2z M65,48.3c-0.1,0.8-0.6,1.5-0.9,2.2c-0.5,1-0.9,2.2-0.9,3.3
	c-0.1,0.6-0.2,1.2-0.3,1.7c-0.4,1.2-1.4,2.1-2,3.1c-0.6,0.8-1.2,1.8-0.9,2.9c0,0.1,0.1,0.2,0,0.4c0,0.2-0.2,0.3-0.3,0.4
	c-1.7,1.3-3.3,2.7-5.2,3.8c-0.8,0.5-1.5,0.8-2.5,0.9c-2.6,0-3.8-2.8-4.3-5c-0.6-2.9-2.6-5.2-4.8-7.2c-2.1-2-5-3.6-5.5-6.5
	c-0.3-1.8,0.3-3.9-0.7-5.5c-0.9-1.4-2.5-1.6-3.9-2.1c-1.6-0.6-3.3-1-4.9-1.4c-3.3-0.8-4.6-1.8-7.3-4c-0.7-0.6-1.4-1.3-2.1-1.9
	C17.9,33,17,33.3,16.9,34s-0.2,1.4,0.3,2c-0.4,0.2-0.9-0.1-1.3-0.4c-3.1-2.5-5.5-6.3-6.2-10.2c-0.3-2.2-0.1-4.6,1.1-6.5
	c0.2-0.2,0.3-0.5,0.4-0.7c0.4-1.2-0.3-2.4,0.4-3.6c0.4-0.8,1.1-1.3,1.7-1.9c2.6-2.4,5.4-4.4,8.5-6.1c2.3-1.2,4.6-1.3,6.9-0.3
	c0.6,0.3,0.3,0.4,0.8,0.8c0.1,0.1,0.3,0.1,0.4,0.1l2.4-0.1c0.2,0,0.4,0.1,0.5,0.2c0.4,0.3,1,0.7,1.5,1.2C35,9,36,8.8,36.4,8
	c0.2-0.3,0.3-0.7,0.4-1.3C37,5.5,36.7,4.2,36.6,3c2.4,0,4.8,0.2,7.1,0.6c0.4,0.1,0.7,0.1,1.1,0.3c1.2,0.7,2,3.2,1.7,4.5
	c-0.2,1.2-1.1,2.1-2,2.8c-1,0.6-0.7,3.2-0.8,4c-0.1,0.9-0.9,1.5-1.7,1.8c-0.8,0.3-1.7,0.4-2.5,0.9c-1,0.5-1.8,1.5-2.4,2.5
	c-0.8,1.2-1.4,2.5-1.9,3.8c-0.4,1-0.7,1.9-0.9,2.9c-0.2,0.7-0.1,1.6-0.4,2.3c-0.2,0.5-0.8,0.9-1.3,0.8c-0.7-0.2-1-1-1.5-1.4
	c-0.8-0.7-2-0.4-2.9,0.2c-1.6,0.9-2.7,2.4-3.5,4c-0.2,0.4-0.4,1-0.2,1.4c0.1,0.4,0.4,0.6,0.7,0.9c0.3,0.3,0.7,0.7,1,1
	c0.1,0.1,0.1,0.1,0.2,0.1c0.1,0,0.1-0.1,0.2-0.1c0.5-0.5,1.1-1,1.6-1.5c0.3-0.3,0.7-0.6,1.2-0.7c1.2,0,0.4,1.7,0.9,2.3
	c0.2,0.2,0.5,0.3,0.8,0.4c1.5,0.4,1.7,0.5,2.3,1.8c-0.1,0.1,0.8,1.3,0.7,1.4c0.9,0.2,1.8,0.5,2.7,0.6c1.2,0.3,1.7-1,2.3-1.8
	c0.1-0.1,0.2-0.3,0.4-0.4s0.4-0.1,0.6,0c2.3,0.3,4.6,0.6,6.9,0.9c2,0.3,4,0,5.4,1.7c0.7,0.9,1.3,2,2.4,2.7c0.6,0.4,1.2,0.6,1.8,0.7
	c1.7,0.5,3.4,0.9,5.1,1.4C63.6,46.1,65.4,46.2,65,48.3z"/>
</svg>
