<?xml version="1.0" encoding="UTF-8"?>
<svg width="12px" height="12px" viewBox="0 0 12 12" version="1.1" xmlns="http://www.w3.org/2000/svg" xmlns:xlink="http://www.w3.org/1999/xlink">
    <!-- Generator: Sketch 42 (36781) - http://www.bohemiancoding.com/sketch -->
    <title>Fill 4</title>
    <desc>Created with Sketch.</desc>
    <defs></defs>
    <g id="Page-1" stroke="none" stroke-width="1" fill="none" fill-rule="evenodd">
        <g id="Artboard-2" transform="translate(-259.000000, -104.000000)" fill="#B7B7B7">
            <path d="M269.5,114.875 L260.5,114.875 C260.292625,114.875 260.125,114.707 260.125,114.5 L260.125,108.875 L261.625,108.875 C261.429625,109.15625 261.363625,109.680875 261.363625,110.013875 C261.363625,112.022 263.00125,113.655875 265.013875,113.655875 C267.0265,113.655875 268.664125,112.022 268.664125,110.013875 C268.664125,109.680875 268.61725,109.164125 268.375,108.875 L269.875,108.875 L269.875,114.5 C269.875,114.707 269.707375,114.875 269.5,114.875 M265.013875,107.71175 C266.2885,107.71175 267.321625,108.742625 267.321625,110.013875 C267.321625,111.2855 266.2885,112.316375 265.013875,112.316375 C263.739625,112.316375 262.7065,111.2855 262.7065,110.013875 C262.7065,108.742625 263.739625,107.71175 265.013875,107.71175 M268,105.5 L269.125,105.5 C269.332375,105.5 269.5,105.668 269.5,105.875 L269.5,107 C269.5,107.207 269.332375,107.375 269.125,107.375 L268,107.375 C267.792625,107.375 267.625,107.207 267.625,107 L267.625,105.875 C267.625,105.668 267.792625,105.5 268,105.5 M269.5735,104 L260.426875,104 C259.638625,104 259,104.637125 259,105.423125 L259,114.576875 C259,115.362875 259.638625,116 260.426875,116 L269.5735,116 C270.361375,116 271,115.362875 271,114.576875 L271,105.423125 C271,104.637125 270.361375,104 269.5735,104" id="Fill-4"></path>
        </g>
    </g>
</svg>