<?xml version="1.0" encoding="utf-8"?>
<!-- Generator: Adobe Illustrator 19.1.0, SVG Export Plug-In . SVG Version: 6.00 Build 0)  -->
<svg version="1.1" xmlns="http://www.w3.org/2000/svg" xmlns:xlink="http://www.w3.org/1999/xlink" x="0px" y="0px"
	 viewBox="0 0 25.5 25.3" style="enable-background:new 0 0 25.5 25.3;" xml:space="preserve">
<style type="text/css">
	.st0{fill:#212121;}
	.st1{fill:#FFFFFF;}
	.st2{fill:none;stroke:#FFFFFF;stroke-width:1.5;stroke-linejoin:round;stroke-miterlimit:10;}
	.st3{fill:none;stroke:#FFFFFF;stroke-width:1.5;stroke-miterlimit:10;}
	.st4{fill:none;stroke:#FFFFFF;stroke-width:1.5;stroke-linecap:round;stroke-miterlimit:10;}
	.st5{fill:none;stroke:#FFFFFF;stroke-width:1.282;stroke-linecap:round;stroke-linejoin:round;stroke-miterlimit:10;}
	.st6{fill:none;stroke:#FFFFFF;stroke-width:1.282;stroke-linejoin:round;stroke-miterlimit:10;}
	.st7{fill:none;stroke:#FFFFFF;stroke-width:1.5;stroke-linecap:round;stroke-linejoin:round;stroke-miterlimit:10;}
	.st8{fill:none;stroke:#231F20;stroke-width:1.3129;stroke-linecap:round;stroke-linejoin:round;stroke-miterlimit:10;}
	.st9{fill:none;stroke:#231F20;stroke-width:1.3129;stroke-miterlimit:10;}
	.st10{fill:none;stroke:#231F20;stroke-width:1.2335;stroke-miterlimit:10;}
	.st11{fill:none;stroke:#221F1F;stroke-width:1.672;stroke-linecap:round;stroke-linejoin:round;stroke-miterlimit:10;}
	.st12{fill:none;stroke:#000000;stroke-width:1.1533;stroke-linecap:round;stroke-linejoin:round;stroke-miterlimit:10;}
	.st13{fill:none;stroke:#000000;stroke-width:1.1464;stroke-linecap:round;stroke-linejoin:round;stroke-miterlimit:10;}
	.st14{stroke:#000000;stroke-width:1.1007;stroke-miterlimit:10;}
	.st15{fill:none;stroke:#000000;stroke-width:1.2615;stroke-linecap:round;stroke-linejoin:round;stroke-miterlimit:10;}
	.st16{fill:none;stroke:#FFFFFF;stroke-width:1.2033;stroke-linecap:round;stroke-linejoin:round;stroke-miterlimit:10;}
	.st17{fill:none;stroke:#000000;stroke-width:1.5;stroke-miterlimit:10;}
	.st18{fill:none;stroke:#000000;stroke-width:1.5;stroke-linecap:round;stroke-linejoin:round;stroke-miterlimit:10;}
	.st19{fill:none;stroke:#000000;stroke-width:1.3496;stroke-miterlimit:10;}
	.st20{fill:none;stroke:#000000;stroke-width:1.5;stroke-linejoin:round;stroke-miterlimit:10;}
	.st21{fill:none;stroke:#000000;stroke-width:1.184;stroke-miterlimit:10;}
	.st22{fill:none;stroke:#000000;stroke-width:1.5;stroke-linejoin:bevel;stroke-miterlimit:10;}
	.st23{fill:none;stroke:#000000;stroke-width:1.388;stroke-linecap:round;stroke-linejoin:round;stroke-miterlimit:10;}
	.st24{fill:none;stroke:#000000;stroke-width:1.388;stroke-linejoin:round;stroke-miterlimit:10;}
</style>
<g id="Layer_3">
</g>
<g id="Layer_1">
</g>
<g id="Layer_2">
	<g id="_x30_OMSJ6.tif_4_">
		<g>
			<path class="st18" d="M12.6,23.6c-0.2-1.7-0.4-4.2-0.5-6c-0.1,0.1-2,1.8-2.1,1.8c-0.1,0-0.2,0-0.2,0c-1.2-1.2-2.4-2.4-3.6-3.6
				C6,15.8,6,15.6,6,15.6c0-0.1,2-1.9,2-2c-1.7-0.2-4-0.4-6.2-0.7c0.8-0.4,1.6-0.8,2.4-1.1c1.5-0.7,2.9-1.4,4.4-2
				C8.9,9.7,9,9.5,9.1,9.4C10.2,7.6,11.5,6,13,4.5c1.4-1.4,3.2-2.4,5.1-3.1c1.2-0.4,5.2-0.8,6.7-0.7c0,1.4-0.2,6.2-1.2,8
				c-0.6,1.3-1.3,2.6-2.3,3.6c-1.6,1.7-3.5,3.1-5.5,4.3c-0.1,0.1-0.2,0.2-0.2,0.3c-0.9,2.2-1.9,4.3-2.8,6.5
				C12.7,23.5,12.6,23.5,12.6,23.6z"/>
			<path class="st22" d="M0.6,24.6c0.9-1.4,1.7-2.8,2.6-4.1c0.2-0.3,0.4-0.6,0.6-1c0.4-0.7,1.2-0.8,1.9-0.5c0.8,0.4,1.1,1.6,0.4,2.3
				c-0.2,0.2-0.5,0.4-0.8,0.5c-1.5,0.9-3.1,1.9-4.6,2.8C0.7,24.6,0.7,24.6,0.6,24.6C0.7,24.6,0.6,24.6,0.6,24.6z"/>
			<g>
				<g>
					<path d="M18.3,6.4c0.1,0,0.4,0,0.6,0.2c0.3,0.3,0.3,0.8,0,1.1C18.6,8,18.4,8,18.3,8c-0.1,0-0.4,0-0.6-0.2
						c-0.2-0.2-0.2-0.4-0.2-0.6c0-0.2,0.1-0.4,0.2-0.6C17.9,6.5,18.1,6.4,18.3,6.4 M18.3,4.9c-0.6,0-1.2,0.2-1.6,0.7
						c-0.9,0.9-0.9,2.4,0,3.3c0.4,0.4,1,0.7,1.6,0.7c0.6,0,1.2-0.2,1.6-0.7c0.9-0.9,0.9-2.4,0-3.3C19.4,5.2,18.9,4.9,18.3,4.9
						L18.3,4.9z"/>
				</g>
			</g>
		</g>
	</g>
</g>
</svg>
