<?xml version="1.0" encoding="UTF-8"?>
<svg width="16px" height="12px" viewBox="0 0 16 12" version="1.1" xmlns="http://www.w3.org/2000/svg" xmlns:xlink="http://www.w3.org/1999/xlink">
    <!-- Generator: Sketch 42 (36781) - http://www.bohemiancoding.com/sketch -->
    <title>Fill 1</title>
    <desc>Created with Sketch.</desc>
    <defs></defs>
    <g id="Page-1" stroke="none" stroke-width="1" fill="none" fill-rule="evenodd">
        <g id="Artboard-2" transform="translate(-197.000000, -104.000000)" fill="#B7B7B7">
            <path d="M212.177594,105.420342 C211.634468,105.661219 211.050272,105.824111 210.437467,105.897481 C211.063193,105.522323 211.543562,104.928898 211.769672,104.221496 C211.184554,104.568506 210.535756,104.820458 209.845889,104.956585 C209.293072,104.367775 208.505839,104 207.634622,104 C205.961405,104 204.605204,105.356201 204.605204,107.029417 C204.605204,107.266603 204.631968,107.497789 204.683651,107.719746 C202.165519,107.593309 199.933487,106.387079 198.439313,104.554201 C198.178594,105.001807 198.029084,105.522323 198.029084,106.077447 C198.029084,107.128168 198.563904,108.055682 199.376517,108.598808 C198.879997,108.583119 198.41301,108.446991 198.004627,108.219958 C198.004166,108.232878 198.004166,108.245337 198.004166,108.258258 C198.004166,109.72613 199.048427,110.950356 200.434622,111.22861 C200.180363,111.297827 199.912722,111.334743 199.636314,111.334743 C199.44112,111.334743 199.251464,111.315824 199.066423,111.280754 C199.451734,112.484215 200.570749,113.360046 201.896494,113.384503 C200.859617,114.197116 199.553253,114.681177 198.133833,114.681177 C197.889265,114.681177 197.648388,114.666872 197.411203,114.639185 C198.751714,115.498404 200.344177,116 202.055233,116 C207.6277,116 210.674652,111.383657 210.674652,107.380581 C210.674652,107.249067 210.671884,107.118477 210.665885,106.988348 C211.257925,106.561507 211.771518,106.028072 212.177594,105.420342" id="Fill-1"></path>
        </g>
    </g>
</svg>