<?xml version="1.0" encoding="UTF-8"?>
<svg width="16px" height="12px" viewBox="0 0 16 12" version="1.1" xmlns="http://www.w3.org/2000/svg" xmlns:xlink="http://www.w3.org/1999/xlink">
    <!-- Generator: Sketch 42 (36781) - http://www.bohemiancoding.com/sketch -->
    <title>Fill 25</title>
    <desc>Created with Sketch.</desc>
    <defs></defs>
    <g id="Page-1" stroke="none" stroke-width="1" fill="none" fill-rule="evenodd">
        <g id="Artboard-2" transform="translate(-164.000000, -104.000000)" fill="#B7B7B7">
            <path d="M170.348,112.212912 L170.3475,107.419203 L174.6705,109.824321 L170.348,112.212912 Z M179.84,106.588528 C179.84,106.588528 179.6835,105.412894 179.204,104.895188 C178.5955,104.2154 177.9135,104.212201 177.601,104.172746 C175.362,104 172.0035,104 172.0035,104 L171.9965,104 C171.9965,104 168.638,104 166.399,104.172746 C166.086,104.212201 165.4045,104.2154 164.7955,104.895188 C164.316,105.412894 164.16,106.588528 164.16,106.588528 C164.16,106.588528 164,107.969432 164,109.349802 L164,110.644333 C164,112.025237 164.16,113.405607 164.16,113.405607 C164.16,113.405607 164.316,114.581241 164.7955,115.098947 C165.4045,115.778736 166.204,115.757409 166.56,115.82832 C167.84,115.959479 172,116 172,116 C172,116 175.362,115.994668 177.601,115.821922 C177.9135,115.781935 178.5955,115.778736 179.204,115.098947 C179.6835,114.581241 179.84,113.405607 179.84,113.405607 C179.84,113.405607 180,112.025237 180,110.644333 L180,109.349802 C180,107.969432 179.84,106.588528 179.84,106.588528 L179.84,106.588528 Z" id="Fill-25"></path>
        </g>
    </g>
</svg>