<?xml version="1.0" encoding="utf-8"?>
<!-- Generator: Adobe Illustrator 21.0.0, SVG Export Plug-In . SVG Version: 6.00 Build 0)  -->
<svg version="1.1" id="Layer_1" xmlns="http://www.w3.org/2000/svg" xmlns:xlink="http://www.w3.org/1999/xlink" x="0px" y="0px"
	 viewBox="0 0 34 8" enable-background="new 0 0 34 8" xml:space="preserve">
<path fill="#EE3040" d="M8.834,3.126h1.703v0.154h-0.514v2.612c0,0.587,0.477,0.733,0.844,0.703
	c0.291-0.023,0.835-0.116,0.835-0.806V3.281h-0.495V3.126h1.241v0.154h-0.462v2.478c0,0.876-0.585,1.101-1.288,1.113
	c-0.896,0.014-1.41-0.17-1.41-1.01V3.281H8.834V3.126z M12.879,5.568h0.162c0.024,0.525,0.411,1.118,1.019,1.118
	c0.372,0,0.726-0.165,0.726-0.608c0-0.912-1.858-0.613-1.858-1.906c0-0.783,0.589-1.107,1.104-1.107
	c0.278,0,0.543,0.051,0.972,0.227v0.881h-0.142c-0.089-0.505-0.429-0.922-0.91-0.922c-0.307,0-0.533,0.227-0.533,0.561
	c0,0.809,1.821,0.505,1.821,1.937c0,0.664-0.538,1.123-1.222,1.123c-0.372,0-0.771-0.078-1.139-0.242V5.568z M15.271,6.594
	c0,0.154,0.125,0.278,0.278,0.278c0.154,0,0.278-0.124,0.278-0.278c0-0.154-0.124-0.278-0.278-0.278
	C15.395,6.316,15.271,6.44,15.271,6.594z M12.061,6.594c0,0.154,0.125,0.278,0.278,0.278c0.154,0,0.278-0.124,0.278-0.278
	c0-0.154-0.124-0.278-0.278-0.278C12.186,6.316,12.061,6.44,12.061,6.594z"/>
<path fill="#0065A4" d="M6.997,2.799C6.156,2.63,5.027,2.53,4.08,2.544c0.379-0.712,0.883-1.408,1.36-1.832L5.317,0.611
	c0,0-1.221,0.742-2.101,2.72l0.399,0.134C3.707,3.253,3.829,3.04,3.932,2.83c0.856-0.018,2.07,0.079,3.123,0.28
	c-1.15,0.197-3.256,0.733-4.476,3.403c0,0,0.213-1.314,0.802-2.482c0.129,0.05,0.396,0.164,0.396,0.164l0.315-0.272
	c-0.826-0.398-1.76-0.64-2.763-0.77c0,0,0.668-0.21,1.845-0.293l0.169-0.289C1.471,2.648,0.028,3.18,0.31,3.261
	C0.628,3.352,1.564,3.398,2.9,3.856c-0.829,1.81-0.97,3.908-0.665,4.08c0.306,0.171,0.995-2.205,2.387-3.313
	c0,0,1.231,0.608,2.231,1.6C6.89,6.179,6.939,6.147,6.995,6.128c-0.553-0.726-1.317-1.394-2.024-1.75
	c0.516-0.359,1.49-0.735,2.426-0.936C7.765,3.363,8.579,3.118,6.997,2.799z"/>
<ellipse transform="matrix(0.0035 -1 1 0.0035 0.61 13.8008)" fill="#EE3040" cx="7.229" cy="6.594" rx="0.278" ry="0.278"/>
<ellipse transform="matrix(0.0035 -1 1 0.0035 5.44 6.0469)" fill="#EE3040" cx="5.754" cy="0.294" rx="0.278" ry="0.278"/>
<path fill="#0065A4" d="M19.587,4.409h-0.141c-0.043-0.639-0.514-1.19-1.062-1.19c-0.924,0-1.029,1.036-1.029,1.746
	c0,0.649,0.057,1.751,0.995,1.751c0.557,0,1.057-0.561,1.118-1.185h0.142v1.04c-0.354,0.16-0.863,0.299-1.279,0.299
	c-1.08,0-1.769-0.793-1.769-1.906c0-1.108,0.689-1.901,1.769-1.901c0.415,0,0.812,0.113,1.255,0.299V4.409z M20.576,5.418V5.64
	c0,0.459,0.075,1.015,0.613,1.015c0.396,0,0.646-0.247,0.802-0.618l0.127,0.063c-0.189,0.515-0.566,0.773-1.052,0.773
	c-0.732,0-1.227-0.516-1.227-1.324c0-0.763,0.505-1.324,1.227-1.324c0.613,0,1.094,0.433,1.094,1.195H20.576z M21.425,5.264V5.027
	c0-0.293-0.066-0.649-0.387-0.649c-0.439,0-0.449,0.556-0.462,0.886H21.425z M24.515,6.654V3.116h-1.019v0.165h0.34v3.374h-0.661
	V3.116h-1.019v0.165h0.34v3.374h-0.34v0.155h2.699V6.654H24.515z M29.1,6.809V6.654h-0.34V3.116h-1.019v0.165h0.34v3.374h-0.657
	V4.275h-1.019V4.44h0.34V5.8c0,0.551-0.221,0.824-0.523,0.824c-0.194,0-0.368-0.052-0.368-0.448V4.275h-1.019V4.44h0.34v1.581
	c0,0.664,0.335,0.85,0.811,0.85c0.292,0,0.589-0.139,0.75-0.423h0.009v0.36H29.1z M32.992,6.809V6.654h-0.34V5.568
	c0-0.402,0.109-1.097,0.382-1.097c0.067,0,0.09,0.041,0.09,0.103c0,0.078-0.01,0.093-0.01,0.242c0,0.17,0.104,0.273,0.288,0.273
	c0.213,0,0.307-0.134,0.307-0.345c0-0.294-0.155-0.521-0.453-0.521c-0.264,0-0.5,0.186-0.594,0.448h-0.01V4.275h-1.019V4.44h0.34
	v2.215h-0.325c-0.287,0-0.334-0.103-0.334-0.433V5.001c0-0.701-0.472-0.778-1.104-0.778c-0.335,0-0.897,0.114-0.897,0.561
	c0,0.222,0.118,0.279,0.26,0.279c0.528,0,0.005-0.685,0.646-0.685c0.345,0,0.415,0.17,0.415,0.407v0.32
	c-0.122,0.057-0.363,0.129-0.472,0.155c-0.575,0.124-1.01,0.175-1.01,0.793c0,0.5,0.246,0.819,0.722,0.819
	c0.302,0,0.66-0.078,0.764-0.402h0.009c0.047,0.304,0.189,0.34,0.472,0.34H32.992z M30.633,5.702c0,0.299-0.005,0.922-0.453,0.922
	c-0.264,0-0.349-0.232-0.349-0.494c0-0.464,0.141-0.613,0.396-0.711l0.405-0.159V5.702z M33.113,6.589
	c0,0.121,0.093,0.219,0.208,0.219c0.115,0,0.208-0.098,0.208-0.219c0-0.121-0.093-0.22-0.208-0.22
	C33.206,6.37,33.113,6.468,33.113,6.589z M33.161,6.589c0-0.098,0.066-0.173,0.161-0.173c0.092,0,0.16,0.076,0.16,0.173
	c0,0.098-0.065,0.173-0.16,0.173C33.226,6.763,33.161,6.687,33.161,6.589z M33.226,6.704h0.101V6.69
	c-0.025,0-0.025-0.003-0.025-0.022V6.603h0.014c0.025,0.042,0.046,0.101,0.064,0.101h0.052V6.69
	c-0.011-0.007-0.024-0.026-0.036-0.043L33.36,6.596c0.028-0.009,0.045-0.036,0.045-0.062c0-0.041-0.029-0.06-0.065-0.06h-0.115v0.01
	c0.024,0,0.024,0.007,0.024,0.026v0.158c0,0.019,0,0.022-0.024,0.022V6.704z M33.301,6.489h0.02c0.019,0,0.03,0.012,0.03,0.047
	c0,0.025-0.006,0.053-0.032,0.053h-0.018V6.489z"/>
</svg>
