<svg id="Layer_1" data-name="Layer 1" xmlns="http://www.w3.org/2000/svg" viewBox="0 0 142.25 26.35"><defs><style>.cls-1,.cls-4{isolation:isolate;}.cls-2,.cls-3{fill:#fff;}.cls-3{stroke:#fff;stroke-width:0.7px;}.cls-4{opacity:0.36;}</style></defs><title>brand-full</title><g class="cls-1"><path class="cls-2" d="M45.94,10.58a4.82,4.82,0,0,1,3.12,1.09V7.23A.9.9,0,0,1,50,6.31a.92.92,0,0,1,.66.26.88.88,0,0,1,.27.66v8.32a4.76,4.76,0,0,1-1.46,3.52A5,5,0,0,1,41,15.55a5,5,0,0,1,5-5Zm3.12,5a3,3,0,0,0-.24-1.2,3.21,3.21,0,0,0-.67-1,3.17,3.17,0,0,0-1-.67,3.12,3.12,0,0,0-2.44,0,3.12,3.12,0,0,0-1.65,1.66,3.12,3.12,0,0,0,0,2.42,3.13,3.13,0,0,0,1.65,1.66,3.13,3.13,0,0,0,2.44,0,3.15,3.15,0,0,0,1-.68,3.23,3.23,0,0,0,.67-1A3,3,0,0,0,49.05,15.55Z" transform="translate(-0.94)"/><path class="cls-2" d="M62.29,15.55a4.76,4.76,0,0,1-1.46,3.52,5,5,0,0,1-8.5-3.52A5,5,0,0,1,60.83,12a4.9,4.9,0,0,1,1.09,1.61A5.12,5.12,0,0,1,62.29,15.55Zm-5-3.12a3,3,0,0,0-1.23.25,3.12,3.12,0,0,0-1.65,1.66,3.12,3.12,0,0,0,0,2.42,3.13,3.13,0,0,0,1.65,1.66,3.13,3.13,0,0,0,2.44,0,3.15,3.15,0,0,0,1-.68,3.23,3.23,0,0,0,.67-1,3.09,3.09,0,0,0,0-2.41,3.21,3.21,0,0,0-.67-1,3.17,3.17,0,0,0-1-.67A3,3,0,0,0,57.31,12.43Z" transform="translate(-0.94)"/><path class="cls-2" d="M71.28,17.71a.9.9,0,0,1,.92.92.94.94,0,0,1-.29.68,5,5,0,0,1-8.22-3.77,5,5,0,0,1,5-5,4.74,4.74,0,0,1,3.24,1.21.9.9,0,0,1,.32.7.92.92,0,0,1-.26.67.89.89,0,0,1-.66.27,1,1,0,0,1-.6-.21,3.42,3.42,0,0,0-1-.58,3,3,0,0,0-1.08-.2,3,3,0,0,0-1.22.24,3.2,3.2,0,0,0-1,.67,3.09,3.09,0,0,0-.67,1,3.15,3.15,0,0,0,0,2.44,3.09,3.09,0,0,0,.67,1,3.18,3.18,0,0,0,1,.67,3,3,0,0,0,1.22.24,3,3,0,0,0,1.08-.19,3.22,3.22,0,0,0,.94-.57A1,1,0,0,1,71.28,17.71Z" transform="translate(-0.94)"/><path class="cls-2" d="M73.64,19.6V7.24a.93.93,0,1,1,1.86,0v6.93l5.31-3.46a.91.91,0,0,1,.5-.14.92.92,0,0,1,.36.07.87.87,0,0,1,.29.2,1,1,0,0,1,.2.3.87.87,0,0,1,.08.36.83.83,0,0,1-.36.74l-3.72,2.42L82,19a.94.94,0,0,1,.26.65.87.87,0,0,1-.08.36,1,1,0,0,1-.2.3.87.87,0,0,1-.29.2.94.94,0,0,1-.36.07.86.86,0,0,1-.62-.24l-4.11-4.61-1.08.71V19.6a.9.9,0,0,1-.27.66.88.88,0,0,1-.65.28.89.89,0,0,1-.66-.28A.9.9,0,0,1,73.64,19.6Z" transform="translate(-0.94)"/><path class="cls-2" d="M90.62,17.73a.9.9,0,0,1,.92.92.92.92,0,0,1-.27.67A5,5,0,0,1,83,15.55,5,5,0,0,1,91.54,12a4.85,4.85,0,0,1,1.09,1.6A5,5,0,0,1,93,15.55a.88.88,0,0,1-.27.66.91.91,0,0,1-.66.26H85a3,3,0,0,0,.44.89,3.13,3.13,0,0,0,.69.69,3.18,3.18,0,0,0,.87.45,3.06,3.06,0,0,0,1,.16,3.1,3.1,0,0,0,1.08-.18A2.9,2.9,0,0,0,90,18,1,1,0,0,1,90.62,17.73Zm.4-3.1a3,3,0,0,0-.45-.89A3.16,3.16,0,0,0,89,12.59a3,3,0,0,0-1-.16,3.08,3.08,0,0,0-1,.16,3.25,3.25,0,0,0-.88.45,3.09,3.09,0,0,0-.69.69,2.88,2.88,0,0,0-.43.89Z" transform="translate(-0.94)"/><path class="cls-2" d="M96.24,11.5v.18a5.09,5.09,0,0,1,1.45-.82,4.85,4.85,0,0,1,1.67-.28,7,7,0,0,1,.84.05,3.66,3.66,0,0,1,.83.19,1.75,1.75,0,0,1,.63.38.83.83,0,0,1,.25.62.87.87,0,0,1-.08.36,1,1,0,0,1-.2.3.88.88,0,0,1-.29.2.94.94,0,0,1-.36.07,1,1,0,0,1-.39-.1,3.29,3.29,0,0,0-1.22-.22,3,3,0,0,0-1.22.24,3.12,3.12,0,0,0-1.66,1.66,3,3,0,0,0-.24,1.22v4.05a.93.93,0,0,1-.92.92.9.9,0,0,1-.66-.27.88.88,0,0,1-.27-.65V11.5a.89.89,0,0,1,.27-.65.9.9,0,0,1,.66-.27.93.93,0,0,1,.92.92Z" transform="translate(-0.94)"/></g><path id="Shape" class="cls-3" d="M33.2,10a5.4,5.4,0,0,0-2.3-3.9l-.5-.4-.4.5a6.18,6.18,0,0,0-.9,3.7,4.65,4.65,0,0,0,.9,2.3,6.33,6.33,0,0,1-3.4.9H1.4C.9,15.8,1.7,26,13.4,26c8.7,0,15.8-3.9,19.1-12.1,1.1,0,3.9.2,5.3-2.5l.4-.7-.5-.4A7.35,7.35,0,0,0,33.2,10Z" transform="translate(-0.94)"/><rect id="Rectangle-3" class="cls-2" x="16.66" width="3.9" height="3.6"/><rect id="Rectangle-3-2" data-name="Rectangle-3" class="cls-2" x="16.66" y="4.3" width="3.9" height="3.6"/><rect id="Rectangle-3-3" data-name="Rectangle-3" class="cls-2" x="12.06" y="4.3" width="3.9" height="3.6"/><rect id="Rectangle-3-4" data-name="Rectangle-3" class="cls-2" x="7.46" y="4.3" width="3.9" height="3.6"/><rect id="Rectangle-3-5" data-name="Rectangle-3" class="cls-2" x="2.86" y="8.5" width="3.9" height="3.6"/><rect id="Rectangle-3-6" data-name="Rectangle-3" class="cls-2" x="7.46" y="8.5" width="3.9" height="3.6"/><rect id="Rectangle-3-7" data-name="Rectangle-3" class="cls-2" x="12.06" y="8.5" width="3.9" height="3.6"/><rect id="Rectangle-3-8" data-name="Rectangle-3" class="cls-2" x="16.66" y="8.5" width="3.9" height="3.6"/><rect id="Rectangle-3-9" data-name="Rectangle-3" class="cls-2" x="21.26" y="8.5" width="3.9" height="3.6"/><g class="cls-4"><path class="cls-2" d="M110.4,12.73a4.41,4.41,0,0,1,2.91-1,4.72,4.72,0,0,1,4.31,2.86,4.66,4.66,0,0,1,.34,1.79,4.44,4.44,0,0,1-1.36,3.29,4.65,4.65,0,0,1-7.94-3.29V8.58a.84.84,0,0,1,.86-.86.86.86,0,0,1,.62.25.82.82,0,0,1,.25.62Zm2.91,6.53a2.81,2.81,0,0,0,1.14-.23A3,3,0,0,0,116,17.48a2.88,2.88,0,0,0,0-2.25,3,3,0,0,0-1.55-1.56,2.92,2.92,0,0,0-2.28,0,2.92,2.92,0,0,0-1.54,1.55,2.9,2.9,0,0,0,0,2.26A2.92,2.92,0,0,0,112.17,19,2.84,2.84,0,0,0,113.31,19.27Z" transform="translate(-0.94)"/><path class="cls-2" d="M119.21,20.14V8.59a.85.85,0,0,1,.25-.62.88.88,0,0,1,1.24,0,.85.85,0,0,1,.25.62V19.27h.4a.83.83,0,0,1,.61.25.84.84,0,0,1,.25.62.86.86,0,0,1-.86.86h-1.27a.82.82,0,0,1-.61-.25A.84.84,0,0,1,119.21,20.14Z" transform="translate(-0.94)"/><path class="cls-2" d="M132.57,16.35a4.44,4.44,0,0,1-1.36,3.29,4.65,4.65,0,0,1-7.94-3.29,4.65,4.65,0,0,1,7.94-3.29,4.57,4.57,0,0,1,1,1.5A4.78,4.78,0,0,1,132.57,16.35Zm-4.65-2.91a2.84,2.84,0,0,0-1.15.23,2.92,2.92,0,0,0-1.54,1.55,2.9,2.9,0,0,0,0,2.26A2.92,2.92,0,0,0,126.78,19a2.92,2.92,0,0,0,2.28,0,3,3,0,0,0,1.55-1.56,2.88,2.88,0,0,0,0-2.25,3,3,0,0,0-1.55-1.56A2.81,2.81,0,0,0,127.92,13.44Z" transform="translate(-0.94)"/><path class="cls-2" d="M141.46,20a4.65,4.65,0,0,1-7.56-3.63,4.65,4.65,0,1,1,9.3,0V21A3.44,3.44,0,0,1,143,22.1a3.65,3.65,0,0,1-.51,1,4.23,4.23,0,0,1-.76.8,4.75,4.75,0,0,1-1,.6,5.34,5.34,0,0,1-1.07.38,4.75,4.75,0,0,1-1.11.13,5,5,0,0,1-1.3-.17A4.88,4.88,0,0,1,135,23.49a5,5,0,0,1-.81-1.1.8.8,0,0,1-.13-.46.83.83,0,0,1,.25-.62.85.85,0,0,1,.62-.25.69.69,0,0,1,.41.12,2.37,2.37,0,0,1,.44.51,4.34,4.34,0,0,0,.5.61,3.24,3.24,0,0,0,4.56,0,2.16,2.16,0,0,0,.57-1.35Zm-2.91-6.54a2.84,2.84,0,0,0-1.15.23,2.92,2.92,0,0,0-1.54,1.55,2.9,2.9,0,0,0,0,2.26A2.92,2.92,0,0,0,137.4,19a2.92,2.92,0,0,0,2.28,0,3,3,0,0,0,1.55-1.56,2.88,2.88,0,0,0,0-2.25,3,3,0,0,0-1.55-1.56A2.81,2.81,0,0,0,138.55,13.44Z" transform="translate(-0.94)"/></g></svg>