<?xml version="1.0" encoding="UTF-8"?>
<svg width="261px" height="85px" viewBox="0 0 261 85" version="1.1" xmlns="http://www.w3.org/2000/svg" xmlns:xlink="http://www.w3.org/1999/xlink">
    <!-- Generator: Sketch 46.1 (44463) - http://www.bohemiancoding.com/sketch -->
    <title>dockercon-cta-livestream</title>
    <desc>Created with Sketch.</desc>
    <defs>
        <polygon id="path-1" points="-8.52651283e-14 0 262 4 262 49 21.3837891 48.8623047"></polygon>
    </defs>
    <g id="Page-1" stroke="none" stroke-width="1" fill="none" fill-rule="evenodd">
        <g id="dockercon-cta-livestream" transform="translate(-1.000000, 0.000000)">
            <g id="Group-3" transform="translate(0.000000, 37.000000)">
                <mask id="mask-2" fill="white">
                    <use xlink:href="#path-1"></use>
                </mask>
                <g id="Mask"></g>
                <g mask="url(#mask-2)">
                    <g transform="translate(-117.000000, 6.000000)">
                        <polygon id="Rectangle-15" fill="#6CDBFF" points="426.184898 0 448.290479 12 10.0798373 12 0.977539062 0"></polygon>
                        <polygon id="Rectangle-15-Copy" fill="#F27D52" points="437.887852 15 459.993434 27 23.0831204 27 12.6804939 15"></polygon>
                        <polygon id="Rectangle-15-Copy-2" fill="#FAAC18" points="470.39606 30 486 42 33.4857469 42 24.3834487 30"></polygon>
                    </g>
                </g>
            </g>
            <path d="M21.5761719,14.0117188 L21.8222656,14.0117188 C22.6881554,14.1940113 23.1210938,14.6087207 23.1210938,15.2558594 L23.1210938,25.4824219 L23.1757812,27.2324219 C23.1757812,28.6725332 22.5924538,30.1718672 21.4257812,31.7304688 C19.7760334,33.516936 17.916677,34.4101562 15.8476562,34.4101562 L15.4375,34.4101562 C13.4140524,34.4101562 11.536467,33.4668063 9.8046875,31.5800781 C8.73827592,30.0761644 8.20507812,28.5221434 8.20507812,26.9179688 C8.20507812,24.4934775 9.2805882,22.4563885 11.4316406,20.8066406 C12.798835,19.8951777 14.2206957,19.4394531 15.6972656,19.4394531 C17.5931084,19.4394531 19.1425721,19.9772082 20.3457031,21.0527344 L20.3457031,16.1445312 L20.2910156,15.2558594 C20.5553399,14.4264281 20.983721,14.0117188 21.5761719,14.0117188 Z M11.0351562,26.7675781 L11.0351562,27.0273438 C11.0351562,28.9596451 12.0514221,30.3997348 14.0839844,31.3476562 C14.6126329,31.5026049 15.0957009,31.5800781 15.5332031,31.5800781 L15.8476562,31.5800781 C17.7252698,31.5800781 19.1471306,30.5683695 20.1132812,28.5449219 C20.2682299,27.9342417 20.3457031,27.4648454 20.3457031,27.1367188 L20.3457031,26.8222656 C20.3457031,24.8990789 19.3157655,23.4589892 17.2558594,22.5019531 C16.62695,22.3470044 16.1393246,22.2695312 15.7929688,22.2695312 L15.5878906,22.2695312 C13.7102771,22.2695312 12.2884163,23.2675681 11.3222656,25.2636719 C11.1308584,25.8196642 11.0351562,26.3209613 11.0351562,26.7675781 Z M31.515625,19.671875 C33.4205824,19.671875 35.1432215,20.3919199 36.6835938,21.8320312 C38.151049,23.3724035 38.8847656,25.1087143 38.8847656,27.0410156 C38.8847656,29.8027482 37.5813932,31.9719973 34.9746094,33.5488281 C33.8352808,34.1230497 32.7324272,34.4101562 31.6660156,34.4101562 L31.2558594,34.4101562 C29.2688703,34.4101562 27.4231856,33.480478 25.71875,31.6210938 C24.6705677,30.1445239 24.1464844,28.6178464 24.1464844,27.0410156 C24.1464844,24.6438682 25.2037655,22.6386799 27.3183594,21.0253906 C28.6673245,20.1230424 30.066399,19.671875 31.515625,19.671875 Z M27.0039062,26.890625 L27.0039062,27.1367188 C27.0039062,28.8411544 27.8287678,30.1627557 29.4785156,31.1015625 C30.0618519,31.4023453 30.6907518,31.5527344 31.3652344,31.5527344 L31.6660156,31.5527344 C33.425139,31.5527344 34.7740838,30.6367279 35.7128906,28.8046875 C35.9225271,28.2395805 36.0273438,27.6835965 36.0273438,27.1367188 L36.0273438,26.890625 C36.0273438,25.4778575 35.3756576,24.283859 34.0722656,23.3085938 C33.3157514,22.7890599 32.4453174,22.5292969 31.4609375,22.5292969 C29.5377508,22.5292969 28.1250045,23.5410055 27.2226562,25.5644531 C27.0768222,26.0384138 27.0039062,26.4804667 27.0039062,26.890625 Z M46.7597656,19.5625 C48.6738377,19.5625 50.4238202,20.2916594 52.0097656,21.75 C52.1647143,22.0325535 52.2421875,22.2923165 52.2421875,22.5292969 L52.2421875,22.625 C52.0781242,23.5182336 51.6178423,23.9648438 50.8613281,23.9648438 L50.8066406,23.9648438 C50.4693994,23.9648438 49.8496139,23.6230503 48.9472656,22.9394531 C48.2727831,22.5930972 47.5937534,22.4199219 46.9101562,22.4199219 L46.609375,22.4199219 C44.7955638,22.4199219 43.4192755,23.3769436 42.4804688,25.2910156 C42.2617177,25.9381543 42.1523438,26.5214818 42.1523438,27.0410156 C42.1523438,28.8912853 43.1139227,30.2994743 45.0371094,31.265625 C45.6022164,31.4843761 46.2128873,31.59375 46.8691406,31.59375 C47.9446668,31.59375 49.0384059,31.1243537 50.1503906,30.1855469 L50.7109375,30.0625 L50.9160156,30.0625 C51.6451859,30.0625 52.0872388,30.5091101 52.2421875,31.4023438 L52.2421875,31.484375 C52.2421875,32.3776086 51.048189,33.2799434 48.6601562,34.1914062 C47.8762982,34.3372403 47.2929707,34.4101562 46.9101562,34.4101562 L46.5,34.4101562 C44.4947816,34.4101562 42.6354252,33.4713636 40.921875,31.59375 C39.864578,30.1080655 39.3359375,28.5722736 39.3359375,26.9863281 C39.3359375,24.5709515 40.4023331,22.5475342 42.5351562,20.9160156 C43.893236,20.0136674 45.301425,19.5625 46.7597656,19.5625 Z M58.640625,26.9179688 L56.9316406,28.0117188 L56.9316406,33.0703125 C56.9316406,33.8085974 56.475916,34.2552076 55.5644531,34.4101562 L55.4824219,34.4101562 C54.7805954,34.4101562 54.3157563,33.9817751 54.0878906,33.125 L54.0878906,15.3242188 C54.2792978,14.4218705 54.707679,13.9707031 55.3730469,13.9707031 L55.6191406,13.9707031 C56.494145,14.1621103 56.9316406,14.5768197 56.9316406,15.2148438 L56.9316406,24.6484375 C61.3886942,21.6952977 64.0592404,19.9681015 64.9433594,19.4667969 L65.3125,19.4667969 C66.0963581,19.4667969 66.5611972,19.9544222 66.7070312,20.9296875 C66.7070312,21.531253 66.0872458,22.160153 64.8476562,22.8164062 C62.815094,24.1927152 61.5572941,25.0540347 61.0742188,25.4003906 L66.625,32.4277344 L66.7070312,32.8789062 L66.7070312,33.0019531 C66.5429679,33.9043014 66.0781288,34.3554688 65.3125,34.3554688 L65.2167969,34.3554688 C64.6699191,34.3554688 63.9544315,33.7174543 63.0703125,32.4414062 L58.640625,26.9179688 Z M74.8417969,19.5761719 C77.6946757,19.5761719 79.9094973,20.929674 81.4863281,23.6367188 C82.0332059,24.7031303 82.3066406,25.8561136 82.3066406,27.0957031 L82.3066406,27.3964844 C82.1425773,28.3261765 81.6822954,28.7910156 80.9257812,28.7910156 L70.6855469,28.7910156 C70.9498711,29.6933639 71.6927022,30.472653 72.9140625,31.1289062 C73.6341182,31.4023451 74.3085906,31.5390625 74.9375,31.5390625 C75.6666703,31.5390625 76.5416616,31.2838567 77.5625,30.7734375 L78,30.7734375 C78.8567751,30.9375008 79.2851562,31.3841109 79.2851562,32.1132812 L79.2851562,32.2636719 C79.2851562,33.3391981 77.9316542,34.0546857 75.2246094,34.4101562 L74.8417969,34.4101562 C72.1803252,34.4101562 70.0475341,33.1660281 68.4433594,30.6777344 C67.7962207,29.5019472 67.4726562,28.2714908 67.4726562,26.9863281 C67.4726562,24.2701687 68.7532424,22.1100341 71.3144531,20.5058594 C72.5631573,19.8860646 73.7389268,19.5761719 74.8417969,19.5761719 Z M70.4394531,25.9746094 L79.3945312,25.9746094 C79.3945312,25.6373681 79.0162798,24.9583384 78.2597656,23.9375 C77.2389272,22.9713493 76.236333,22.4882812 75.2519531,22.4882812 L74.6914062,22.4882812 C73.1966071,22.4882812 71.9661507,23.2265551 71,24.703125 C70.6627587,25.2864613 70.4759116,25.7102851 70.4394531,25.9746094 Z M85.7929688,19.4941406 C86.6862024,19.7220063 87.1328125,20.1503875 87.1328125,20.7792969 L87.1328125,20.9980469 C88.2630265,19.9954377 89.735017,19.4941406 91.5488281,19.4941406 C92.5240934,19.4941406 93.5813745,19.7402319 94.7207031,20.2324219 C95.1126322,20.6334655 95.3085938,21.0208315 95.3085938,21.3945312 L95.3085938,21.4902344 C95.1536451,22.383468 94.6933632,22.8300781 93.9277344,22.8300781 L93.8046875,22.8300781 C92.8658807,22.5292954 92.1822938,22.3789062 91.7539062,22.3789062 L91.453125,22.3789062 C89.61197,22.3789062 88.2630251,23.3359279 87.40625,25.25 C87.2239574,25.7513046 87.1328125,26.3346321 87.1328125,27 L87.1328125,33.0703125 C87.1328125,33.8085974 86.6770879,34.2552076 85.765625,34.4101562 L85.6835938,34.4101562 C84.9361942,34.4101562 84.4759123,33.9453171 84.3027344,33.015625 L84.3027344,21.0664062 C84.4121099,20.0182239 84.9088497,19.4941406 85.7929688,19.4941406 Z M103.019531,19.5625 C104.933603,19.5625 106.683586,20.2916594 108.269531,21.75 C108.42448,22.0325535 108.501953,22.2923165 108.501953,22.5292969 L108.501953,22.625 C108.33789,23.5182336 107.877608,23.9648438 107.121094,23.9648438 L107.066406,23.9648438 C106.729165,23.9648438 106.10938,23.6230503 105.207031,22.9394531 C104.532549,22.5930972 103.853519,22.4199219 103.169922,22.4199219 L102.869141,22.4199219 C101.055329,22.4199219 99.6790412,23.3769436 98.7402344,25.2910156 C98.5214833,25.9381543 98.4121094,26.5214818 98.4121094,27.0410156 C98.4121094,28.8912853 99.3736883,30.2994743 101.296875,31.265625 C101.861982,31.4843761 102.472653,31.59375 103.128906,31.59375 C104.204432,31.59375 105.298172,31.1243537 106.410156,30.1855469 L106.970703,30.0625 L107.175781,30.0625 C107.904952,30.0625 108.347004,30.5091101 108.501953,31.4023438 L108.501953,31.484375 C108.501953,32.3776086 107.307955,33.2799434 104.919922,34.1914062 C104.136064,34.3372403 103.552736,34.4101562 103.169922,34.4101562 L102.759766,34.4101562 C100.754547,34.4101562 98.8951909,33.4713636 97.1816406,31.59375 C96.1243437,30.1080655 95.5957031,28.5722736 95.5957031,26.9863281 C95.5957031,24.5709515 96.6620987,22.5475342 98.7949219,20.9160156 C100.153002,20.0136674 101.561191,19.5625 103.019531,19.5625 Z M116.664062,19.671875 C118.56902,19.671875 120.291659,20.3919199 121.832031,21.8320312 C123.299487,23.3724035 124.033203,25.1087143 124.033203,27.0410156 C124.033203,29.8027482 122.729831,31.9719973 120.123047,33.5488281 C118.983718,34.1230497 117.880865,34.4101562 116.814453,34.4101562 L116.404297,34.4101562 C114.417308,34.4101562 112.571623,33.480478 110.867188,31.6210938 C109.819005,30.1445239 109.294922,28.6178464 109.294922,27.0410156 C109.294922,24.6438682 110.352203,22.6386799 112.466797,21.0253906 C113.815762,20.1230424 115.214837,19.671875 116.664062,19.671875 Z M112.152344,26.890625 L112.152344,27.1367188 C112.152344,28.8411544 112.977205,30.1627557 114.626953,31.1015625 C115.210289,31.4023453 115.839189,31.5527344 116.513672,31.5527344 L116.814453,31.5527344 C118.573577,31.5527344 119.922521,30.6367279 120.861328,28.8046875 C121.070965,28.2395805 121.175781,27.6835965 121.175781,27.1367188 L121.175781,26.890625 C121.175781,25.4778575 120.524095,24.283859 119.220703,23.3085938 C118.464189,22.7890599 117.593755,22.5292969 116.609375,22.5292969 C114.686188,22.5292969 113.273442,23.5410055 112.371094,25.5644531 C112.22526,26.0384138 112.152344,26.4804667 112.152344,26.890625 Z M127.041016,19.6035156 C127.925135,19.8313813 128.367188,20.2597625 128.367188,20.8886719 L128.367188,21.09375 C129.460943,20.1002554 130.937491,19.6035156 132.796875,19.6035156 C134.838552,19.6035156 136.647779,20.4511634 138.224609,22.1464844 C139.373053,23.5683665 139.947266,25.0677004 139.947266,26.6445312 L139.947266,33.1386719 C139.947266,33.8131544 139.500656,34.2369783 138.607422,34.4101562 L138.470703,34.4101562 C137.577469,34.2460929 137.130859,33.7858111 137.130859,33.0292969 L137.130859,27.3144531 C137.130859,24.9446496 136.123708,23.3906287 134.109375,22.6523438 C133.617185,22.5247389 133.179689,22.4609375 132.796875,22.4609375 L132.646484,22.4609375 C130.960278,22.4609375 129.652348,23.340486 128.722656,25.0996094 C128.485676,25.6191432 128.367188,26.4941345 128.367188,27.7246094 L128.367188,33.0839844 C128.367188,33.8131547 127.920577,34.2552076 127.027344,34.4101562 L126.931641,34.4101562 C126.184241,34.4101562 125.723959,33.9453171 125.550781,33.015625 L125.550781,21.1621094 C125.660157,20.1230417 126.156897,19.6035156 127.041016,19.6035156 Z M145.375,13.9433594 L145.634766,13.9433594 C146.500655,14.1347666 146.933594,14.567705 146.933594,15.2421875 L146.933594,33.0566406 C146.76953,33.9589889 146.304691,34.4101562 145.539062,34.4101562 L145.443359,34.4101562 C144.541011,34.218749 144.089844,33.7903679 144.089844,33.125 L144.089844,17.3203125 C143.479164,17.5208343 143.009767,17.6210938 142.681641,17.6210938 C142.034502,17.6210938 141.606121,17.1881554 141.396484,16.3222656 L141.396484,16.0078125 C141.396484,15.2786422 142.194002,14.7500016 143.789062,14.421875 L145.375,13.9433594 Z M157.898438,16.8828125 L150.583984,16.8828125 C149.645178,16.7005199 149.175781,16.2083373 149.175781,15.40625 C149.376303,14.5039017 149.804684,14.0527344 150.460938,14.0527344 L160.455078,14.0527344 C161.320968,14.235027 161.753906,14.6451791 161.753906,15.2832031 L161.753906,15.5429688 C161.753906,15.807293 161.562502,16.2265596 161.179688,16.8007812 L151.445312,34.0273438 C151.062498,34.2825534 150.734376,34.4101562 150.460938,34.4101562 L150.378906,34.4101562 C149.476558,34.2460929 149.025391,33.7812538 149.025391,33.015625 L149.025391,32.8105469 C149.134766,32.4095032 152.092419,27.1003115 157.898438,16.8828125 Z" id="dockercon17" fill="#FFFFFF"></path>
            <path d="M1.7109375,13.9941406 C1.30533651,13.9941406 1.06835972,13.7457707 1,13.2490234 C1,12.8707663 1.24836991,12.6451827 1.74511719,12.5722656 C2.6018923,12.5722656 3.16926944,12.1484417 3.44726562,11.3007812 L3.50195312,10.5761719 L3.50195312,4.46484375 C3.50195312,4.08202934 3.74120854,3.85416703 4.21972656,3.78125 C4.67090069,3.86783897 4.89648438,4.09570128 4.89648438,4.46484375 L4.89648438,10.8085938 C4.89648438,12.1530015 4.25846992,13.135088 2.98242188,13.7548828 C2.57226357,13.9007169 2.19173353,13.9804687 1.84082031,13.9941406 L1.7109375,13.9941406 Z M4.17871094,2.05859375 C4.65722896,2.15429735 4.89648438,2.39355277 4.89648438,2.77636719 C4.89648438,3.17741086 4.64583584,3.41666628 4.14453125,3.49414062 C3.71614369,3.37109313 3.50195312,3.15690257 3.50195312,2.8515625 L3.50195312,2.70117188 C3.50195312,2.39127449 3.72753681,2.17708393 4.17871094,2.05859375 Z M9.16894531,3.8359375 C10.121424,3.8359375 10.9827435,4.19595994 11.7529297,4.91601562 C12.4866573,5.68620177 12.8535156,6.55435715 12.8535156,7.52050781 C12.8535156,8.90137409 12.2018294,9.98599866 10.8984375,10.7744141 C10.3287732,11.0615249 9.77734642,11.2050781 9.24414062,11.2050781 L9.0390625,11.2050781 C8.04556795,11.2050781 7.12272562,10.740239 6.27050781,9.81054688 C5.74641665,9.07226193 5.484375,8.30892321 5.484375,7.52050781 C5.484375,6.32193411 6.01301555,5.31933997 7.0703125,4.51269531 C7.74479504,4.06152118 8.44433231,3.8359375 9.16894531,3.8359375 Z M6.91308594,7.4453125 L6.91308594,7.56835938 C6.91308594,8.42057718 7.32551671,9.08137786 8.15039062,9.55078125 C8.44205875,9.70117263 8.75650873,9.77636719 9.09375,9.77636719 L9.24414062,9.77636719 C10.1237023,9.77636719 10.7981747,9.31836396 11.2675781,8.40234375 C11.3723964,8.11979025 11.4248047,7.84179824 11.4248047,7.56835938 L11.4248047,7.4453125 C11.4248047,6.73892876 11.0989616,6.14192952 10.4472656,5.65429688 C10.0690085,5.39452995 9.63379152,5.26464844 9.14160156,5.26464844 C8.18000821,5.26464844 7.47363507,5.77050275 7.02246094,6.78222656 C6.94954391,7.01920691 6.91308594,7.24023335 6.91308594,7.4453125 Z M14.5214844,2.00390625 C14.9726585,2.11783911 15.1982422,2.33202968 15.1982422,2.64648438 L15.1982422,2.796875 C15.1982422,3.15690284 14.9544295,3.37109341 14.4667969,3.43945312 C14.1158837,3.43945312 13.8857427,3.20019771 13.7763672,2.72167969 C13.8720708,2.24316167 14.1204407,2.00390625 14.5214844,2.00390625 Z M14.5214844,3.75390625 C14.9726585,3.86783911 15.1982422,4.08202968 15.1982422,4.39648438 L15.1982422,10.5351562 C15.1982422,10.9042987 14.9703799,11.1276038 14.5146484,11.2050781 L14.4736328,11.2050781 C14.099933,11.2050781 13.8697921,10.9726586 13.7832031,10.5078125 L13.7832031,4.53320312 C13.8378909,4.01366928 14.0839822,3.75390625 14.5214844,3.75390625 Z M17.3037109,3.80175781 C17.7457704,3.91569067 17.9667969,4.12988124 17.9667969,4.44433594 L17.9667969,4.546875 C18.5136746,4.05012772 19.2519485,3.80175781 20.1816406,3.80175781 C21.2024791,3.80175781 22.1070924,4.2255817 22.8955078,5.07324219 C23.4697294,5.78418324 23.7568359,6.53385022 23.7568359,7.32226562 L23.7568359,10.5693359 C23.7568359,10.9065772 23.5335309,11.1184892 23.0869141,11.2050781 L23.0185547,11.2050781 C22.5719379,11.1230465 22.3486328,10.8929055 22.3486328,10.5146484 L22.3486328,7.65722656 C22.3486328,6.4723248 21.8450571,5.69531435 20.8378906,5.32617188 C20.5917956,5.26236947 20.3730478,5.23046875 20.1816406,5.23046875 L20.1064453,5.23046875 C19.2633421,5.23046875 18.6093773,5.670243 18.1445312,6.54980469 C18.0260411,6.80957161 17.9667969,7.24706724 17.9667969,7.86230469 L17.9667969,10.5419922 C17.9667969,10.9065773 17.7434918,11.1276038 17.296875,11.2050781 L17.2490234,11.2050781 C16.8753237,11.2050781 16.6451827,10.9726586 16.5585938,10.5078125 L16.5585938,4.58105469 C16.6132815,4.06152084 16.8616514,3.80175781 17.3037109,3.80175781 Z M33.9765625,10.453125 C33.3339812,10.9544296 32.6253294,11.2050781 31.8505859,11.2050781 L31.6728516,11.2050781 C30.5426376,11.2050781 29.5628297,10.6536513 28.7333984,9.55078125 C28.350584,8.95377306 28.1591797,8.22461368 28.1591797,7.36328125 L28.1591797,4.55371094 C28.2138675,4.03417709 28.4622374,3.77441406 28.9042969,3.77441406 C29.3463564,3.88834692 29.5673828,4.10253749 29.5673828,4.41699219 L29.5673828,7.15820312 C29.5673828,8.25195859 29.8704397,8.98111797 30.4765625,9.34570312 C30.8684915,9.64648588 31.3014299,9.796875 31.7753906,9.796875 C32.6822962,9.796875 33.3681617,9.32747865 33.8330078,8.38867188 C33.9287114,8.08333181 33.9765625,7.7757177 33.9765625,7.46582031 L33.9765625,4.47167969 C34.0677088,4.00683361 34.3138001,3.77441406 34.7148438,3.77441406 C35.1614606,3.87467498 35.3847656,4.10481591 35.3847656,4.46484375 L35.3847656,10.5625 C35.3847656,10.9042986 35.1614606,11.1184892 34.7148438,11.2050781 L34.6464844,11.2050781 C34.1998676,11.1230465 33.9765625,10.8929055 33.9765625,10.5146484 L33.9765625,10.453125 Z M40.6142578,8.76464844 C40.6097005,8.67350215 40.516277,8.6188152 40.3339844,8.60058594 C38.0279833,8.0856094 36.7975268,7.75748769 36.6425781,7.61621094 C36.1731747,7.26074041 35.9384766,6.82096616 35.9384766,6.296875 C35.9384766,5.58593395 36.4352164,4.91146152 37.4287109,4.2734375 C37.9755887,3.98632669 38.5156223,3.84277344 39.0488281,3.84277344 C40.2975323,3.84277344 41.2841761,4.41926507 42.0087891,5.57226562 L42.0361328,5.82519531 L42.0361328,5.86621094 C42.0361328,6.25358267 41.8037133,6.48144497 41.3388672,6.54980469 C41.0289698,6.54980469 40.7418633,6.33105687 40.4775391,5.89355469 C40.0628234,5.4879537 39.5865912,5.28515625 39.0488281,5.28515625 C38.3470017,5.28515625 37.7978535,5.61327797 37.4013672,6.26953125 L37.3876953,6.33789062 C37.3876953,6.42903691 37.5836569,6.49055974 37.9755859,6.52246094 C39.9352312,6.99642164 41.0175771,7.27213503 41.2226562,7.34960938 C41.7832059,7.71875185 42.0634766,8.18586957 42.0634766,8.75097656 L42.0634766,8.77148438 C42.0634766,9.55078515 41.5120498,10.2548797 40.4091797,10.8837891 C39.9306617,11.0979828 39.427086,11.2050781 38.8984375,11.2050781 C37.804682,11.2050781 36.8818397,10.6946666 36.1298828,9.67382812 C36.0341792,9.53710869 35.9863281,9.40494855 35.9863281,9.27734375 L35.9863281,9.12695312 C35.9863281,8.75781065 36.2369767,8.54589871 36.7382812,8.49121094 C36.9798189,8.49121094 37.2646468,8.72590911 37.5927734,9.1953125 C37.9938171,9.56901229 38.4632135,9.75585938 39.0009766,9.75585938 C39.6390006,9.75585938 40.1676411,9.45735976 40.5869141,8.86035156 L40.6142578,8.76464844 Z M47.3339844,2.00390625 C47.7851585,2.11783911 48.0107422,2.33202968 48.0107422,2.64648438 L48.0107422,2.796875 C48.0107422,3.15690284 47.7669295,3.37109341 47.2792969,3.43945312 C46.9283837,3.43945312 46.6982427,3.20019771 46.5888672,2.72167969 C46.6845708,2.24316167 46.9329407,2.00390625 47.3339844,2.00390625 Z M47.3339844,3.75390625 C47.7851585,3.86783911 48.0107422,4.08202968 48.0107422,4.39648438 L48.0107422,10.5351562 C48.0107422,10.9042987 47.7828799,11.1276038 47.3271484,11.2050781 L47.2861328,11.2050781 C46.912433,11.2050781 46.6822921,10.9726586 46.5957031,10.5078125 L46.5957031,4.53320312 C46.6503909,4.01366928 46.8964822,3.75390625 47.3339844,3.75390625 Z M50.1162109,3.80175781 C50.5582704,3.91569067 50.7792969,4.12988124 50.7792969,4.44433594 L50.7792969,4.546875 C51.3261746,4.05012772 52.0644485,3.80175781 52.9941406,3.80175781 C54.0149791,3.80175781 54.9195924,4.2255817 55.7080078,5.07324219 C56.2822294,5.78418324 56.5693359,6.53385022 56.5693359,7.32226562 L56.5693359,10.5693359 C56.5693359,10.9065772 56.3460309,11.1184892 55.8994141,11.2050781 L55.8310547,11.2050781 C55.3844379,11.1230465 55.1611328,10.8929055 55.1611328,10.5146484 L55.1611328,7.65722656 C55.1611328,6.4723248 54.6575571,5.69531435 53.6503906,5.32617188 C53.4042956,5.26236947 53.1855478,5.23046875 52.9941406,5.23046875 L52.9189453,5.23046875 C52.0758421,5.23046875 51.4218773,5.670243 50.9570312,6.54980469 C50.8385411,6.80957161 50.7792969,7.24706724 50.7792969,7.86230469 L50.7792969,10.5419922 C50.7792969,10.9065773 50.5559918,11.1276038 50.109375,11.2050781 L50.0615234,11.2050781 C49.6878237,11.2050781 49.4576827,10.9726586 49.3710938,10.5078125 L49.3710938,4.58105469 C49.4257815,4.06152084 49.6741514,3.80175781 50.1162109,3.80175781 Z M64.2050781,3.78125 C65.1621142,3.78125 66.0371054,4.14582969 66.8300781,4.875 C66.9075525,5.01627675 66.9462891,5.14615826 66.9462891,5.26464844 L66.9462891,5.3125 C66.8642574,5.75911682 66.6341165,5.98242188 66.2558594,5.98242188 L66.2285156,5.98242188 C66.059895,5.98242188 65.7500023,5.81152515 65.2988281,5.46972656 C64.9615869,5.29654861 64.622072,5.20996094 64.2802734,5.20996094 L64.1298828,5.20996094 C63.2229772,5.20996094 62.5348331,5.68847178 62.0654297,6.64550781 C61.9560541,6.96907714 61.9013672,7.26074089 61.9013672,7.52050781 C61.9013672,8.44564265 62.3821567,9.14973717 63.34375,9.6328125 C63.6263035,9.74218805 63.931639,9.796875 64.2597656,9.796875 C64.7975287,9.796875 65.3443983,9.56217683 65.9003906,9.09277344 L66.1806641,9.03125 L66.2832031,9.03125 C66.6477883,9.03125 66.8688147,9.25455506 66.9462891,9.70117188 L66.9462891,9.7421875 C66.9462891,10.1888043 66.3492898,10.6399717 65.1552734,11.0957031 C64.7633444,11.1686202 64.4716806,11.2050781 64.2802734,11.2050781 L64.0751953,11.2050781 C63.0725861,11.2050781 62.1429079,10.7356818 61.2861328,9.796875 C60.7574843,9.05403274 60.4931641,8.28613678 60.4931641,7.49316406 C60.4931641,6.28547573 61.0263619,5.2737671 62.0927734,4.45800781 C62.7718133,4.00683368 63.4759078,3.78125 64.2050781,3.78125 Z M71.0273438,3.8359375 C71.9798225,3.8359375 72.841142,4.19595994 73.6113281,4.91601562 C74.3450558,5.68620177 74.7119141,6.55435715 74.7119141,7.52050781 C74.7119141,8.90137409 74.0602279,9.98599866 72.7568359,10.7744141 C72.1871716,11.0615249 71.6357449,11.2050781 71.1025391,11.2050781 L70.8974609,11.2050781 C69.9039664,11.2050781 68.9811241,10.740239 68.1289062,9.81054688 C67.6048151,9.07226193 67.3427734,8.30892321 67.3427734,7.52050781 C67.3427734,6.32193411 67.871414,5.31933997 68.9287109,4.51269531 C69.6031935,4.06152118 70.3027308,3.8359375 71.0273438,3.8359375 Z M68.7714844,7.4453125 L68.7714844,7.56835938 C68.7714844,8.42057718 69.1839151,9.08137786 70.0087891,9.55078125 C70.3004572,9.70117263 70.6149072,9.77636719 70.9521484,9.77636719 L71.1025391,9.77636719 C71.9821008,9.77636719 72.6565732,9.31836396 73.1259766,8.40234375 C73.2307948,8.11979025 73.2832031,7.84179824 73.2832031,7.56835938 L73.2832031,7.4453125 C73.2832031,6.73892876 72.95736,6.14192952 72.3056641,5.65429688 C71.927407,5.39452995 71.49219,5.26464844 71,5.26464844 C70.0384067,5.26464844 69.3320335,5.77050275 68.8808594,6.78222656 C68.8079423,7.01920691 68.7714844,7.24023335 68.7714844,7.4453125 Z M79.0048828,3.82226562 C79.9573615,3.82226562 80.8164024,4.18000944 81.5820312,4.89550781 C82.3157589,5.66569396 82.6826172,6.53157071 82.6826172,7.49316406 C82.6826172,8.86947303 82.0332096,9.94954035 80.734375,10.7333984 C80.1647107,11.0205092 79.6155625,11.1640625 79.0869141,11.1640625 L78.8818359,11.1640625 C78.0250608,11.1640625 77.3095732,10.9042995 76.7353516,10.3847656 L76.7353516,13.4130859 C76.7353516,13.7366553 76.5052106,13.9485672 76.0449219,14.0488281 C75.6803367,14.0488281 75.4456385,13.8186872 75.3408203,13.3583984 L75.3408203,7.71875 C75.3408203,5.87303765 76.2135329,4.62890946 77.9589844,3.98632812 C78.1822928,3.91341109 78.5309221,3.85872414 79.0048828,3.82226562 Z M76.7626953,7.41796875 L76.7626953,7.54785156 C76.7626953,8.39095474 77.1728475,9.04719817 77.9931641,9.51660156 C78.2848322,9.66699294 78.5992822,9.7421875 78.9365234,9.7421875 L79.0869141,9.7421875 C79.9664758,9.7421875 80.6386696,9.28646289 81.1035156,8.375 C81.2083339,8.0924465 81.2607422,7.81673312 81.2607422,7.54785156 L81.2607422,7.41796875 C81.2607422,6.71614232 80.9371777,6.12142171 80.2900391,5.63378906 C79.9072246,5.37402214 79.4720076,5.24414062 78.984375,5.24414062 C78.027339,5.24414062 77.3255231,5.74999494 76.8789062,6.76171875 C76.8014319,7.00325642 76.7626953,7.22200423 76.7626953,7.41796875 Z M86.6337891,3.78808594 C88.0602285,3.78808594 89.1676393,4.46483698 89.9560547,5.81835938 C90.2294936,6.35156517 90.3662109,6.9280568 90.3662109,7.54785156 L90.3662109,7.69824219 C90.2841793,8.16308826 90.0540383,8.39550781 89.6757812,8.39550781 L84.5556641,8.39550781 C84.6878262,8.84668194 85.0592417,9.23632648 85.6699219,9.56445312 C86.0299497,9.70117256 86.3671859,9.76953125 86.6816406,9.76953125 C87.0462258,9.76953125 87.4837214,9.64192836 87.9941406,9.38671875 L88.2128906,9.38671875 C88.6412782,9.46875041 88.8554688,9.69205547 88.8554688,10.0566406 L88.8554688,10.1318359 C88.8554688,10.669599 88.1787177,11.0273429 86.8251953,11.2050781 L86.6337891,11.2050781 C85.3030532,11.2050781 84.2366577,10.583014 83.4345703,9.33886719 C83.111001,8.75097362 82.9492188,8.1357454 82.9492188,7.49316406 C82.9492188,6.13508436 83.5895118,5.05501703 84.8701172,4.25292969 C85.4944693,3.9430323 86.082354,3.78808594 86.6337891,3.78808594 Z M84.4326172,6.98730469 L88.9101562,6.98730469 C88.9101562,6.81868405 88.7210305,6.47916922 88.3427734,5.96875 C87.8323542,5.48567467 87.3310571,5.24414062 86.8388672,5.24414062 L86.5585938,5.24414062 C85.8111942,5.24414062 85.195966,5.61327756 84.7128906,6.3515625 C84.54427,6.64323062 84.4508464,6.85514257 84.4326172,6.98730469 Z M91.9658203,3.80175781 C92.4078798,3.91569067 92.6289062,4.12988124 92.6289062,4.44433594 L92.6289062,4.546875 C93.175784,4.05012772 93.9140579,3.80175781 94.84375,3.80175781 C95.8645884,3.80175781 96.7692018,4.2255817 97.5576172,5.07324219 C98.1318388,5.78418324 98.4189453,6.53385022 98.4189453,7.32226562 L98.4189453,10.5693359 C98.4189453,10.9065772 98.1956403,11.1184892 97.7490234,11.2050781 L97.6806641,11.2050781 C97.2340472,11.1230465 97.0107422,10.8929055 97.0107422,10.5146484 L97.0107422,7.65722656 C97.0107422,6.4723248 96.5071665,5.69531435 95.5,5.32617188 C95.253905,5.26236947 95.0351572,5.23046875 94.84375,5.23046875 L94.7685547,5.23046875 C93.9254515,5.23046875 93.2714867,5.670243 92.8066406,6.54980469 C92.6881504,6.80957161 92.6289062,7.24706724 92.6289062,7.86230469 L92.6289062,10.5419922 C92.6289062,10.9065773 92.4056012,11.1276038 91.9589844,11.2050781 L91.9111328,11.2050781 C91.537433,11.2050781 91.3072921,10.9726586 91.2207031,10.5078125 L91.2207031,4.58105469 C91.2753909,4.06152084 91.5237608,3.80175781 91.9658203,3.80175781 Z M99.8408203,1.01953125 L99.9638672,1.01953125 C100.396812,1.11067754 100.613281,1.31575361 100.613281,1.63476562 L100.613281,4.34179688 C101.087242,3.93163857 101.725256,3.7265625 102.527344,3.7265625 C103.748704,3.7265625 104.726233,4.30305413 105.459961,5.45605469 C105.737957,5.97103122 105.876953,6.46093518 105.876953,6.92578125 L105.876953,10.5351562 C105.876953,10.9042987 105.649091,11.1276038 105.193359,11.2050781 L105.15918,11.2050781 C104.808266,11.2050781 104.575847,10.9908876 104.461914,10.5625 L104.461914,7.07617188 C104.461914,6.23762602 104.026697,5.63151229 103.15625,5.2578125 C102.951171,5.19856741 102.741538,5.16894531 102.527344,5.16894531 C101.666011,5.16894531 101.057619,5.63150579 100.702148,6.55664062 C100.642903,6.75260515 100.613281,7.08984136 100.613281,7.56835938 L100.613281,10.5351562 C100.613281,10.9042987 100.385419,11.1276038 99.9296875,11.2050781 L99.8955078,11.2050781 C99.5445946,11.2050781 99.312175,10.9908876 99.1982422,10.5625 L99.1982422,1.68945312 C99.2939458,1.24283631 99.5081364,1.01953125 99.8408203,1.01953125 Z M107.797852,7.45214844 L107.797852,7.52734375 C107.797852,8.46159321 108.267248,9.16340911 109.206055,9.6328125 C109.497723,9.74218805 109.759764,9.796875 109.992188,9.796875 L110.19043,9.796875 C110.965173,9.796875 111.605466,9.40723046 112.111328,8.62792969 C112.293621,8.26334453 112.384766,7.91471521 112.384766,7.58203125 L112.384766,7.47949219 C112.384766,6.58170124 111.940434,5.89355708 111.051758,5.41503906 C110.746418,5.27831963 110.427411,5.20996094 110.094727,5.20996094 L110.067383,5.20996094 C109.124019,5.20996094 108.413088,5.70214352 107.93457,6.68652344 C107.843424,6.98730619 107.797852,7.24251197 107.797852,7.45214844 Z M112.391602,10.4257812 C111.835609,10.9453151 111.101893,11.2050781 110.19043,11.2050781 L109.992188,11.2050781 C108.734369,11.2050781 107.686202,10.5761782 106.847656,9.31835938 C106.542316,8.70767924 106.389648,8.09472964 106.389648,7.47949219 C106.389648,6.10318322 107.064121,5.01172278 108.413086,4.20507812 C108.987308,3.93619657 109.547849,3.80175781 110.094727,3.80175781 C111.493822,3.80175781 112.601233,4.48534473 113.416992,5.85253906 C113.667644,6.41308874 113.792969,6.98958037 113.792969,7.58203125 L113.792969,10.5419922 C113.792969,10.9065773 113.569664,11.1276038 113.123047,11.2050781 L113.075195,11.2050781 C112.765298,11.2050781 112.535157,11.0227883 112.384766,10.6582031 L112.384766,10.5830078 L112.391602,10.4257812 Z M118.325195,3.81542969 C119.423508,3.81542969 120.373694,4.2711543 121.175781,5.18261719 C121.731774,5.9436887 122.009766,6.66601221 122.009766,7.34960938 L121.982422,8.2109375 L121.982422,11.2802734 C121.982422,11.9228548 121.513026,12.6041631 120.574219,13.3242188 C119.85872,13.7936221 119.109053,14.0283203 118.325195,14.0283203 C116.985345,14.0283203 115.877934,13.4313211 115.00293,12.2373047 C114.829752,11.9456366 114.743164,11.7382819 114.743164,11.6152344 L114.743164,11.5400391 C114.743164,11.2073551 114.957355,10.9931645 115.385742,10.8974609 L115.481445,10.8974609 C115.805015,10.8974609 116.057942,11.1435522 116.240234,11.6357422 C116.796227,12.3330113 117.491207,12.6816406 118.325195,12.6816406 C119.323247,12.6816406 120.070636,12.2350305 120.567383,11.3417969 L120.608398,11.0683594 L120.608398,10.4052734 C120.047849,10.9248073 119.311854,11.1845703 118.400391,11.1845703 L118.195312,11.1845703 C117.201818,11.1845703 116.278976,10.7197312 115.426758,9.79003906 C114.902667,9.05175412 114.640625,8.2884154 114.640625,7.5 C114.640625,6.3014263 115.169266,5.29883216 116.226562,4.4921875 C116.901045,4.04101337 117.600582,3.81542969 118.325195,3.81542969 Z M116.041992,7.42480469 L116.041992,7.54785156 C116.041992,8.49577297 116.541011,9.20214611 117.539062,9.66699219 C117.798829,9.74446653 118.035806,9.78320312 118.25,9.78320312 L118.400391,9.78320312 C119.325525,9.78320312 120.025063,9.2864633 120.499023,8.29296875 C120.57194,7.99674331 120.608398,7.76660238 120.608398,7.60253906 L120.608398,7.4453125 C120.608398,6.50194841 120.104823,5.79557526 119.097656,5.32617188 C118.783202,5.25325484 118.541668,5.21679688 118.373047,5.21679688 L118.277344,5.21679688 C117.352209,5.21679688 116.652672,5.70670083 116.178711,6.68652344 C116.087565,6.95540499 116.041992,7.20149628 116.041992,7.42480469 Z M126.118164,3.78808594 C127.544603,3.78808594 128.652014,4.46483698 129.44043,5.81835938 C129.713869,6.35156517 129.850586,6.9280568 129.850586,7.54785156 L129.850586,7.69824219 C129.768554,8.16308826 129.538413,8.39550781 129.160156,8.39550781 L124.040039,8.39550781 C124.172201,8.84668194 124.543617,9.23632648 125.154297,9.56445312 C125.514325,9.70117256 125.851561,9.76953125 126.166016,9.76953125 C126.530601,9.76953125 126.968096,9.64192836 127.478516,9.38671875 L127.697266,9.38671875 C128.125653,9.46875041 128.339844,9.69205547 128.339844,10.0566406 L128.339844,10.1318359 C128.339844,10.669599 127.663093,11.0273429 126.30957,11.2050781 L126.118164,11.2050781 C124.787428,11.2050781 123.721033,10.583014 122.918945,9.33886719 C122.595376,8.75097362 122.433594,8.1357454 122.433594,7.49316406 C122.433594,6.13508436 123.073887,5.05501703 124.354492,4.25292969 C124.978844,3.9430323 125.566729,3.78808594 126.118164,3.78808594 Z M123.916992,6.98730469 L128.394531,6.98730469 C128.394531,6.81868405 128.205406,6.47916922 127.827148,5.96875 C127.316729,5.48567467 126.815432,5.24414062 126.323242,5.24414062 L126.042969,5.24414062 C125.295569,5.24414062 124.680341,5.61327756 124.197266,6.3515625 C124.028645,6.64323062 123.935221,6.85514257 123.916992,6.98730469 Z M131.450195,3.80175781 C131.892255,3.91569067 132.113281,4.12988124 132.113281,4.44433594 L132.113281,4.546875 C132.660159,4.05012772 133.398433,3.80175781 134.328125,3.80175781 C135.348963,3.80175781 136.253577,4.2255817 137.041992,5.07324219 C137.616214,5.78418324 137.90332,6.53385022 137.90332,7.32226562 L137.90332,10.5693359 C137.90332,10.9065772 137.680015,11.1184892 137.233398,11.2050781 L137.165039,11.2050781 C136.718422,11.1230465 136.495117,10.8929055 136.495117,10.5146484 L136.495117,7.65722656 C136.495117,6.4723248 135.991541,5.69531435 134.984375,5.32617188 C134.73828,5.26236947 134.519532,5.23046875 134.328125,5.23046875 L134.25293,5.23046875 C133.409827,5.23046875 132.755862,5.670243 132.291016,6.54980469 C132.172525,6.80957161 132.113281,7.24706724 132.113281,7.86230469 L132.113281,10.5419922 C132.113281,10.9065773 131.889976,11.1276038 131.443359,11.2050781 L131.395508,11.2050781 C131.021808,11.2050781 130.791667,10.9726586 130.705078,10.5078125 L130.705078,4.58105469 C130.759766,4.06152084 131.008136,3.80175781 131.450195,3.80175781 Z M140.029297,0.9375 L140.111328,0.9375 C140.494143,0.9375 140.728841,1.15624781 140.81543,1.59375 L140.81543,8.16308594 C140.706054,8.61426007 140.455406,8.83984375 140.063477,8.83984375 C139.571287,8.76692672 139.325195,8.54134304 139.325195,8.16308594 L139.325195,1.56640625 C139.411784,1.14713332 139.646482,0.9375 140.029297,0.9375 Z M139.967773,9.38671875 L140.036133,9.38671875 C140.633141,9.47330772 140.931641,9.75129974 140.931641,10.2207031 L140.931641,10.3710938 C140.931641,10.8040386 140.653649,11.0820306 140.097656,11.2050781 L139.995117,11.2050781 C139.521156,11.2050781 139.224935,10.9020213 139.106445,10.2958984 C139.229493,9.68977562 139.516599,9.38671875 139.967773,9.38671875 Z" id="join-us-in-copenhage" fill="#FFFFFF" opacity="0.511265851"></path>
            <path d="M46.140625,64.3125 L44.671875,68.8515625 C44.4791657,69.1067721 44.2552096,69.234375 44,69.234375 L43.9765625,69.234375 C43.5911439,69.234375 43.3229174,69.0078148 43.171875,68.5546875 L41,61.7109375 C41.1093755,61.1588514 41.3828103,60.8828125 41.8203125,60.8828125 C42.3046899,60.8828125 42.6276034,61.3281205 42.7890625,62.21875 L43.984375,65.875 C44.9375048,62.8541516 45.460937,61.2812506 45.5546875,61.15625 C45.7369801,60.9999992 45.9348948,60.9088543 46.1484375,60.8828125 C46.6328149,60.8828125 46.9427077,61.2604129 47.078125,62.015625 L48.328125,65.875 C49.2343795,63.0104023 49.7395828,61.466147 49.84375,61.2421875 C50.0677095,61.002603 50.2942697,60.8828125 50.5234375,60.8828125 C51.0494818,60.9869797 51.3125,61.270831 51.3125,61.734375 L49.0078125,68.90625 C48.7734363,69.1250011 48.5520844,69.234375 48.34375,69.234375 L48.3203125,69.234375 C47.8359351,69.234375 47.5104175,68.8020877 47.34375,67.9375 C46.7552054,66.1510327 46.3541677,64.9427115 46.140625,64.3125 Z M53.40625,64.9453125 L53.40625,65.03125 C53.40625,66.0989637 53.942703,66.901039 55.015625,67.4375 C55.34896,67.5625006 55.6484362,67.625 55.9140625,67.625 L56.140625,67.625 C57.0260461,67.625 57.7578096,67.179692 58.3359375,66.2890625 C58.5442719,65.8723938 58.6484375,65.4739602 58.6484375,65.09375 L58.6484375,64.9765625 C58.6484375,63.9505157 58.1406301,63.1640652 57.125,62.6171875 C56.7760399,62.4609367 56.4114602,62.3828125 56.03125,62.3828125 L56,62.3828125 C54.9218696,62.3828125 54.1093777,62.9453069 53.5625,64.0703125 C53.4583328,64.4140642 53.40625,64.705728 53.40625,64.9453125 Z M58.65625,68.34375 C58.0208302,68.937503 57.1822969,69.234375 56.140625,69.234375 L55.9140625,69.234375 C54.4765553,69.234375 53.2786506,68.5156322 52.3203125,67.078125 C51.9713524,66.3802048 51.796875,65.679691 51.796875,64.9765625 C51.796875,63.403638 52.5677006,62.1562546 54.109375,61.234375 C54.7656283,60.9270818 55.4062469,60.7734375 56.03125,60.7734375 C57.6302163,60.7734375 58.8958287,61.5546797 59.828125,63.1171875 C60.1145848,63.7578157 60.2578125,64.4166633 60.2578125,65.09375 L60.2578125,68.4765625 C60.2578125,68.8932312 60.0026067,69.1458329 59.4921875,69.234375 L59.4375,69.234375 C59.0833316,69.234375 58.8203134,69.0260437 58.6484375,68.609375 L58.6484375,68.5234375 L58.65625,68.34375 Z M63.4296875,57.90625 L63.5625,57.90625 C64.0468774,58.0104172 64.2890625,58.2421857 64.2890625,58.6015625 L64.2890625,60.9453125 L65.21875,60.9453125 L65.4765625,60.9140625 C65.8776062,60.9140625 66.1406244,61.1744766 66.265625,61.6953125 C66.265625,62.0859395 66.0364606,62.3645825 65.578125,62.53125 L65.109375,62.5 L64.2890625,62.5 L64.2890625,66.4765625 C64.2890625,67.1015656 64.4661441,67.4739577 64.8203125,67.59375 L65.4375,67.6484375 L65.75,67.6484375 C66.1302102,67.6484375 66.3697912,67.9010391 66.46875,68.40625 L66.46875,68.4765625 C66.3802079,68.9817734 66.1197938,69.234375 65.6875,69.234375 L65.0859375,69.234375 C64.0755158,69.234375 63.3255233,68.6875055 62.8359375,67.59375 C62.7473954,67.317707 62.703125,67.0026059 62.703125,66.6484375 L62.703125,62.5 L62.375,62.5 L61.875,62.53125 C61.4166644,62.3697909 61.1875,62.093752 61.1875,61.703125 C61.2760421,61.1979141 61.4479154,60.9453125 61.703125,60.9453125 L61.703125,60.890625 L62.2421875,60.9453125 L62.703125,60.9453125 L62.703125,58.7578125 C62.7656253,58.1901013 63.0078104,57.90625 63.4296875,57.90625 Z M70.828125,60.75 C71.9218805,60.75 72.9218705,61.1666625 73.828125,62 C73.9166671,62.1614591 73.9609375,62.3098952 73.9609375,62.4453125 L73.9609375,62.5 C73.867187,63.0104192 73.6041688,63.265625 73.171875,63.265625 L73.140625,63.265625 C72.9479157,63.265625 72.5937526,63.0703145 72.078125,62.6796875 C71.6927064,62.4817698 71.3046895,62.3828125 70.9140625,62.3828125 L70.7421875,62.3828125 C69.705724,62.3828125 68.9192735,62.929682 68.3828125,64.0234375 C68.2578119,64.393231 68.1953125,64.726561 68.1953125,65.0234375 C68.1953125,66.0807345 68.7447862,66.8854139 69.84375,67.4375 C70.1666683,67.5625006 70.5156231,67.625 70.890625,67.625 C71.5052114,67.625 72.1302052,67.3567735 72.765625,66.8203125 L73.0859375,66.75 L73.203125,66.75 C73.6197937,66.75 73.8723954,67.0052058 73.9609375,67.515625 L73.9609375,67.5625 C73.9609375,68.0729192 73.2786527,68.5885391 71.9140625,69.109375 C71.4661436,69.1927087 71.1328136,69.234375 70.9140625,69.234375 L70.6796875,69.234375 C69.5338484,69.234375 68.4713591,68.697922 67.4921875,67.625 C66.8880178,66.7760374 66.5859375,65.898442 66.5859375,64.9921875 C66.5859375,63.6119723 67.1953064,62.4557338 68.4140625,61.5234375 C69.190108,61.0078099 69.9947875,60.75 70.828125,60.75 Z M75.5234375,57.59375 L75.6640625,57.59375 C76.1588566,57.6979172 76.40625,57.9322898 76.40625,58.296875 L76.40625,61.390625 C76.9479194,60.9218727 77.6770787,60.6875 78.59375,60.6875 C79.9895903,60.6875 81.1067666,61.3463476 81.9453125,62.6640625 C82.2630224,63.2526071 82.421875,63.8124973 82.421875,64.34375 L82.421875,68.46875 C82.421875,68.8906271 82.1614609,69.1458329 81.640625,69.234375 L81.6015625,69.234375 C81.2005188,69.234375 80.9348965,68.9895858 80.8046875,68.5 L80.8046875,64.515625 C80.8046875,63.5572869 80.3072966,62.8645855 79.3125,62.4375 C79.0781238,62.3697913 78.8385429,62.3359375 78.59375,62.3359375 C77.6093701,62.3359375 76.9140645,62.864578 76.5078125,63.921875 C76.4401038,64.1458345 76.40625,64.5312473 76.40625,65.078125 L76.40625,68.46875 C76.40625,68.8906271 76.1458359,69.1458329 75.625,69.234375 L75.5859375,69.234375 C75.1848938,69.234375 74.9192715,68.9895858 74.7890625,68.5 L74.7890625,58.359375 C74.898438,57.8489558 75.1432273,57.59375 75.5234375,57.59375 Z M88.21875,57.6171875 L88.359375,57.6171875 C88.8541691,57.7213547 89.1015625,57.9557273 89.1015625,58.3203125 L89.1015625,67.6171875 L89.484375,67.6171875 C89.8645852,67.6171875 90.1093745,67.8749974 90.21875,68.390625 L90.21875,68.453125 C90.1302079,68.9739609 89.8645855,69.234375 89.421875,69.234375 L88.28125,69.234375 C87.8489562,69.234375 87.5833338,68.9687527 87.484375,68.4375 L87.484375,58.4765625 C87.5468753,57.903643 87.7916645,57.6171875 88.21875,57.6171875 Z M92.3203125,58.71875 C92.8359401,58.848959 93.09375,59.0937482 93.09375,59.453125 L93.09375,59.625 C93.09375,60.0364604 92.815107,60.2812496 92.2578125,60.359375 C91.8567688,60.359375 91.5937506,60.0859402 91.46875,59.5390625 C91.5781255,58.9921848 91.8619769,58.71875 92.3203125,58.71875 Z M92.3203125,60.71875 C92.8359401,60.848959 93.09375,61.0937482 93.09375,61.453125 L93.09375,68.46875 C93.09375,68.8906271 92.8333359,69.1458329 92.3125,69.234375 L92.265625,69.234375 C91.8385395,69.234375 91.5755213,68.9687527 91.4765625,68.4375 L91.4765625,61.609375 C91.5390628,61.015622 91.82031,60.71875 92.3203125,60.71875 Z M94.8046875,60.7265625 L94.859375,60.7265625 C95.2760437,60.7265625 95.614582,61.0963505 95.875,61.8359375 L98.171875,66.5546875 C99.8645918,62.9609195 100.781249,61.0885424 100.921875,60.9375 C101.109376,60.7968743 101.296874,60.7265625 101.484375,60.7265625 C102.015628,60.8255213 102.28125,61.0885395 102.28125,61.515625 L102.28125,61.546875 C102.28125,61.6822923 101.843754,62.6562409 100.96875,64.46875 L98.7734375,68.9765625 C98.5442697,69.1484384 98.3437509,69.234375 98.171875,69.234375 L98.1484375,69.234375 C97.705727,69.234375 97.3385431,68.8125042 97.046875,67.96875 C95.1562405,64.1093557 94.1536464,62.0104184 94.0390625,61.671875 L94.0390625,61.46875 C94.132813,60.9739559 94.3880188,60.7265625 94.8046875,60.7265625 Z M106.867188,60.7578125 C108.497404,60.7578125 109.763016,61.5312423 110.664062,63.078125 C110.976564,63.687503 111.132812,64.3463506 111.132812,65.0546875 L111.132812,65.2265625 C111.039062,65.7578152 110.776044,66.0234375 110.34375,66.0234375 L104.492188,66.0234375 C104.64323,66.5390651 105.067705,66.9843731 105.765625,67.359375 C106.177085,67.5156258 106.562498,67.59375 106.921875,67.59375 C107.338544,67.59375 107.838539,67.4479181 108.421875,67.15625 L108.671875,67.15625 C109.161461,67.2500005 109.40625,67.5052063 109.40625,67.921875 L109.40625,68.0078125 C109.40625,68.6223989 108.63282,69.031249 107.085938,69.234375 L106.867188,69.234375 C105.346347,69.234375 104.127609,68.5234446 103.210938,67.1015625 C102.841144,66.4296841 102.65625,65.7265662 102.65625,64.9921875 C102.65625,63.4400964 103.388014,62.2057338 104.851562,61.2890625 C105.565108,60.9348941 106.236976,60.7578125 106.867188,60.7578125 Z M104.351562,64.4140625 L109.46875,64.4140625 C109.46875,64.2213532 109.252606,63.8333363 108.820312,63.25 C108.236976,62.6979139 107.664065,62.421875 107.101562,62.421875 L106.78125,62.421875 C105.927079,62.421875 105.223961,62.8437458 104.671875,63.6875 C104.479166,64.020835 104.372396,64.2630201 104.351562,64.4140625 Z M117,66.4453125 C116.994792,66.3411453 116.888022,66.2786459 116.679688,66.2578125 C114.044258,65.6692679 112.638022,65.2942716 112.460938,65.1328125 C111.924476,64.7265605 111.65625,64.2239613 111.65625,63.625 C111.65625,62.8124959 112.223953,62.0416703 113.359375,61.3125 C113.984378,60.9843734 114.601559,60.8203125 115.210938,60.8203125 C116.638028,60.8203125 117.765621,61.4791601 118.59375,62.796875 L118.625,63.0859375 L118.625,63.1328125 C118.625,63.575523 118.359378,63.8359371 117.828125,63.9140625 C117.473957,63.9140625 117.145835,63.664065 116.84375,63.1640625 C116.369789,62.7005185 115.825524,62.46875 115.210938,62.46875 C114.40885,62.46875 113.781252,62.8437462 113.328125,63.59375 L113.3125,63.671875 C113.3125,63.7760422 113.536456,63.846354 113.984375,63.8828125 C116.22397,64.4244819 117.460936,64.7395829 117.695312,64.828125 C118.335941,65.2500021 118.65625,65.7838509 118.65625,66.4296875 L118.65625,66.453125 C118.65625,67.3437545 118.026048,68.1484339 116.765625,68.8671875 C116.218747,69.1119804 115.643232,69.234375 115.039062,69.234375 C113.789056,69.234375 112.734379,68.6510475 111.875,67.484375 C111.765624,67.3281242 111.710938,67.1770841 111.710938,67.03125 L111.710938,66.859375 C111.710938,66.4374979 111.997393,66.1953128 112.570312,66.1328125 C112.846356,66.1328125 113.171873,66.401039 113.546875,66.9375 C114.005211,67.3645855 114.541664,67.578125 115.15625,67.578125 C115.88542,67.578125 116.489581,67.2369826 116.96875,66.5546875 L117,66.4453125 Z M121.304688,57.90625 L121.4375,57.90625 C121.921877,58.0104172 122.164062,58.2421857 122.164062,58.6015625 L122.164062,60.9453125 L123.09375,60.9453125 L123.351562,60.9140625 C123.752606,60.9140625 124.015624,61.1744766 124.140625,61.6953125 C124.140625,62.0859395 123.911461,62.3645825 123.453125,62.53125 L122.984375,62.5 L122.164062,62.5 L122.164062,66.4765625 C122.164062,67.1015656 122.341144,67.4739577 122.695312,67.59375 L123.3125,67.6484375 L123.625,67.6484375 C124.00521,67.6484375 124.244791,67.9010391 124.34375,68.40625 L124.34375,68.4765625 C124.255208,68.9817734 123.994794,69.234375 123.5625,69.234375 L122.960938,69.234375 C121.950516,69.234375 121.200523,68.6875055 120.710938,67.59375 C120.622395,67.317707 120.578125,67.0026059 120.578125,66.6484375 L120.578125,62.5 L120.25,62.5 L119.75,62.53125 C119.291664,62.3697909 119.0625,62.093752 119.0625,61.703125 C119.151042,61.1979141 119.322915,60.9453125 119.578125,60.9453125 L119.578125,60.890625 L120.117188,60.9453125 L120.578125,60.9453125 L120.578125,58.7578125 C120.640625,58.1901013 120.88281,57.90625 121.304688,57.90625 Z M126.085938,60.7109375 C126.596357,60.8411465 126.851562,61.0859357 126.851562,61.4453125 L126.851562,61.5703125 C127.497399,60.997393 128.338536,60.7109375 129.375,60.7109375 C129.932294,60.7109375 130.536455,60.8515611 131.1875,61.1328125 C131.411459,61.3619803 131.523438,61.5833323 131.523438,61.796875 L131.523438,61.8515625 C131.434895,62.3619817 131.171877,62.6171875 130.734375,62.6171875 L130.664062,62.6171875 C130.127601,62.4453116 129.73698,62.359375 129.492188,62.359375 L129.320312,62.359375 C128.268224,62.359375 127.497398,62.9062445 127.007812,64 C126.903645,64.2864598 126.851562,64.6197898 126.851562,65 L126.851562,68.46875 C126.851562,68.8906271 126.591148,69.1458329 126.070312,69.234375 L126.023438,69.234375 C125.596352,69.234375 125.333334,68.9687527 125.234375,68.4375 L125.234375,61.609375 C125.296875,61.0104137 125.580727,60.7109375 126.085938,60.7109375 Z M135.898438,60.7578125 C137.528654,60.7578125 138.794266,61.5312423 139.695312,63.078125 C140.007814,63.687503 140.164062,64.3463506 140.164062,65.0546875 L140.164062,65.2265625 C140.070312,65.7578152 139.807294,66.0234375 139.375,66.0234375 L133.523438,66.0234375 C133.67448,66.5390651 134.098955,66.9843731 134.796875,67.359375 C135.208335,67.5156258 135.593748,67.59375 135.953125,67.59375 C136.369794,67.59375 136.869789,67.4479181 137.453125,67.15625 L137.703125,67.15625 C138.192711,67.2500005 138.4375,67.5052063 138.4375,67.921875 L138.4375,68.0078125 C138.4375,68.6223989 137.66407,69.031249 136.117188,69.234375 L135.898438,69.234375 C134.377597,69.234375 133.158859,68.5234446 132.242188,67.1015625 C131.872394,66.4296841 131.6875,65.7265662 131.6875,64.9921875 C131.6875,63.4400964 132.419264,62.2057338 133.882812,61.2890625 C134.596358,60.9348941 135.268226,60.7578125 135.898438,60.7578125 Z M133.382812,64.4140625 L138.5,64.4140625 C138.5,64.2213532 138.283856,63.8333363 137.851562,63.25 C137.268226,62.6979139 136.695315,62.421875 136.132812,62.421875 L135.8125,62.421875 C134.958329,62.421875 134.255211,62.8437458 133.703125,63.6875 C133.510416,64.020835 133.403646,64.2630201 133.382812,64.4140625 Z M142.140625,64.9453125 L142.140625,65.03125 C142.140625,66.0989637 142.677078,66.901039 143.75,67.4375 C144.083335,67.5625006 144.382811,67.625 144.648438,67.625 L144.875,67.625 C145.760421,67.625 146.492185,67.179692 147.070312,66.2890625 C147.278647,65.8723938 147.382812,65.4739602 147.382812,65.09375 L147.382812,64.9765625 C147.382812,63.9505157 146.875005,63.1640652 145.859375,62.6171875 C145.510415,62.4609367 145.145835,62.3828125 144.765625,62.3828125 L144.734375,62.3828125 C143.656245,62.3828125 142.843753,62.9453069 142.296875,64.0703125 C142.192708,64.4140642 142.140625,64.705728 142.140625,64.9453125 Z M147.390625,68.34375 C146.755205,68.937503 145.916672,69.234375 144.875,69.234375 L144.648438,69.234375 C143.21093,69.234375 142.013026,68.5156322 141.054688,67.078125 C140.705727,66.3802048 140.53125,65.679691 140.53125,64.9765625 C140.53125,63.403638 141.302076,62.1562546 142.84375,61.234375 C143.500003,60.9270818 144.140622,60.7734375 144.765625,60.7734375 C146.364591,60.7734375 147.630204,61.5546797 148.5625,63.1171875 C148.84896,63.7578157 148.992188,64.4166633 148.992188,65.09375 L148.992188,68.4765625 C148.992188,68.8932312 148.736982,69.1458329 148.226562,69.234375 L148.171875,69.234375 C147.817707,69.234375 147.554688,69.0260437 147.382812,68.609375 L147.382812,68.5234375 L147.390625,68.34375 Z M151.257812,60.90625 C151.648439,60.90625 151.898437,61.0781233 152.007812,61.421875 C152.42969,61.0781233 153.041663,60.90625 153.84375,60.90625 C154.906255,60.90625 155.763018,61.3020794 156.414062,62.09375 C156.638022,61.6770813 157.26562,61.3125016 158.296875,61 L158.984375,60.90625 C160.281256,60.90625 161.30208,61.5208272 162.046875,62.75 C162.296876,63.2656276 162.421875,63.7604143 162.421875,64.234375 L162.421875,68.515625 C162.421875,68.8958352 162.169273,69.1354162 161.664062,69.234375 L161.59375,69.234375 C161.088539,69.1458329 160.835938,68.8854188 160.835938,68.453125 L160.835938,64.296875 C160.835938,63.4635375 160.398442,62.8880224 159.523438,62.5703125 L159.164062,62.5234375 L158.890625,62.5234375 C158.197913,62.5234375 157.666669,62.9296834 157.296875,63.7421875 C157.25,63.9140634 157.226562,64.0598952 157.226562,64.1796875 L157.226562,68.453125 C157.132812,68.9739609 156.875002,69.234375 156.453125,69.234375 L156.398438,69.234375 C155.893227,69.1458329 155.640625,68.8958354 155.640625,68.484375 L155.640625,64.953125 C155.640625,64.0416621 155.528647,63.4817719 155.304688,63.2734375 C154.929686,62.773435 154.450524,62.5234375 153.867188,62.5234375 L153.78125,62.5234375 C152.979163,62.5234375 152.414064,62.9557248 152.085938,63.8203125 C152.033854,64.0286469 152.007812,64.3124982 152.007812,64.671875 L152.007812,68.484375 C152.007812,68.8958354 151.755211,69.1458329 151.25,69.234375 L151.203125,69.234375 C150.781248,69.234375 150.520834,68.9739609 150.421875,68.453125 L150.421875,61.7890625 C150.479167,61.2005179 150.75781,60.90625 151.257812,60.90625 Z" id="watch-livestream" fill="#FFFFFF"></path>
            <path d="M181.113281,25.9853516 C182.835946,25.9853516 184.276036,26.7828696 185.433594,28.3779297 C185.957685,29.2848353 186.219727,30.1985631 186.219727,31.1191406 C186.219727,32.8235762 185.449552,34.2408798 183.90918,35.3710938 C183.034175,35.9270861 182.118169,36.2050781 181.161133,36.2050781 L181.058594,36.2050781 C179.29947,36.2050781 177.866216,35.3893311 176.758789,33.7578125 C176.252927,32.9283813 176,32.0328824 176,31.0712891 C176,29.4397705 176.715488,28.0680394 178.146484,26.9560547 C179.080734,26.308916 180.069656,25.9853516 181.113281,25.9853516 Z M177.415039,31.1464844 C177.415039,32.3268288 177.939122,33.3225871 178.987305,34.1337891 C179.634443,34.5712913 180.324866,34.7900391 181.058594,34.7900391 L181.188477,34.7900391 C182.341477,34.7900391 183.319006,34.2750703 184.121094,33.2451172 C184.576825,32.5888639 184.804688,31.8710976 184.804688,31.0917969 C184.804688,29.7565037 184.191738,28.6992226 182.96582,27.9199219 C182.364255,27.573566 181.746748,27.4003906 181.113281,27.4003906 C179.891921,27.4003906 178.877934,27.9335884 178.071289,29 C177.633787,29.6289094 177.415039,30.344397 177.415039,31.1464844 Z M190.211914,28.78125 C191.16895,28.78125 192.043941,29.1458297 192.836914,29.875 C192.914388,30.0162767 192.953125,30.1461583 192.953125,30.2646484 L192.953125,30.3125 C192.871093,30.7591168 192.640952,30.9824219 192.262695,30.9824219 L192.235352,30.9824219 C192.066731,30.9824219 191.756838,30.8115251 191.305664,30.4697266 C190.968423,30.2965486 190.628908,30.2099609 190.287109,30.2099609 L190.136719,30.2099609 C189.229813,30.2099609 188.541669,30.6884718 188.072266,31.6455078 C187.96289,31.9690771 187.908203,32.2607409 187.908203,32.5205078 C187.908203,33.4456426 188.388993,34.1497372 189.350586,34.6328125 C189.633139,34.742188 189.938475,34.796875 190.266602,34.796875 C190.804365,34.796875 191.351234,34.5621768 191.907227,34.0927734 L192.1875,34.03125 L192.290039,34.03125 C192.654624,34.03125 192.875651,34.2545551 192.953125,34.7011719 L192.953125,34.7421875 C192.953125,35.1888043 192.356126,35.6399717 191.162109,36.0957031 C190.77018,36.1686202 190.478517,36.2050781 190.287109,36.2050781 L190.082031,36.2050781 C189.079422,36.2050781 188.149744,35.7356818 187.292969,34.796875 C186.76432,34.0540327 186.5,33.2861368 186.5,32.4931641 C186.5,31.2854757 187.033198,30.2737671 188.099609,29.4580078 C188.778649,29.0068337 189.482744,28.78125 190.211914,28.78125 Z M195.311523,26.2929688 L195.427734,26.2929688 C195.851565,26.384115 196.063477,26.5869125 196.063477,26.9013672 L196.063477,28.9521484 L196.876953,28.9521484 L197.102539,28.9248047 C197.453452,28.9248047 197.683593,29.152667 197.792969,29.6083984 C197.792969,29.950197 197.59245,30.1940097 197.191406,30.3398438 L196.78125,30.3125 L196.063477,30.3125 L196.063477,33.7919922 C196.063477,34.3388699 196.218423,34.664713 196.52832,34.7695312 L197.068359,34.8173828 L197.341797,34.8173828 C197.674481,34.8173828 197.884114,35.0384092 197.970703,35.4804688 L197.970703,35.5419922 C197.893229,35.9840517 197.665366,36.2050781 197.287109,36.2050781 L196.760742,36.2050781 C195.876623,36.2050781 195.22038,35.7265673 194.791992,34.7695312 C194.714518,34.5279936 194.675781,34.2522802 194.675781,33.9423828 L194.675781,30.3125 L194.388672,30.3125 L193.951172,30.3398438 C193.550128,30.198567 193.349609,29.957033 193.349609,29.6152344 C193.427084,29.1731749 193.577473,28.9521484 193.800781,28.9521484 L193.800781,28.9042969 L194.272461,28.9521484 L194.675781,28.9521484 L194.675781,27.0380859 C194.730469,26.5413387 194.942381,26.2929688 195.311523,26.2929688 Z M201.757812,28.8359375 C202.710291,28.8359375 203.571611,29.1959599 204.341797,29.9160156 C205.075525,30.6862018 205.442383,31.5543571 205.442383,32.5205078 C205.442383,33.9013741 204.790697,34.9859987 203.487305,35.7744141 C202.91764,36.0615249 202.366214,36.2050781 201.833008,36.2050781 L201.62793,36.2050781 C200.634435,36.2050781 199.711593,35.740239 198.859375,34.8105469 C198.335284,34.0722619 198.073242,33.3089232 198.073242,32.5205078 C198.073242,31.3219341 198.601883,30.31934 199.65918,29.5126953 C200.333662,29.0615212 201.0332,28.8359375 201.757812,28.8359375 Z M199.501953,32.4453125 L199.501953,32.5683594 C199.501953,33.4205772 199.914384,34.0813779 200.739258,34.5507812 C201.030926,34.7011726 201.345376,34.7763672 201.682617,34.7763672 L201.833008,34.7763672 C202.71257,34.7763672 203.387042,34.318364 203.856445,33.4023438 C203.961264,33.1197903 204.013672,32.8417982 204.013672,32.5683594 L204.013672,32.4453125 C204.013672,31.7389288 203.687829,31.1419295 203.036133,30.6542969 C202.657876,30.39453 202.222659,30.2646484 201.730469,30.2646484 C200.768875,30.2646484 200.062502,30.7705028 199.611328,31.7822266 C199.538411,32.0192069 199.501953,32.2402333 199.501953,32.4453125 Z M206.618164,26.0058594 L206.734375,26.0058594 C207.16732,26.101563 207.383789,26.3180322 207.383789,26.6552734 L207.383789,29.5263672 C207.944339,28.9886041 208.721349,28.7197266 209.714844,28.7197266 C210.676437,28.7197266 211.54915,29.0843063 212.333008,29.8134766 C213.080407,30.5973346 213.454102,31.4791618 213.454102,32.4589844 C213.454102,33.8626372 212.791022,34.9654908 211.464844,35.7675781 C210.886065,36.0592463 210.327802,36.2050781 209.790039,36.2050781 L209.584961,36.2050781 C208.573237,36.2050781 207.634444,35.7334032 206.768555,34.7900391 C206.235349,34.079098 205.96875,33.2428433 205.96875,32.28125 L205.96875,26.6552734 C205.96875,26.3180322 206.185219,26.101563 206.618164,26.0058594 Z M207.383789,32.3837891 L207.383789,32.5136719 C207.383789,33.4798225 207.891922,34.1998674 208.908203,34.6738281 C209.172527,34.7513025 209.414061,34.7900391 209.632812,34.7900391 L209.790039,34.7900391 C210.728846,34.7900391 211.439776,34.2841847 211.922852,33.2724609 C212.000326,32.9671209 212.039062,32.7324227 212.039062,32.5683594 L212.039062,32.4111328 C212.039062,31.4495395 211.524094,30.7294946 210.494141,30.2509766 C210.179686,30.1735022 209.935873,30.1347656 209.762695,30.1347656 L209.660156,30.1347656 C208.721349,30.1347656 208.010419,30.6337841 207.527344,31.6318359 C207.43164,31.9098321 207.383789,32.1604807 207.383789,32.3837891 Z M217.5625,28.7880859 C218.988939,28.7880859 220.09635,29.464837 220.884766,30.8183594 C221.158204,31.3515652 221.294922,31.9280568 221.294922,32.5478516 L221.294922,32.6982422 C221.21289,33.1630883 220.982749,33.3955078 220.604492,33.3955078 L215.484375,33.3955078 C215.616537,33.8466819 215.987953,34.2363265 216.598633,34.5644531 C216.958661,34.7011726 217.295897,34.7695312 217.610352,34.7695312 C217.974937,34.7695312 218.412432,34.6419284 218.922852,34.3867188 L219.141602,34.3867188 C219.569989,34.4687504 219.78418,34.6920555 219.78418,35.0566406 L219.78418,35.1318359 C219.78418,35.669599 219.107429,36.0273429 217.753906,36.2050781 L217.5625,36.2050781 C216.231764,36.2050781 215.165369,35.583014 214.363281,34.3388672 C214.039712,33.7509736 213.87793,33.1357454 213.87793,32.4931641 C213.87793,31.1350844 214.518223,30.055017 215.798828,29.2529297 C216.42318,28.9430323 217.011065,28.7880859 217.5625,28.7880859 Z M215.361328,31.9873047 L219.838867,31.9873047 C219.838867,31.8186841 219.649741,31.4791692 219.271484,30.96875 C218.761065,30.4856747 218.259768,30.2441406 217.767578,30.2441406 L217.487305,30.2441406 C216.739905,30.2441406 216.124677,30.6132776 215.641602,31.3515625 C215.472981,31.6432306 215.379557,31.8551426 215.361328,31.9873047 Z M223.038086,28.7470703 C223.484703,28.8610032 223.708008,29.0751937 223.708008,29.3896484 L223.708008,29.4990234 C224.273115,28.9977188 225.00911,28.7470703 225.916016,28.7470703 C226.403648,28.7470703 226.932289,28.870116 227.501953,29.1162109 C227.697918,29.3167328 227.795898,29.5104157 227.795898,29.6972656 L227.795898,29.7451172 C227.718424,30.191734 227.488283,30.4150391 227.105469,30.4150391 L227.043945,30.4150391 C226.574542,30.2646477 226.232748,30.1894531 226.018555,30.1894531 L225.868164,30.1894531 C224.947587,30.1894531 224.273114,30.667964 223.844727,31.625 C223.75358,31.8756523 223.708008,32.167316 223.708008,32.5 L223.708008,35.5351562 C223.708008,35.9042987 223.480146,36.1276038 223.024414,36.2050781 L222.983398,36.2050781 C222.609699,36.2050781 222.379558,35.9726586 222.292969,35.5078125 L222.292969,29.5332031 C222.347657,29.009112 222.596026,28.7470703 223.038086,28.7470703 Z M233.674805,25.9716797 L233.804688,25.9716797 C234.237632,26.0673833 234.454102,26.2838525 234.454102,26.6210938 L234.454102,35.5283203 C234.37207,35.9794944 234.13965,36.2050781 233.756836,36.2050781 L233.708984,36.2050781 C233.25781,36.1093745 233.032227,35.895184 233.032227,35.5625 L233.032227,27.6601562 C232.726886,27.7604172 232.492188,27.8105469 232.328125,27.8105469 C232.004556,27.8105469 231.790365,27.5940777 231.685547,27.1611328 L231.685547,27.0039062 C231.685547,26.6393211 232.084306,26.3750008 232.881836,26.2109375 L233.674805,25.9716797 Z M236.737305,32.9511719 L236.737305,33.1904297 C236.737305,33.8147818 237.097327,34.309243 237.817383,34.6738281 C238.022462,34.7330732 238.232095,34.7718098 238.446289,34.7900391 C239.216475,34.7900391 239.765623,34.3844442 240.09375,33.5732422 L240.162109,33.1289062 L240.162109,33.0400391 C240.162109,32.2333944 239.726892,31.6819676 238.856445,31.3857422 L238.405273,31.3378906 C237.657874,31.3378906 237.115562,31.7503214 236.77832,32.5751953 L236.737305,32.9511719 Z M238.302734,29.9228516 L238.5625,29.9228516 C239.574224,29.9228516 240.430986,30.4264273 241.132812,31.4335938 C241.447267,31.9895861 241.604492,32.5318984 241.604492,33.0605469 C241.604492,34.1041719 241.12826,34.9768845 240.175781,35.6787109 C239.633461,36.0296242 239.070641,36.2050781 238.487305,36.2050781 L238.357422,36.2050781 C237.354813,36.2050781 236.491215,35.7083383 235.766602,34.7148438 C235.452147,34.1497368 235.294922,33.59831 235.294922,33.0605469 C235.294922,32.3541631 235.547849,31.6637404 236.053711,30.9892578 L238.856445,26.1630859 C239.061524,26.0400384 239.239257,25.9785156 239.389648,25.9785156 C239.731447,25.9785156 239.954752,26.2132138 240.05957,26.6826172 C240.05957,26.8740244 239.843101,27.31152 239.410156,27.9951172 L238.302734,29.9228516 Z M242.992188,31.2285156 L245.726562,31.2285156 C246.10482,31.2285156 246.346354,31.4791642 246.451172,31.9804688 C246.337239,32.4635441 246.095705,32.7050781 245.726562,32.7050781 L242.992188,32.7050781 C242.572915,32.7050781 242.329102,32.4407579 242.260742,31.9121094 C242.388347,31.4563779 242.63216,31.2285156 242.992188,31.2285156 Z M248.638672,25.9716797 L248.768555,25.9716797 C249.2015,26.0673833 249.417969,26.2838525 249.417969,26.6210938 L249.417969,35.5283203 C249.335937,35.9794944 249.103518,36.2050781 248.720703,36.2050781 L248.672852,36.2050781 C248.221677,36.1093745 247.996094,35.895184 247.996094,35.5625 L247.996094,27.6601562 C247.690754,27.7604172 247.456056,27.8105469 247.291992,27.8105469 C246.968423,27.8105469 246.754232,27.5940777 246.649414,27.1611328 L246.649414,27.0039062 C246.649414,26.6393211 247.048173,26.3750008 247.845703,26.2109375 L248.638672,25.9716797 Z M251.694336,29.0068359 L251.694336,29.2392578 C251.694336,29.836266 252.031572,30.3216127 252.706055,30.6953125 C252.902019,30.7819015 253.136717,30.8251953 253.410156,30.8251953 C254.06641,30.8251953 254.569985,30.513024 254.920898,29.8886719 C255.039389,29.6608062 255.098633,29.4101576 255.098633,29.1367188 L255.098633,29.109375 C255.098633,28.3346315 254.690759,27.7923193 253.875,27.4824219 C253.770182,27.441406 253.62435,27.4208984 253.4375,27.4208984 L253.280273,27.4208984 C252.642249,27.4208984 252.143231,27.7877567 251.783203,28.5214844 C251.723958,28.7311208 251.694336,28.8929031 251.694336,29.0068359 Z M253.198242,32.2539062 C252.109044,32.1764319 251.250003,31.613612 250.621094,30.5654297 C250.379556,30.0686824 250.258789,29.5833357 250.258789,29.109375 C250.258789,27.9472598 250.823888,27.0266961 251.954102,26.3476562 C252.446292,26.1061186 252.931638,25.9853516 253.410156,25.9853516 C254.503912,25.9853516 255.399411,26.5071562 256.09668,27.5507812 C256.388348,28.1067736 256.53418,28.6262997 256.53418,29.109375 C256.53418,29.8932331 256.21973,30.6542932 255.59082,31.3925781 L252.145508,36.0205078 C251.967773,36.1435553 251.801433,36.2050781 251.646484,36.2050781 C251.181638,36.1139318 250.949219,35.8746764 250.949219,35.4873047 C250.949219,35.2822255 251.236325,34.8310582 251.810547,34.1337891 L253.198242,32.2539062 Z" id="October-16-19" fill="#FFFFFF" opacity="0.511265851"></path>
        </g>
    </g>
</svg>