<?xml version="1.0" encoding="UTF-8" standalone="no"?>
<!-- Created with Inkscape (http://www.inkscape.org/) -->

<svg
   xmlns:dc="http://purl.org/dc/elements/1.1/"
   xmlns:cc="http://creativecommons.org/ns#"
   xmlns:rdf="http://www.w3.org/1999/02/22-rdf-syntax-ns#"
   xmlns:svg="http://www.w3.org/2000/svg"
   xmlns="http://www.w3.org/2000/svg"
   xmlns:xlink="http://www.w3.org/1999/xlink"
   xmlns:sodipodi="http://sodipodi.sourceforge.net/DTD/sodipodi-0.dtd"
   xmlns:inkscape="http://www.inkscape.org/namespaces/inkscape"
   width="210mm"
   height="297mm"
   viewBox="0 0 210 297"
   version="1.1"
   id="svg8"
   inkscape:version="0.92.4 (5da689c313, 2019-01-14)"
   sodipodi:docname="cisco.svg">
  <defs
     id="defs2" />
  <sodipodi:namedview
     id="base"
     pagecolor="#ffffff"
     bordercolor="#666666"
     borderopacity="1.0"
     inkscape:pageopacity="0.0"
     inkscape:pageshadow="2"
     inkscape:zoom="1.4"
     inkscape:cx="-174.28571"
     inkscape:cy="805.71429"
     inkscape:document-units="mm"
     inkscape:current-layer="layer1"
     showgrid="false"
     inkscape:window-width="1920"
     inkscape:window-height="983"
     inkscape:window-x="0"
     inkscape:window-y="27"
     inkscape:window-maximized="1" />
  <metadata
     id="metadata5">
    <rdf:RDF>
      <cc:Work
         rdf:about="">
        <dc:format>image/svg+xml</dc:format>
        <dc:type
           rdf:resource="http://purl.org/dc/dcmitype/StillImage" />
        <dc:title></dc:title>
      </cc:Work>
    </rdf:RDF>
  </metadata>
  <g
     inkscape:label="Layer 1"
     inkscape:groupmode="layer"
     id="layer1">
    <flowRoot
       xml:space="preserve"
       id="flowRoot826"
       style="font-style:normal;font-weight:normal;font-size:40px;line-height:1.25;font-family:sans-serif;letter-spacing:0px;word-spacing:0px;fill:#000000;fill-opacity:1;stroke:none"
       transform="matrix(0.26458333,0,0,0.26458333,13.796131,-8.3154766)"
       inkscape:export-xdpi="96"
       inkscape:export-ydpi="96"><flowRegion
         id="flowRegion828"><rect
           id="rect830"
           width="662.14288"
           height="47.142849"
           x="-460.71429"
           y="263.23398" /></flowRegion><flowPara
         id="flowPara832"
         style="font-size:26.66666794px">netacad.com</flowPara></flowRoot>    <g
       id="g6688"
       transform="translate(0.57769004,0.52916667)"
       inkscape:export-xdpi="96"
       inkscape:export-ydpi="96">
      <path
         id="path268"
         style="fill:#c4122e;stroke-width:0.05787254"
         d="m -93.16045,57.033356 h -1.888664 v 7.484657 h 1.888664 z"
         inkscape:connector-curvature="0" />
      <use
         id="use360"
         transform="translate(19.714124)"
         xlink:href="#path284"
         style="fill:#c4122e"
         x="0"
         y="0"
         width="100%"
         height="100%" />
      <path
         id="path284"
         d="m -97.64574,59.178068 c -0.07597,-0.03948 -0.683197,-0.399627 -1.586549,-0.399627 -1.223411,0 -2.069931,0.850108 -2.069931,1.996346 0,1.112141 0.81122,1.998144 2.069931,1.998144 0.887798,0 1.505188,-0.352368 1.586549,-0.397237 v 2.00891 c -0.234514,0.06641 -0.878824,0.266221 -1.722352,0.266221 -2.123178,0 -3.985518,-1.464507 -3.985518,-3.876038 0,-2.235047 1.68706,-3.87424 3.985518,-3.87424 0.888994,0 1.544673,0.215956 1.722352,0.268612 z"
         style="fill:#c4122e;stroke-width:0.5982461"
         inkscape:connector-curvature="0" />
      <path
         id="path288"
         d="m -71.990076,58.806499 c -1.120516,0 -1.952675,0.881815 -1.952675,1.968229 0,1.088809 0.832159,1.970025 1.952675,1.970025 1.119318,0 1.953872,-0.881216 1.953872,-1.970025 0,-1.086414 -0.834554,-1.968229 -1.953872,-1.968229 m 3.955004,1.968229 c 0,2.141124 -1.652954,3.876036 -3.955004,3.876036 -2.302052,0 -3.952612,-1.734912 -3.952612,-3.876036 0,-2.137533 1.65056,-3.874242 3.952612,-3.874242 2.30205,0 3.955004,1.736709 3.955004,3.874242"
         style="fill:#c4122e;stroke-width:0.5982461"
         inkscape:connector-curvature="0" />
      <path
         id="path292"
         d="m -85.998009,58.734648 c -0.02813,-0.009 -0.823186,-0.22853 -1.47647,-0.22853 -0.756782,0 -1.168374,0.253658 -1.168374,0.613202 0,0.455865 0.555171,0.614998 0.865662,0.713111 l 0.521072,0.165715 c 1.225805,0.390056 1.784568,1.229394 1.784568,2.141121 0,1.880289 -1.653554,2.512035 -3.098916,2.512035 -1.004454,0 -1.945496,-0.184867 -2.038224,-0.204606 v -1.722349 c 0.166303,0.04187 0.95839,0.278183 1.783372,0.278183 0.939844,0 1.371777,-0.274595 1.371777,-0.698753 0,-0.379286 -0.373902,-0.598245 -0.842329,-0.745412 -0.114276,-0.03828 -0.285962,-0.09214 -0.403218,-0.13042 -1.051718,-0.332624 -1.928746,-0.950611 -1.928746,-2.189581 0,-1.399896 1.048127,-2.339739 2.789024,-2.339739 0.919503,0 1.784568,0.223146 1.840802,0.238101 z"
         style="fill:#c4122e;stroke-width:0.5982461"
         inkscape:connector-curvature="0" />
      <g
         id="g383"
         style="fill:#15495d"
         transform="matrix(0.59824611,0,0,0.59824611,-107.2318,41.930692)">
        <path
           id="path296"
           d="m 3.135,11.7996 c 0,-0.862 -0.704,-1.561 -1.567,-1.561 -0.863,0 -1.568,0.699 -1.568,1.561 v 3.284 c 0,0.867 0.705,1.567 1.568,1.567 0.863,0 1.567,-0.7 1.567,-1.567 z"
           inkscape:connector-curvature="0" />
        <path
           id="path300"
           d="m 11.7443,7.4891 c 0,-0.862 -0.704,-1.563 -1.567,-1.563 -0.864,0 -1.568,0.701 -1.568,1.563 v 7.595 c 0,0.867 0.704,1.566 1.568,1.566 0.863,0 1.567,-0.699 1.567,-1.566 z"
           inkscape:connector-curvature="0" />
        <path
           id="path304"
           d="m 20.3537,1.5916 c 0,-0.862 -0.704,-1.562 -1.567,-1.562 -0.864,0 -1.568,0.7 -1.568,1.562 v 16.613 c 0,0.867 0.704,1.567 1.568,1.567 0.863,0 1.567,-0.7 1.567,-1.567 z"
           inkscape:connector-curvature="0" />
        <path
           id="path308"
           d="m 28.9631,7.4891 c 0,-0.862 -0.704,-1.563 -1.567,-1.563 -0.864,0 -1.568,0.701 -1.568,1.563 v 7.595 c 0,0.867 0.704,1.566 1.568,1.566 0.863,0 1.567,-0.699 1.567,-1.566 z"
           inkscape:connector-curvature="0" />
        <path
           id="path312"
           d="m 37.5627,11.7996 c 0,-0.862 -0.699,-1.561 -1.558,-1.561 -0.863,0 -1.567,0.699 -1.567,1.561 v 3.284 c 0,0.867 0.704,1.567 1.567,1.567 0.859,0 1.558,-0.7 1.558,-1.567 z"
           inkscape:connector-curvature="0" />
      </g>
      <use
         id="use385"
         transform="translate(20.598641)"
         xlink:href="#g383"
         style="fill:#c4122e"
         x="0"
         y="0"
         width="100%"
         height="100%" />
      <path
         id="path332"
         d="m -65.238748,63.532283 v 0.11726 h -0.333823 v 0.868056 h -0.136999 v -0.868054 h -0.335618 v -0.11726 z"
         style="fill:#c4122e;stroke-width:0.5982461"
         inkscape:connector-curvature="0" />
      <path
         id="path336"
         d="m -65.168695,63.532283 h 0.21478 l 0.294934,0.80823 h 0.0047 l 0.285362,-0.80823 h 0.210576 v 0.985312 h -0.140595 v -0.807631 h -0.0047 l -0.299117,0.807631 h -0.129809 l -0.291954,-0.807631 h -0.0066 v 0.807631 h -0.13761 z"
         style="fill:#c4122e;stroke-width:0.5982461"
         inkscape:connector-curvature="0" />
    </g>
  </g>
</svg>
