<?xml version="1.0" encoding="UTF-8" standalone="no"?>
<!-- Created with Inkscape (http://www.inkscape.org/) -->

<svg
   xmlns:dc="http://purl.org/dc/elements/1.1/"
   xmlns:cc="http://creativecommons.org/ns#"
   xmlns:rdf="http://www.w3.org/1999/02/22-rdf-syntax-ns#"
   xmlns:svg="http://www.w3.org/2000/svg"
   xmlns="http://www.w3.org/2000/svg"
   xmlns:sodipodi="http://sodipodi.sourceforge.net/DTD/sodipodi-0.dtd"
   xmlns:inkscape="http://www.inkscape.org/namespaces/inkscape"
   width="210mm"
   height="297mm"
   viewBox="0 0 210 297"
   version="1.1"
   id="svg8"
   inkscape:version="0.92.4 (5da689c313, 2019-01-14)"
   sodipodi:docname="cisco.svg">
  <defs
     id="defs2" />
  <sodipodi:namedview
     id="base"
     pagecolor="#ffffff"
     bordercolor="#666666"
     borderopacity="1.0"
     inkscape:pageopacity="0.0"
     inkscape:pageshadow="2"
     inkscape:zoom="1.4"
     inkscape:cx="-174.28571"
     inkscape:cy="805.71429"
     inkscape:document-units="mm"
     inkscape:current-layer="layer1"
     showgrid="false"
     inkscape:window-width="1920"
     inkscape:window-height="983"
     inkscape:window-x="0"
     inkscape:window-y="27"
     inkscape:window-maximized="1" />
  <metadata
     id="metadata5">
    <rdf:RDF>
      <cc:Work
         rdf:about="">
        <dc:format>image/svg+xml</dc:format>
        <dc:type
           rdf:resource="http://purl.org/dc/dcmitype/StillImage" />
        <dc:title></dc:title>
      </cc:Work>
    </rdf:RDF>
  </metadata>
  <g
     inkscape:label="Layer 1"
     inkscape:groupmode="layer"
     id="layer1">
    <flowRoot
       xml:space="preserve"
       id="flowRoot826"
       style="font-style:normal;font-weight:normal;font-size:40px;line-height:1.25;font-family:sans-serif;letter-spacing:0px;word-spacing:0px;fill:#000000;fill-opacity:1;stroke:none"
       transform="matrix(0.26458333,0,0,0.26458333,13.796131,-8.3154766)"
       inkscape:export-xdpi="96"
       inkscape:export-ydpi="96"><flowRegion
         id="flowRegion828"><rect
           id="rect830"
           width="662.14288"
           height="47.142849"
           x="-460.71429"
           y="263.23398" /></flowRegion><flowPara
         id="flowPara832"
         style="font-size:26.66666794px">netacad.com</flowPara></flowRoot>    <g
       id="g849"
       transform="translate(-0.02141038,4.9136907)"
       style="fill:#000000"
       inkscape:export-xdpi="96"
       inkscape:export-ydpi="96">
      <path
         style="fill:#000000;fill-opacity:1;stroke-width:0.26458332"
         d="m -98.356487,58.994604 c -1.06235,-0.482463 -1.262303,-0.741338 -1.701453,-2.202847 -0.50652,-1.685722 0.889764,-3.701739 2.813794,-4.062689 1.379494,-0.258795 2.220922,0.211863 2.220922,1.242287 0,0.809546 -0.02792,0.82951 -0.950701,0.679764 -0.774275,-0.125648 -1.068874,-0.0361 -1.5875,0.482521 -0.783405,0.783406 -0.80309,1.28831 -0.07848,2.012923 0.451678,0.451678 0.7549,0.526886 1.5875,0.393748 1.02656,-0.164153 1.029179,-0.162279 1.029179,0.736289 0,1.348372 -1.319422,1.632583 -3.333263,0.718004 z m 5.361736,0.327666 c -0.09701,-0.09701 -0.176389,-1.585295 -0.176389,-3.307292 v -3.130902 h 0.926041 0.926042 v 3.307291 3.307292 h -0.749653 c -0.412309,0 -0.829028,-0.07938 -0.926041,-0.176389 z m 3.858507,0.01539 c -0.181901,-0.08123 -0.33073,-0.508203 -0.33073,-0.948834 0,-0.766212 0.03883,-0.793862 0.890524,-0.634084 0.940481,0.176436 1.75531,-0.0081 1.75531,-0.397511 0,-0.127999 -0.401158,-0.40034 -0.891463,-0.605203 -0.95342,-0.398364 -1.754371,-1.32929 -1.754371,-2.039064 0,-1.282143 1.816244,-2.31773 3.439584,-1.961185 0.660961,0.145172 0.79375,0.303609 0.79375,0.947064 0,0.725127 -0.0652,0.772728 -1.058334,0.772728 -1.348838,0 -1.349541,0.334507 -0.0018,0.863909 1.631169,0.640742 2.013897,2.39914 0.767668,3.526961 -0.507467,0.459262 -2.931335,0.778328 -3.610113,0.475219 z m 7.439212,-0.346493 c -1.222178,-0.745249 -1.684525,-1.560599 -1.684525,-2.970668 0,-2.142319 1.942819,-3.691061 4.118287,-3.282941 0.831511,0.155992 0.908796,0.249919 0.908796,1.104484 0,0.854144 -0.06221,0.929892 -0.727604,0.886017 -1.239848,-0.08175 -1.601441,-0.0063 -2.031622,0.423869 -0.574167,0.574165 -0.520001,1.332083 0.142547,1.99463 0.451678,0.451678 0.754899,0.526886 1.5875,0.393748 1.02656,-0.164153 1.029179,-0.162279 1.029179,0.736289 0,0.577391 -0.150275,0.958527 -0.418515,1.06146 -0.80409,0.308559 -2.101562,0.154636 -2.924043,-0.346888 z m 6.588914,0.129636 c -2.571049,-1.161074 -2.48793,-4.871923 0.135117,-6.032221 1.533186,-0.678202 2.772918,-0.453038 3.941895,0.715939 0.766162,0.766163 0.878715,1.052054 0.878715,2.231977 0,1.160796 -0.123589,1.48812 -0.868984,2.301486 -0.693504,0.756746 -1.107577,0.970495 -2.050521,1.058508 -0.699807,0.06532 -1.530003,-0.04708 -2.036222,-0.275689 z m 2.515605,-1.88611 c 0.647832,-0.453759 0.796809,-1.654771 0.270539,-2.181039 -0.174625,-0.174625 -0.686594,-0.3175 -1.137708,-0.3175 -0.451115,0 -0.963084,0.142875 -1.137709,0.3175 -0.741092,0.741092 -0.03579,2.592917 0.987552,2.592917 0.236109,0 0.693907,-0.185345 1.017326,-0.411878 z m -21.838488,-7.303817 c -0.382337,-0.382337 -0.467778,-8.851473 -0.09523,-9.439225 0.123369,-0.194633 0.508499,-0.313696 0.855844,-0.264583 l 0.631536,0.08929 v 4.894792 c 0,4.702595 -0.0209,4.897787 -0.532256,4.971077 -0.292742,0.04196 -0.679695,-0.07115 -0.859896,-0.251355 z m 17.259156,-0.01494 c -0.0755,-0.196759 -0.104592,-2.437155 -0.06464,-4.978657 l 0.07264,-4.620914 h 0.79375 0.79375 v 4.894792 4.894792 l -0.729109,0.08387 c -0.433692,0.04988 -0.784731,-0.06108 -0.866387,-0.273879 z m -25.990405,-1.572557 c -0.43215,-0.432151 -0.41942,-2.111823 0.0206,-2.713548 0.19152,-0.261919 0.57847,-0.431873 0.85989,-0.377676 0.4379,0.08433 0.51168,0.326943 0.51168,1.682417 0,1.385272 -0.0667,1.593442 -0.53225,1.660162 -0.29275,0.04196 -0.6797,-0.07115 -0.8599,-0.251355 z m 4.179586,-0.204411 c -0.150641,-0.281475 -0.273893,-1.301334 -0.273893,-2.266353 0,-1.938151 0.306805,-2.778125 1.014726,-2.778125 0.874882,0 1.101941,0.572443 1.101941,2.778125 0,1.314098 -0.122819,2.265944 -0.3175,2.460625 -0.476743,0.476743 -1.21659,0.382509 -1.525274,-0.194272 z m 8.898329,0.335383 c -0.09701,-0.09701 -0.176389,-1.291375 -0.176389,-2.654137 0,-2.049864 0.07475,-2.506431 0.432838,-2.643844 0.946225,-0.3631 1.283287,0.267269 1.364214,2.551338 0.04888,1.379554 -0.03592,2.316938 -0.230834,2.551801 -0.322786,0.388933 -1.088404,0.496267 -1.389829,0.194842 z m 4.24548,0.01215 c -0.37504,-0.37504 -0.20027,-2.671642 0.230518,-3.029164 0.771295,-0.640118 1.300738,0.02528 1.300738,1.634742 0,1.330115 -0.04531,1.431656 -0.67136,1.504666 -0.369248,0.04306 -0.756201,-0.0065 -0.859896,-0.110244 z m 4.429529,-0.16887 c -0.07814,-0.203624 -0.107371,-1.432365 -0.06496,-2.730536 0.07581,-2.320714 0.0882,-2.36031 0.738563,-2.36031 h 0.661459 v 2.645833 c 0,2.543946 -0.02297,2.649095 -0.596496,2.730537 -0.332628,0.04723 -0.659341,-0.07907 -0.738566,-0.285524 z m 8.731249,0 c -0.07814,-0.203624 -0.10737,-1.432365 -0.06496,-2.730536 0.07581,-2.320714 0.0882,-2.36031 0.738563,-2.36031 h 0.661458 v 2.645833 c 0,2.543946 -0.02296,2.649095 -0.596495,2.730537 -0.332629,0.04723 -0.659341,-0.07907 -0.738566,-0.285524 z m 4.301723,0.16887 c -0.375041,-0.37504 -0.200271,-2.671642 0.230516,-3.029164 0.771297,-0.640118 1.300739,0.02528 1.300739,1.634742 0,1.330115 -0.04531,1.431656 -0.671359,1.504666 -0.36925,0.04306 -0.756203,-0.0065 -0.859896,-0.110244 z"
         id="path863"
         inkscape:connector-curvature="0" />
      <path
         style="fill:#000000;fill-opacity:1;stroke-width:0.26458332"
         d="m -98.088372,59.122577 c -1.865482,-0.812231 -2.534318,-3.047576 -1.445937,-4.832553 0.697945,-1.144653 1.368452,-1.447368 2.99766,-1.353354 1.340494,0.07735 1.381134,0.103054 1.381134,0.873447 0,0.75349 -0.04938,0.789453 -0.973616,0.709032 -1.744542,-0.151799 -2.680287,1.457898 -1.521262,2.616924 0.39967,0.39967 0.811119,0.524917 1.521354,0.463107 0.859649,-0.07481 0.9842,-0.0091 1.064797,0.561824 0.171645,1.215873 -1.337768,1.695816 -3.02413,0.961573 z m 9.216711,0.200853 c -0.181901,-0.0734 -0.330729,-0.461228 -0.330729,-0.861843 0,-0.681422 0.07078,-0.726919 1.097673,-0.705556 1.321648,0.0275 1.639712,-0.496716 0.576756,-0.950569 -1.296226,-0.553452 -1.674429,-1.026719 -1.674429,-2.095307 0,-1.320461 0.712269,-1.826079 2.572413,-1.826079 1.371972,0 1.396337,0.01371 1.396337,0.785838 0,0.738174 -0.05843,0.782306 -0.963362,0.727604 -1.354219,-0.08186 -1.43027,0.49669 -0.133496,1.015556 1.159929,0.464111 1.650808,1.356465 1.374181,2.498085 -0.266718,1.10073 -2.600884,1.942668 -3.915344,1.412271 z m 7.45204,-0.200853 c -1.865484,-0.812231 -2.534316,-3.047576 -1.445938,-4.832553 0.697944,-1.144653 1.368452,-1.447368 2.997658,-1.353354 1.347777,0.07777 1.383149,0.100608 1.464485,0.945471 l 0.08335,0.865773 -1.046382,-0.167323 c -0.851599,-0.136177 -1.150311,-0.06339 -1.604701,0.390997 -0.670509,0.670511 -0.70695,1.286715 -0.125203,2.117274 0.371591,0.530519 0.597109,0.599879 1.5875,0.488247 1.153361,-0.13 1.154382,-0.129351 1.154382,0.732567 0,0.670974 -0.132291,0.898135 -0.595312,1.02222 -0.897054,0.240401 -1.567437,0.183586 -2.469835,-0.209319 z m 6.837703,0.189651 c -0.890852,-0.171793 -2.09946,-1.52331 -2.295175,-2.566563 -0.217131,-1.157395 0.321341,-2.514753 1.304364,-3.287999 0.895411,-0.70433 3.136614,-0.793452 4.040063,-0.160654 1.413769,0.990244 1.830625,3.441092 0.806685,4.742819 -0.909627,1.156402 -2.218219,1.588217 -3.855937,1.272397 z m 2.159395,-2.171421 c 0.652557,-0.72107 0.448847,-1.899963 -0.411359,-2.380563 -0.624374,-0.348841 -0.769315,-0.342173 -1.389062,0.0639 -1.244471,0.815408 -0.717436,2.822432 0.741153,2.822432 0.330854,0 0.807524,-0.227596 1.059268,-0.505769 z m -20.690868,-1.015585 0.07454,-3.108855 0.859896,-0.08291 0.859896,-0.08291 v 3.191764 3.191764 h -0.934438 -0.934439 z m -1.354808,-6.252697 c -0.208449,-0.251167 -0.280752,-1.754687 -0.230834,-4.800143 0.06132,-3.741045 0.139461,-4.476495 0.499742,-4.703474 0.234882,-0.147976 0.621835,-0.194305 0.859896,-0.102952 0.37769,0.144933 0.432838,0.750348 0.432838,4.751691 0,4.561924 -0.119426,5.220595 -0.946561,5.220595 -0.171359,0 -0.448145,-0.164573 -0.615081,-0.365717 z m 17.489559,0.04822 c -0.33487,-0.334871 -0.472295,-8.49625 -0.156901,-9.318152 0.208187,-0.54253 1.322697,-0.54253 1.530884,0 0.08833,0.230183 0.1606,2.349496 0.1606,4.709583 0,4.236694 -0.129593,4.926069 -0.926042,4.926069 -0.160073,0 -0.433916,-0.142875 -0.608541,-0.3175 z m -26.05912,-1.435228 c -0.10315,-0.103152 -0.18755,-0.826286 -0.18755,-1.606964 0,-1.022938 0.1118,-1.462316 0.40025,-1.573004 0.7742,-0.29709 1.21707,0.432193 1.13346,1.866487 -0.0655,1.122577 -0.16828,1.35927 -0.61855,1.423724 -0.29703,0.04252 -0.62445,-0.0071 -0.72761,-0.110243 z m 4.158814,-0.186441 c -0.07422,-0.193418 -0.10025,-1.412469 -0.05784,-2.709002 0.06827,-2.087152 0.135751,-2.368552 0.588785,-2.455227 0.281423,-0.05384 0.668376,0.116403 0.859896,0.378322 0.418357,0.572139 0.471563,3.883556 0.07432,4.625804 -0.312248,0.583442 -1.262852,0.687318 -1.465163,0.160103 z m 8.73125,0 c -0.07422,-0.193418 -0.10025,-1.412469 -0.05784,-2.709002 0.06827,-2.087152 0.135751,-2.368552 0.588785,-2.455227 0.281423,-0.05384 0.668376,0.116403 0.859895,0.378322 0.418358,0.572139 0.471564,3.883556 0.07432,4.625804 -0.312249,0.583442 -1.262852,0.687318 -1.465163,0.160103 z m 4.437806,0.03417 c -0.174625,-0.174625 -0.3175,-0.81489 -0.3175,-1.422811 0,-2.162888 1.643582,-2.282745 1.802106,-0.131417 0.114844,1.558558 -0.664443,2.374391 -1.484606,1.554228 z m 4.300564,-0.01561 c -0.07814,-0.203623 -0.107371,-1.432364 -0.06496,-2.730535 0.07581,-2.320714 0.0882,-2.36031 0.738563,-2.36031 h 0.661459 v 2.645833 c 0,2.543946 -0.02297,2.649095 -0.596496,2.730537 -0.332628,0.04723 -0.659341,-0.07907 -0.738565,-0.285524 z m 8.731249,0 c -0.07814,-0.203623 -0.10737,-1.432364 -0.06496,-2.730535 0.07581,-2.320714 0.0882,-2.36031 0.738563,-2.36031 h 0.661458 v 2.645833 c 0,2.543946 -0.02296,2.649095 -0.596495,2.730537 -0.332629,0.04723 -0.659341,-0.07907 -0.738566,-0.285525 z m 4.430686,0.01561 c -0.174625,-0.174625 -0.3175,-0.81489 -0.3175,-1.422811 0,-2.162888 1.643581,-2.282745 1.802107,-0.131417 0.114845,1.558558 -0.664443,2.374391 -1.484607,1.554228 z"
         id="path861"
         inkscape:connector-curvature="0" />
      <path
         style="fill:#000000;fill-opacity:1;stroke-width:0.26458332"
         d="m -97.924478,59.152996 c -1.081374,-0.372451 -2.125832,-1.785951 -2.125832,-2.876963 0,-2.094206 1.361564,-3.391957 3.558739,-3.391957 1.197692,0 1.203764,0.0046 1.203764,0.919427 0,0.879676 -0.03418,0.91259 -0.790659,0.761295 -1.101177,-0.220235 -2.119757,0.481017 -2.119757,1.45937 0,1.060318 0.813082,1.708933 1.972571,1.57357 0.900552,-0.105135 0.937845,-0.076 0.937845,0.732566 0,0.649582 -0.136073,0.87852 -0.595312,1.001592 -0.782576,0.209722 -0.95756,0.194387 -2.041359,-0.1789 z m 9.185109,0.163279 c -0.303468,-0.0793 -0.463021,-0.379159 -0.463021,-0.870173 0,-0.714438 0.04651,-0.742934 1.003165,-0.61462 0.696398,0.09341 1.102933,0.01434 1.329417,-0.258557 0.274377,-0.330604 0.125388,-0.492727 -0.93702,-1.019625 -1.129283,-0.560065 -1.271885,-0.730152 -1.34449,-1.60363 -0.122928,-1.478901 0.638788,-2.115162 2.409687,-2.012812 1.261673,0.07292 1.375699,0.133207 1.375699,0.727365 0,0.558166 -0.124968,0.649739 -0.902679,0.661459 -1.139728,0.01717 -1.361706,0.581698 -0.376082,0.956432 1.552084,0.590101 2.115482,1.841973 1.416638,3.147776 -0.430009,0.803479 -2.158692,1.239862 -3.511314,0.886385 z m 7.483641,-0.163279 c -1.131871,-0.389843 -2.125829,-1.799028 -2.125829,-3.013895 0,-2.066562 1.456788,-3.344229 3.651824,-3.202812 1.186892,0.07646 1.242968,0.115889 1.242968,0.873828 0,0.75349 -0.04939,0.789453 -0.973617,0.709032 -0.710276,-0.0618 -1.121764,0.06343 -1.521354,0.463021 -1.205372,1.205374 -0.316614,2.776943 1.481862,2.620334 0.934046,-0.08134 1.019641,-0.03145 1.096817,0.639256 0.06679,0.580462 -0.057,0.780971 -0.612536,0.992187 -0.85616,0.325511 -1.083911,0.317281 -2.240135,-0.08095 z m 6.45069,-0.03042 c -2.045769,-0.890728 -2.674834,-3.580196 -1.218618,-5.209987 0.597852,-0.669114 1.003504,-0.856917 2.072852,-0.959668 2.462101,-0.236577 3.99013,1.222052 3.726881,3.557611 -0.148543,1.317861 -0.740387,2.10712 -1.97049,2.627768 -1.048403,0.443742 -1.562465,0.440646 -2.610625,-0.01572 z m 2.38479,-1.891775 c 0.882703,-0.882702 0.204486,-2.759226 -0.997244,-2.759226 -0.682717,0 -1.761982,1.000639 -1.761982,1.63362 0,1.22476 1.889334,1.995499 2.759226,1.125606 z m -20.693143,-1.10558 0.07454,-3.108855 0.859896,-0.08291 0.859896,-0.08291 v 3.191764 3.191764 h -0.934438 -0.934439 z m -1.204277,-6.063369 c -0.09701,-0.09701 -0.176389,-2.303406 -0.176389,-4.903095 0,-3.975127 0.06364,-4.751128 0.400245,-4.880295 0.220134,-0.08447 0.577321,-0.0066 0.79375,0.172992 0.3195,0.265162 0.393505,1.156441 0.393505,4.739184 0,3.079247 -0.09594,4.508542 -0.3175,4.730103 -0.351295,0.351295 -0.822612,0.412111 -1.093611,0.141111 z m 17.339028,-0.141111 c -0.221563,-0.221561 -0.3175,-1.650856 -0.3175,-4.730103 0,-3.703328 0.06736,-4.468505 0.419052,-4.760386 0.303879,-0.252196 0.540218,-0.271446 0.859896,-0.07004 0.377759,0.237998 0.451244,0.912311 0.513527,4.712169 0.07219,4.404053 -0.05256,5.16586 -0.845913,5.16586 -0.17136,0 -0.454437,-0.142875 -0.629062,-0.3175 z m -26.07028,-1.446389 c -0.097,-0.09701 -0.17639,-0.79865 -0.17639,-1.559192 0,-1.032968 0.10889,-1.424589 0.43041,-1.547968 0.69341,-0.266084 1.15709,0.352345 1.15709,1.543238 0,1.371985 -0.76035,2.214679 -1.41111,1.563922 z m 4.387676,0.0042 c -0.508985,-0.210066 -0.454048,-4.687761 0.06278,-5.116687 0.216428,-0.179619 0.577952,-0.255802 0.803387,-0.169294 0.338879,0.13004 0.396754,0.604419 0.334098,2.738514 -0.0773,2.633094 -0.226344,2.949418 -1.200261,2.547467 z m 8.725743,-0.137594 c -0.493103,-0.493103 -0.437337,-4.559465 0.06828,-4.979093 0.216428,-0.179619 0.577952,-0.255802 0.803387,-0.169294 0.595067,0.228348 0.460181,5.281147 -0.144066,5.396676 -0.22131,0.04231 -0.548732,-0.06942 -0.727604,-0.248289 z m 4.225611,-0.0077 c -0.389787,-0.389786 -0.415281,-1.915833 -0.04361,-2.61031 0.604892,-1.130252 1.578191,-0.265433 1.578191,1.402291 0,1.308957 -0.802175,1.940427 -1.534583,1.208019 z m 4.367966,0.152272 c -0.103153,-0.103152 -0.18755,-1.286061 -0.18755,-2.628686 0,-2.533736 0.203195,-2.972345 1.199822,-2.589903 0.333714,0.128057 0.392647,0.609831 0.330729,2.703675 -0.06902,2.334227 -0.120623,2.554332 -0.615397,2.625157 -0.297029,0.04252 -0.624451,-0.0071 -0.727604,-0.110243 z m 8.73125,0 c -0.103153,-0.103152 -0.18755,-1.286061 -0.18755,-2.628686 0,-2.533736 0.203195,-2.972345 1.199822,-2.589903 0.333714,0.128057 0.392647,0.609831 0.330729,2.703675 -0.06902,2.334227 -0.120623,2.554332 -0.615397,2.625157 -0.297029,0.04252 -0.624451,-0.0071 -0.727604,-0.110243 z m 4.363283,-0.152272 c -0.389786,-0.389786 -0.415279,-1.915833 -0.04361,-2.61031 0.604893,-1.130252 1.578192,-0.265433 1.578192,1.402291 0,0.893958 -0.383379,1.525519 -0.926042,1.525519 -0.160073,0 -0.433917,-0.142875 -0.608542,-0.3175 z"
         id="path859"
         inkscape:connector-curvature="0" />
      <path
         style="fill:#000000;fill-opacity:1;stroke-width:0.26458332"
         d="m -98.626678,58.72883 c -1.327174,-0.809281 -1.752992,-2.557163 -1.006309,-4.130677 0.499024,-1.051615 1.759226,-1.714077 3.260687,-1.714077 1.050459,0 1.084493,0.02739 1.084493,0.872913 0,0.843911 -0.03116,0.869275 -0.937845,0.763425 -1.154747,-0.13481 -1.972571,0.512282 -1.972571,1.56077 0,1.08563 0.682361,1.631596 1.894707,1.51598 0.990929,-0.0945 1.015709,-0.07571 1.015709,0.770024 0,0.857932 -0.01298,0.866877 -1.256771,0.865899 -0.768037,-6.09e-4 -1.577725,-0.1967 -2.0821,-0.504257 z m 5.720121,-2.687328 v -3.192575 l 0.727604,0.08372 0.727604,0.08372 0.07454,3.108855 0.07454,3.108854 h -0.802146 -0.802147 z m 3.703738,2.46497 c -3.97e-4,-0.689737 0.06375,-0.727605 1.232734,-0.727605 1.664427,0 1.777187,-0.524381 0.25323,-1.177625 -2.668479,-1.143844 -1.668162,-3.914425 1.324699,-3.669021 0.822343,0.06743 1.042604,0.199237 1.108674,0.663449 0.07225,0.507609 -0.05619,0.589471 -1.03777,0.661458 -1.391808,0.102074 -1.592249,0.560828 -0.443714,1.015543 1.338396,0.529884 1.795909,1.041358 1.795909,2.00773 0,1.35605 -0.824616,1.953675 -2.695723,1.953675 -1.5009,0 -1.537621,-0.01737 -1.538039,-0.727604 z m 7.345942,0.313428 c -1.39896,-0.759068 -1.887114,-2.578538 -1.12353,-4.187671 0.532918,-1.123041 1.657665,-1.748153 3.145402,-1.748153 1.199168,0 1.215948,0.01205 1.215948,0.872913 0,0.843911 -0.03116,0.869275 -0.937845,0.763425 -1.146413,-0.133838 -1.972572,0.51059 -1.972572,1.538662 0,0.961929 0.764106,1.5875 1.939063,1.5875 0.902893,0 0.971354,0.05594 0.971354,0.79375 0,0.772027 -0.03439,0.79346 -1.256771,0.783156 -0.691224,-0.0058 -1.582695,-0.187438 -1.981049,-0.403582 z m 5.989487,-0.485408 c -0.73401,-0.734009 -0.899584,-1.101664 -0.899584,-1.997514 0,-2.13522 1.295477,-3.462783 3.360298,-3.443527 1.244439,0.01161 2.074461,0.455104 2.739316,1.463673 0.612786,0.929584 0.660496,2.240563 0.119605,3.28653 -0.603996,1.168001 -1.400077,1.590422 -2.997258,1.590422 -1.265301,0 -1.52237,-0.09958 -2.322377,-0.899584 z m 3.200087,-0.856293 c 1.163701,-0.446554 0.921189,-2.600708 -0.328083,-2.914255 -1.535311,-0.385339 -2.662158,1.122971 -1.810279,2.423101 0.42935,0.655274 1.2309,0.839379 2.138362,0.491154 z m -21.650365,-7.416346 c -0.09701,-0.09701 -0.176389,-2.303406 -0.176389,-4.903095 0,-3.975127 0.06364,-4.751128 0.400245,-4.880295 0.220134,-0.08447 0.577321,-0.0066 0.79375,0.172992 0.3195,0.265162 0.393505,1.156441 0.393505,4.739184 0,3.079247 -0.09594,4.508542 -0.3175,4.730103 -0.351295,0.351295 -0.822612,0.412111 -1.093611,0.141111 z m 17.411111,-0.144081 c -0.07589,-0.197768 -0.105297,-2.43899 -0.06535,-4.980492 0.06949,-4.420311 0.09561,-4.620913 0.601805,-4.620913 0.510082,0 0.529167,0.176389 0.529167,4.891169 0,4.451111 -0.04173,4.899204 -0.46382,4.980492 -0.255103,0.04913 -0.525915,-0.07249 -0.601805,-0.270256 z m -26.142363,-1.443419 c -0.097,-0.09701 -0.17639,-0.819297 -0.17639,-1.605074 0,-1.402472 0.0133,-1.427149 0.72761,-1.344965 0.65334,0.07518 0.736,0.20048 0.80992,1.227753 0.0823,1.144005 -0.26125,1.898675 -0.86437,1.898675 -0.17621,0 -0.39975,-0.07937 -0.49677,-0.176389 z m 4.374447,-0.141111 c -0.488296,-0.488295 -0.423371,-4.556925 0.07938,-4.974166 0.316631,-0.262781 0.477118,-0.262781 0.79375,0 0.589906,0.489579 0.571291,4.903538 -0.02164,5.131067 -0.532858,0.204477 -0.480449,0.214134 -0.851484,-0.156901 z m 8.731249,0 c -0.195176,-0.195176 -0.3175,-1.151087 -0.3175,-2.481144 0,-2.26383 0.297008,-2.931616 1.15709,-2.601571 0.627801,0.240909 0.638604,4.999126 0.0119,5.239616 -0.532859,0.204477 -0.480451,0.214134 -0.851486,-0.156901 z m 4.189726,-0.194272 c -0.30544,-0.570721 -0.357773,-1.607608 -0.113293,-2.244713 0.208188,-0.54253 1.322696,-0.54253 1.530885,0 0.420903,1.096856 -0.03996,2.756485 -0.765443,2.756485 -0.208041,0 -0.501508,-0.230297 -0.652149,-0.511772 z m 4.554753,0.336544 c -0.511714,-0.206482 -0.453818,-4.684907 0.06615,-5.116438 0.316632,-0.262781 0.477118,-0.262781 0.79375,0 0.589907,0.489579 0.571291,4.903538 -0.02164,5.131067 -0.230182,0.08833 -0.438541,0.1512 -0.463021,0.139711 -0.02447,-0.01149 -0.193333,-0.08094 -0.375234,-0.15434 z m 8.73125,0 c -0.511714,-0.206482 -0.453818,-4.684907 0.06615,-5.116438 0.316632,-0.262781 0.477118,-0.262781 0.79375,0 0.589907,0.489579 0.571291,4.903538 -0.02164,5.131067 -0.230182,0.08833 -0.438541,0.1512 -0.463021,0.139711 -0.02447,-0.01149 -0.193333,-0.08094 -0.375234,-0.15434 z m 4.176496,-0.336544 c -0.305441,-0.570721 -0.357772,-1.607608 -0.113292,-2.244713 0.208187,-0.54253 1.322697,-0.54253 1.530884,0 0.420905,1.096856 -0.03995,2.756485 -0.765442,2.756485 -0.208042,0 -0.50151,-0.230297 -0.65215,-0.511772 z"
         id="path857"
         inkscape:connector-curvature="0" />
      <path
         style="fill:#000000;fill-opacity:1;stroke-width:0.26458332"
         d="m -98.398941,58.883442 c -2.886619,-1.603131 -1.411137,-6.166038 1.920509,-5.939148 0.936671,0.06379 1.067958,0.155716 1.142053,0.799677 0.07832,0.6807 0.01863,0.727866 -0.926041,0.731656 -1.158711,0.0046 -1.472147,0.165119 -1.896232,0.970813 -0.664811,1.263035 0.580172,2.576337 2.156633,2.274977 0.652322,-0.124699 0.714212,-0.06508 0.714212,0.688064 0,0.808654 -0.0243,0.824413 -1.256771,0.815219 -0.691224,-0.0052 -1.525687,-0.158723 -1.854363,-0.341258 z m 5.492384,-2.692075 v -3.042708 h 0.79375 0.79375 v 3.042708 3.042709 h -0.79375 -0.79375 z m 3.704167,2.38125 c 0,-0.606259 0.09805,-0.661458 1.17501,-0.661458 1.288819,0 1.843238,-0.463368 1.088423,-0.909674 -0.261337,-0.154523 -0.847755,-0.522922 -1.30315,-0.818664 -1.793954,-1.165027 -0.797043,-3.298745 1.541232,-3.298745 1.098504,0 1.202651,0.0559 1.202651,0.645486 0,0.552186 -0.140458,0.657357 -0.971735,0.727605 -1.38938,0.117411 -1.395648,0.654911 -0.01454,1.246923 0.645953,0.276888 1.251181,0.703364 1.344951,0.947724 0.632553,1.648409 -0.444675,2.782262 -2.643316,2.782262 -1.337773,0 -1.419527,-0.03809 -1.419526,-0.661459 z m 7.237172,0.15178 c -1.647222,-1.004416 -1.82404,-3.640092 -0.328617,-4.898408 0.917592,-0.772102 1.690956,-1.021217 2.782912,-0.896427 0.607158,0.06939 0.776481,0.233926 0.843833,0.819992 0.07553,0.657225 0.007,0.727915 -0.661458,0.682294 -1.157367,-0.07899 -1.919811,0.278617 -2.096701,0.983404 -0.38239,1.523559 0.406672,2.386206 2.078588,2.272432 0.643855,-0.04381 0.727604,0.04233 0.727604,0.748439 0,0.775694 -0.03506,0.797925 -1.256771,0.796964 -0.771885,-6.09e-4 -1.578012,-0.19687 -2.08939,-0.50869 z m 6.479939,-0.08695 c -2.637007,-2.22915 -0.917147,-6.129033 2.500751,-5.670596 2.953253,0.396114 3.836506,4.530041 1.253297,5.865869 -1.171884,0.606006 -2.913319,0.515422 -3.754048,-0.195273 z m 3.227922,-1.401846 c 0.508905,-0.613194 0.423053,-1.985238 -0.150464,-2.404603 -1.631121,-1.192706 -3.675144,0.849521 -2.33377,2.331721 0.538276,0.594789 2.01513,0.638116 2.484234,0.07288 z m -21.905971,-7.172589 c -0.247341,-0.09981 -0.330729,-1.330767 -0.330729,-4.882207 0,-3.994808 0.06355,-4.773141 0.400245,-4.902344 0.220134,-0.08447 0.577321,-0.0066 0.79375,0.172992 0.318175,0.264062 0.393505,1.134116 0.393505,4.544912 0,4.740817 -0.187813,5.497981 -1.256771,5.066647 z m 17.256771,-0.145242 c -0.07589,-0.197768 -0.105297,-2.43899 -0.06535,-4.980492 0.06949,-4.420311 0.09561,-4.620913 0.601805,-4.620913 0.510082,0 0.529167,0.176389 0.529167,4.891169 0,4.451111 -0.04173,4.899204 -0.46382,4.980492 -0.255103,0.04913 -0.525915,-0.07249 -0.601805,-0.270256 z m -26.004173,-1.495117 c -0.22951,-0.145547 -0.31903,-0.658155 -0.26458,-1.514923 0.0648,-1.019792 0.18799,-1.31503 0.57976,-1.389497 0.2736,-0.05201 0.5992,0.06598 0.72355,0.262203 0.33549,0.529391 0.28136,2.188139 -0.0833,2.552804 -0.37275,0.372758 -0.49116,0.383839 -0.95542,0.08941 z m 4.236257,-0.08941 c -0.366551,-0.36655 -0.43346,-4.116942 -0.08331,-4.66947 0.124349,-0.19622 0.449948,-0.313965 0.723552,-0.261658 0.431774,0.08255 0.507665,0.38634 0.574723,2.300635 0.0902,2.574824 -0.339757,3.505705 -1.214968,2.630493 z m 8.699615,-0.05373 c -0.195397,-0.235439 -0.279834,-1.179062 -0.230834,-2.579688 0.07552,-2.158694 0.09216,-2.208456 0.738718,-2.208456 0.646555,0 0.6632,0.04976 0.738719,2.208456 0.07221,2.064153 -0.149776,2.950919 -0.738719,2.950919 -0.109884,0 -0.338432,-0.167054 -0.507884,-0.371231 z m 4.526627,0.142895 c -0.229629,-0.14546 -0.319063,-0.658255 -0.264583,-1.517053 0.07127,-1.123399 0.163958,-1.308896 0.691418,-1.383676 0.582696,-0.08261 0.605651,-0.02039 0.529167,1.434305 -0.08016,1.524603 -0.309298,1.876082 -0.956002,1.466424 z m 4.204624,-0.142895 c -0.195398,-0.235439 -0.279834,-1.179062 -0.230836,-2.579688 0.07552,-2.158694 0.09216,-2.208456 0.738719,-2.208456 0.646555,0 0.6632,0.04976 0.73872,2.208456 0.07221,2.064153 -0.149778,2.950919 -0.73872,2.950919 -0.109884,0 -0.338431,-0.167054 -0.507883,-0.371231 z m 8.73125,0 c -0.195398,-0.235439 -0.279834,-1.179062 -0.230836,-2.579688 0.07552,-2.158694 0.09217,-2.208456 0.738719,-2.208456 0.646554,0 0.663199,0.04976 0.738719,2.208456 0.07221,2.064153 -0.149778,2.950919 -0.738719,2.950919 -0.109884,0 -0.338431,-0.167054 -0.507883,-0.371231 z m 4.388439,0.194842 c -0.09701,-0.09701 -0.176389,-0.819669 -0.176389,-1.605902 0,-1.33112 0.04098,-1.423693 0.595312,-1.344965 0.511188,0.0726 0.606941,0.267872 0.677611,1.381867 0.05447,0.858715 -0.03498,1.371692 -0.264583,1.517302 -0.424669,0.269315 -0.603239,0.280412 -0.831951,0.0517 z"
         id="path855"
         inkscape:connector-curvature="0" />
      <path
         style="fill:#000000;fill-opacity:1;stroke-width:0.26458332"
         d="m -98.88614,58.334492 c -0.781483,-0.781482 -0.899583,-1.07205 -0.899583,-2.213277 0,-1.620127 0.66641,-2.569308 2.106891,-3.000887 1.394495,-0.417801 2.391025,-0.142345 2.391025,0.660915 0,0.557017 -0.114113,0.61951 -1.084776,0.594058 -0.839906,-0.02202 -1.198258,0.1117 -1.5875,0.592394 -1.05443,1.302166 -0.206402,2.799146 1.585697,2.799146 1.011129,0 1.086579,0.05094 1.086579,0.733617 0,0.70587 -0.05104,0.733618 -1.349375,0.733618 -1.181805,0 -1.461088,-0.111713 -2.248958,-0.899584 z m 5.979583,-2.143125 v -3.042708 h 0.79375 0.79375 v 3.042708 3.042709 h -0.79375 -0.79375 z m 3.704167,2.395747 c 0,-0.584106 0.1221,-0.654796 1.256771,-0.727604 1.571616,-0.100845 1.680444,-0.670736 0.256153,-1.341383 -2.476686,-1.166182 -1.538334,-3.853582 1.250315,-3.580846 0.622896,0.06092 0.829168,0.224311 0.898024,0.711335 0.07644,0.540678 0.0032,0.609707 -0.505797,0.476605 -0.647253,-0.16926 -1.567966,0.202877 -1.567966,0.633748 0,0.147826 0.404855,0.437934 0.899678,0.644685 1.846291,0.771429 2.271881,2.005832 1.096723,3.18099 -0.533372,0.533372 -0.911639,0.649432 -2.116666,0.649432 -1.379895,0 -1.467235,-0.03851 -1.467235,-0.646962 z m 7.343685,0.182673 c -2.254199,-1.397671 -1.73165,-4.87639 0.848624,-5.649459 1.394495,-0.417801 2.391024,-0.142345 2.391024,0.660915 0,0.556802 -0.114245,0.619506 -1.082474,0.594118 -1.276482,-0.03347 -1.827943,0.527804 -1.827943,1.860477 0,1.105075 0.952045,1.815641 2.119757,1.582099 0.736082,-0.147217 0.79066,-0.103797 0.79066,0.629003 0,0.763638 -0.03752,0.786926 -1.256771,0.780095 -0.710951,-0.004 -1.572122,-0.202567 -1.982877,-0.457248 z m 6.647873,0.0666 c -1.497547,-0.813827 -1.968707,-3.442608 -0.84047,-4.689295 0.664514,-0.734281 1.772864,-1.263188 2.644626,-1.262024 1.531779,0.002 3.254285,1.688955 3.254285,3.187031 0,0.951508 -0.822063,2.369282 -1.610039,2.77676 -0.937186,0.484638 -2.544353,0.478826 -3.448402,-0.01247 z m 2.821508,-1.574657 c 0.765906,-0.765905 0.825313,-1.469788 0.186413,-2.208682 -0.717603,-0.829912 -1.474801,-0.930599 -2.273531,-0.302317 -0.942665,0.741501 -0.945218,1.873186 -0.0059,2.612061 0.903224,0.710477 1.300663,0.691286 2.09301,-0.101062 z m -21.774004,-7.2168 c -0.247884,-0.08647 -0.330729,-1.295711 -0.330729,-4.827509 0,-4.063342 0.05793,-4.734375 0.420752,-4.873602 0.231413,-0.0888 0.529069,-0.09451 0.661458,-0.01269 0.132389,0.08182 0.240707,2.272125 0.240707,4.867342 0,4.783972 -0.07807,5.165323 -0.992188,4.846461 z m 17.432211,-0.04911 c -0.226643,-0.140073 -0.29304,-1.502388 -0.240589,-4.936458 0.06938,-4.542459 0.09481,-4.742995 0.601607,-4.742995 0.507066,0 0.532173,0.200388 0.601163,4.798094 0.05786,3.856054 0.0013,4.825259 -0.288576,4.936458 -0.198316,0.0761 -0.501438,0.05131 -0.673605,-0.0551 z m -26.441873,-2.998724 c 0.0683,-1.186015 0.15733,-1.389062 0.60914,-1.389062 0.45182,0 0.54086,0.203047 0.60914,1.389062 0.0772,1.340613 0.0559,1.389063 -0.60914,1.389063 -0.66507,0 -0.68632,-0.04845 -0.60914,-1.389063 z m 4.4456,-1.124479 c 0,-2.493465 0.01328,-2.54846 0.595312,-2.465798 0.567001,0.08053 0.595313,0.197794 0.595313,2.465798 0,2.268005 -0.02831,2.385271 -0.595313,2.465798 -0.582035,0.08266 -0.595312,0.02767 -0.595312,-2.465798 z m 8.632634,2.109017 c -0.212442,-0.553615 -0.216401,-3.654102 -0.0054,-4.204044 0.244163,-0.636277 1.128644,-0.512513 1.303039,0.182332 0.08294,0.330466 0.114976,1.431794 0.07119,2.447396 -0.07117,1.650582 -0.139221,1.855054 -0.641253,1.926684 -0.331266,0.04727 -0.629714,-0.09727 -0.727604,-0.352368 z m 4.438306,0.03547 c -0.07789,-0.202978 -0.103919,-0.828056 -0.05784,-1.389063 0.067,-0.815697 0.189772,-1.020011 0.612943,-1.020011 0.451816,0 0.540857,0.203047 0.60914,1.389062 0.07236,1.256849 0.0275,1.389063 -0.471325,1.389063 -0.303214,0 -0.615026,-0.166073 -0.692916,-0.369051 z m 4.246187,0.03349 c -0.07865,-0.20497 -0.107889,-1.314649 -0.06496,-2.465953 0.0759,-2.035631 0.09626,-2.09328 0.739502,-2.09328 0.656558,0 0.661459,0.01764 0.661459,2.38125 0,2.269408 -0.02802,2.385229 -0.596496,2.465953 -0.334147,0.04745 -0.659392,-0.0792 -0.739502,-0.28797 z m 8.73125,0 c -0.07866,-0.20497 -0.107889,-1.314649 -0.06496,-2.465953 0.0759,-2.035631 0.09626,-2.09328 0.739502,-2.09328 0.656558,0 0.661458,0.01764 0.661458,2.38125 0,2.269408 -0.02802,2.385229 -0.596495,2.465953 -0.334147,0.04745 -0.659392,-0.0792 -0.739502,-0.28797 z m 4.430321,-1.033197 c 0.06904,-1.206088 0.157001,-1.409369 0.609843,-1.409369 0.45861,0 0.529167,0.176389 0.529167,1.322917 0,1.179859 -0.06595,1.332265 -0.609844,1.409368 -0.579432,0.08214 -0.605821,0.01617 -0.529166,-1.322916 z"
         id="path853"
         inkscape:connector-curvature="0" />
      <path
         style="fill:#000000;fill-opacity:1;stroke-width:0.26458332"
         d="m -98.379775,58.718078 c -0.463655,-0.282711 -0.969671,-0.750688 -1.124479,-1.03995 -0.395859,-0.739669 -0.349862,-2.306825 0.09283,-3.162902 0.849214,-1.642198 4.123614,-2.19253 4.123614,-0.69306 0,0.55388 -0.09161,0.601274 -0.906604,0.469019 -0.736005,-0.119437 -1.03473,-0.01899 -1.5875,0.533775 -0.855117,0.855117 -0.867826,1.760013 -0.0357,2.541757 0.490984,0.461256 0.870426,0.579838 1.5875,0.496124 0.881791,-0.102944 0.942301,-0.06245 0.942301,0.630613 0,0.695086 -0.06914,0.740561 -1.124479,0.739633 -0.646191,-5.56e-4 -1.483046,-0.219623 -1.967489,-0.515009 z m 5.473218,-2.526711 v -3.042708 h 0.661458 0.661459 v 3.042708 3.042709 h -0.661459 -0.661458 z m 3.704167,2.376209 c 0,-0.578814 0.08702,-0.644658 0.661458,-0.500483 0.870033,0.218364 1.887471,-0.05094 2.079099,-0.550317 0.10798,-0.281391 -0.228497,-0.592315 -1.14188,-1.055161 -1.411862,-0.715445 -1.749552,-1.294176 -1.357241,-2.326033 0.475476,-1.250596 3.46273,-1.627916 3.46273,-0.437377 0,0.329116 -0.131684,0.441648 -0.397466,0.339657 -0.694693,-0.266578 -1.7192,0.140328 -1.7192,0.682819 0,0.340863 0.298991,0.602283 0.925221,0.808957 1.699857,0.561004 2.184106,1.94208 1.07118,3.055006 -0.533372,0.533372 -0.911639,0.649432 -2.116666,0.649432 -1.391621,0 -1.467235,-0.03435 -1.467235,-0.6665 z m 7.775606,0.413536 c -1.028672,-0.427313 -1.69019,-1.570959 -1.69019,-2.922036 0,-1.583272 0.700869,-2.529182 2.166385,-2.923804 1.473829,-0.396862 2.331532,-0.152871 2.331532,0.663252 0,0.574967 -0.08773,0.625545 -0.866008,0.499249 -1.175099,-0.190692 -2.132602,0.58006 -2.132602,1.716657 0,1.194113 0.740754,1.896729 1.999686,1.896729 0.92275,0 1.026507,0.06494 0.95118,0.595313 -0.06995,0.492511 -0.267303,0.604934 -1.142881,0.651032 -0.582083,0.03065 -1.30978,-0.04873 -1.617102,-0.176392 z m 6.010767,-0.425501 c -2.819074,-2.372095 -0.17966,-6.736937 3.2159,-5.318182 1.244708,0.520072 1.915435,1.580659 1.915435,3.028778 0,0.997492 -0.135843,1.280937 -0.988301,2.062157 -1.28782,1.180198 -2.905093,1.268906 -4.143034,0.227247 z m 3.14696,-1.173619 c 0.291041,-0.291041 0.529166,-0.832235 0.529166,-1.202651 0,-0.808565 -1.085725,-1.972349 -1.840058,-1.972349 -1.344617,0 -2.123048,2.157971 -1.161642,3.220313 0.577744,0.6384 1.81143,0.615791 2.472534,-0.04531 z m -21.928176,-7.481926 c -0.195535,-0.195535 -0.296824,-1.795586 -0.296824,-4.688907 0,-4.413346 0.14708,-5.157096 0.958283,-4.845808 0.535686,0.205562 0.535686,9.486054 0,9.691616 -0.200549,0.07696 -0.498206,0.0064 -0.661459,-0.156901 z m 17.351212,-0.09365 c -0.102044,-0.102045 -0.185536,-2.175176 -0.185536,-4.606958 0,-3.416693 0.08221,-4.489651 0.36177,-4.721666 0.800412,-0.664284 0.976588,0.292714 0.901539,4.897269 -0.06158,3.778128 -0.135298,4.471572 -0.48246,4.538221 -0.225378,0.04327 -0.493268,-0.0048 -0.595313,-0.106866 z m -26.193749,-1.5875 c -0.10205,-0.102045 -0.18554,-0.688735 -0.18554,-1.303756 0,-0.799745 0.12564,-1.16643 0.44112,-1.287493 0.67133,-0.257615 0.92424,0.186911 0.83262,1.463491 -0.0794,1.10606 -0.58544,1.63052 -1.0882,1.127758 z m 4.488769,-0.0091 c -0.09701,-0.09701 -0.176389,-1.172313 -0.176389,-2.389554 0,-1.785191 0.08191,-2.244597 0.423578,-2.375707 0.232968,-0.0894 0.528801,0.0036 0.657407,0.206742 0.264837,0.418254 0.326261,3.678119 0.08133,4.316394 -0.165043,0.430096 -0.673171,0.554882 -0.985928,0.242125 z m 8.611078,-2.267983 c 0.06479,-2.081855 0.144744,-2.457508 0.539095,-2.532942 0.414897,-0.07937 0.463021,0.174694 0.463021,2.444372 0,2.372103 -0.03423,2.532942 -0.539095,2.532942 -0.508993,0 -0.534848,-0.136491 -0.463021,-2.444372 z m 4.362651,2.27713 c -0.263054,-0.263055 -0.222858,-2.009975 0.0564,-2.451 0.132721,-0.209605 0.423301,-0.296576 0.672014,-0.201136 0.597618,0.229328 0.481194,2.643561 -0.133098,2.759999 -0.225378,0.04272 -0.493268,-0.0058 -0.595313,-0.107863 z m 4.224188,-0.0091 c -0.220525,-0.220523 -0.233508,-3.864821 -0.01579,-4.43218 0.08833,-0.230183 0.385984,-0.418514 0.661458,-0.418514 0.456274,0 0.500859,0.223742 0.500859,2.513541 0,2.260985 -0.04874,2.513542 -0.485069,2.513542 -0.26679,0 -0.564446,-0.07937 -0.661458,-0.176389 z m 8.819443,-2.337153 c 0,-2.493465 0.01328,-2.54846 0.595313,-2.465798 0.567002,0.08053 0.595312,0.197794 0.595312,2.465798 0,2.268005 -0.02831,2.385271 -0.595312,2.465798 -0.582036,0.08266 -0.595313,0.02767 -0.595313,-2.465798 z m 4.41887,2.3463 c -0.29096,-0.29096 -0.216977,-2.42793 0.09064,-2.618046 0.56161,-0.347093 1.07492,0.463657 0.993698,1.569502 -0.07565,1.030021 -0.597874,1.535004 -1.084334,1.048544 z"
         id="path851"
         inkscape:connector-curvature="0" />
    </g>
  </g>
</svg>
